<?xml version="1.0" encoding="UTF-8"?>
<svg width="64px" height="58px" viewBox="0 0 64 58" version="1.1" xmlns="http://www.w3.org/2000/svg" xmlns:xlink="http://www.w3.org/1999/xlink">
    <!-- Generator: sketchtool 54.1 (76490) - https://sketchapp.com -->
    <title>1E2DC75D-B321-4A11-A4FC-4C0C3C81950E</title>
    <desc>Created with sketchtool.</desc>
    <defs>
        <path d="M34.7144921,3.62345051 L64.274427,56.5233987 C64.8132346,57.4876394 64.4683529,58.7061008 63.5041122,59.2449084 C63.2059448,59.4115212 62.8700753,59.4989961 62.5285148,59.4989961 L3.40864483,59.4989961 C2.30407533,59.4989961 1.40864483,58.6035656 1.40864483,57.4989961 C1.40864483,57.1574355 1.49611976,56.8215661 1.66273256,56.5233987 L31.2226675,3.62345051 C31.7614751,2.65920978 32.9799365,2.31432808 33.9441772,2.85313566 C34.2672805,3.03368238 34.5339453,3.30034721 34.7144921,3.62345051 Z" id="path-1"></path>
    </defs>
    <g id="Page-1" stroke="none" stroke-width="1" fill="none" fill-rule="evenodd">
        <g id="Pop--ups" transform="translate(-74.000000, -752.000000)">
            <g id="notice/error-copy-2" transform="translate(43.000000, 669.000000)">
                <g id="Group-2-Copy-2" transform="translate(30.000000, 81.000000)">
                    <g id="Triangle-Copy">
                        <mask id="mask-2" fill="white">
                            <use xlink:href="#path-1"></use>
                        </mask>
                        <use id="Mask" fill="#FACD40" xlink:href="#path-1"></use>
                        <path d="M33.0947581,0.498996109 L64.4006053,56.5233987 C64.9394129,57.4876394 64.5945312,58.7061008 63.6302904,59.2449084 C63.3321231,59.4115212 62.9962536,59.4989961 62.654693,59.4989961 L33.0947581,59.4989961 L33.0947581,0.498996109 Z" fill="#FAC432" mask="url(#mask-2)"></path>
                    </g>
                    <g id="Group" transform="translate(29.201257, 18.000000)" fill="#FFFFFF">
                        <path d="M6.77073432,4.01162791 L6.77073432,19.9651163 C6.77073432,22.1587209 5.26280055,23.9534884 3.41977039,23.9534884 C1.57674023,23.9534884 0.0688064594,22.1587209 0.0688064594,19.9651163 L0.0688064594,4.01162791 C0.0688064594,1.81802326 1.57674023,0.023255814 3.41977039,0.023255814 C5.26280055,0.023255814 6.77073432,1.8181562 6.77073432,4.01162791 Z" id="Path"></path>
                        <path d="M6.77073432,31.4186047 C6.77073432,33.3372093 5.26280055,34.9069767 3.41977039,34.9069767 C1.57674023,34.9069767 0.0688064594,33.3372093 0.0688064594,31.4186047 C0.0688064594,29.5 1.57674023,27.9302326 3.41977039,27.9302326 C5.26280055,27.9302326 6.77073432,29.5001163 6.77073432,31.4186047 Z" id="Path"></path>
                    </g>
                </g>
            </g>
        </g>
    </g>
</svg>