<?xml version="1.0" encoding="UTF-8" standalone="no"?>
<!DOCTYPE svg PUBLIC "-//W3C//DTD SVG 1.1//EN"
 "http://www.w3.org/Graphics/SVG/1.1/DTD/svg11.dtd">
<!-- Generated by graphviz version 2.40.1 (20161225.0304)
 -->
<!-- Title: dependencies Pages: 1 -->
<svg width="504pt" height="211pt"
 viewBox="0.00 0.00 504.00 211.00" xmlns="http://www.w3.org/2000/svg" xmlns:xlink="http://www.w3.org/1999/xlink">
<g id="graph0" class="graph" transform="scale(1 1) rotate(0) translate(4 207)">
<title>dependencies</title>
<polygon fill="#ffffff" stroke="transparent" points="-4,4 -4,-207 500,-207 500,4 -4,4"/>
<text text-anchor="start" x="227.0091" y="-42.4" font-family="sans-serif" font-weight="bold" font-size="14.00" fill="#000000">Legend</text>
<polygon fill="#ffffb3" stroke="transparent" points="14,-10 14,-30 34,-30 34,-10 14,-10"/>
<text text-anchor="start" x="37.629" y="-15.4" font-family="sans-serif" font-size="14.00" fill="#000000"> &#160;Declarations</text>
<polygon fill="#8dd3c7" stroke="transparent" points="127,-10 127,-30 147,-30 147,-10 127,-10"/>
<text text-anchor="start" x="150.7251" y="-15.4" font-family="sans-serif" font-size="14.00" fill="#000000"> &#160;Module</text>
<polygon fill="#80b1d3" stroke="transparent" points="213,-10 213,-30 233,-30 233,-10 213,-10"/>
<text text-anchor="start" x="236.7812" y="-15.4" font-family="sans-serif" font-size="14.00" fill="#000000"> &#160;Bootstrap</text>
<polygon fill="#fdb462" stroke="transparent" points="310,-10 310,-30 330,-30 330,-10 310,-10"/>
<text text-anchor="start" x="333.6732" y="-15.4" font-family="sans-serif" font-size="14.00" fill="#000000"> &#160;Providers</text>
<polygon fill="#fb8072" stroke="transparent" points="406,-10 406,-30 426,-30 426,-10 406,-10"/>
<text text-anchor="start" x="429.7258" y="-15.4" font-family="sans-serif" font-size="14.00" fill="#000000"> &#160;Exports</text>
<g id="clust1" class="cluster">
<title>cluster_ClickDatePickerModule</title>
<polygon fill="none" stroke="#000000" stroke-dasharray="1,5" points="32,-70 32,-195 464,-195 464,-70 32,-70"/>
</g>
<g id="clust2" class="cluster">
<title>cluster_ClickDatePickerModule_declarations</title>
<polygon fill="none" stroke="#000000" points="40,-78 40,-130 456,-130 456,-78 40,-78"/>
</g>
<!-- ClickDatePickerComponent -->
<g id="node1" class="node">
<title>ClickDatePickerComponent</title>
<polygon fill="#ffffb3" stroke="#000000" points="447.8543,-122 274.1457,-122 274.1457,-86 447.8543,-86 447.8543,-122"/>
<text text-anchor="middle" x="361" y="-99.8" font-family="Times,serif" font-size="14.00" fill="#000000">ClickDatePickerComponent</text>
</g>
<!-- ClickDatePickerModule -->
<g id="node3" class="node">
<title>ClickDatePickerModule</title>
<polygon fill="#8dd3c7" stroke="#000000" points="332.0716,-187 329.0716,-191 308.0716,-191 305.0716,-187 179.9284,-187 179.9284,-151 332.0716,-151 332.0716,-187"/>
<text text-anchor="middle" x="256" y="-164.8" font-family="Times,serif" font-size="14.00" fill="#000000">ClickDatePickerModule</text>
</g>
<!-- ClickDatePickerComponent&#45;&gt;ClickDatePickerModule -->
<g id="edge1" class="edge">
<title>ClickDatePickerComponent&#45;&gt;ClickDatePickerModule</title>
<path fill="none" stroke="#000000" d="M303.0544,-122.1061C303.0544,-122.1061 303.0544,-140.991 303.0544,-140.991"/>
<polygon fill="#000000" stroke="#000000" points="299.5544,-140.9909 303.0544,-150.991 306.5544,-140.991 299.5544,-140.9909"/>
</g>
<!-- ClickDatePickerDemoComponent -->
<g id="node2" class="node">
<title>ClickDatePickerDemoComponent</title>
<polygon fill="#ffffb3" stroke="#000000" points="256.066,-122 47.934,-122 47.934,-86 256.066,-86 256.066,-122"/>
<text text-anchor="middle" x="152" y="-99.8" font-family="Times,serif" font-size="14.00" fill="#000000">ClickDatePickerDemoComponent</text>
</g>
<!-- ClickDatePickerDemoComponent&#45;&gt;ClickDatePickerModule -->
<g id="edge2" class="edge">
<title>ClickDatePickerDemoComponent&#45;&gt;ClickDatePickerModule</title>
<path fill="none" stroke="#000000" d="M217.9986,-122.1061C217.9986,-122.1061 217.9986,-140.991 217.9986,-140.991"/>
<polygon fill="#000000" stroke="#000000" points="214.4987,-140.9909 217.9986,-150.991 221.4987,-140.991 214.4987,-140.9909"/>
</g>
</g>
</svg>
