<?xml version="1.0" encoding="UTF-8" standalone="no"?>
<!DOCTYPE svg PUBLIC "-//W3C//DTD SVG 1.1//EN"
 "http://www.w3.org/Graphics/SVG/1.1/DTD/svg11.dtd">
<!-- Generated by graphviz version 2.40.1 (20161225.0304)
 -->
<!-- Title: dependencies Pages: 1 -->
<svg width="592pt" height="211pt"
 viewBox="0.00 0.00 592.00 211.00" xmlns="http://www.w3.org/2000/svg" xmlns:xlink="http://www.w3.org/1999/xlink">
<g id="graph0" class="graph" transform="scale(1 1) rotate(0) translate(4 207)">
<title>dependencies</title>
<polygon fill="#ffffff" stroke="transparent" points="-4,4 -4,-207 588,-207 588,4 -4,4"/>
<text text-anchor="start" x="271.0091" y="-42.4" font-family="sans-serif" font-weight="bold" font-size="14.00" fill="#000000">Legend</text>
<polygon fill="#ffffb3" stroke="transparent" points="58,-10 58,-30 78,-30 78,-10 58,-10"/>
<text text-anchor="start" x="81.629" y="-15.4" font-family="sans-serif" font-size="14.00" fill="#000000"> &#160;Declarations</text>
<polygon fill="#8dd3c7" stroke="transparent" points="171,-10 171,-30 191,-30 191,-10 171,-10"/>
<text text-anchor="start" x="194.7251" y="-15.4" font-family="sans-serif" font-size="14.00" fill="#000000"> &#160;Module</text>
<polygon fill="#80b1d3" stroke="transparent" points="257,-10 257,-30 277,-30 277,-10 257,-10"/>
<text text-anchor="start" x="280.7812" y="-15.4" font-family="sans-serif" font-size="14.00" fill="#000000"> &#160;Bootstrap</text>
<polygon fill="#fdb462" stroke="transparent" points="354,-10 354,-30 374,-30 374,-10 354,-10"/>
<text text-anchor="start" x="377.6732" y="-15.4" font-family="sans-serif" font-size="14.00" fill="#000000"> &#160;Providers</text>
<polygon fill="#fb8072" stroke="transparent" points="450,-10 450,-30 470,-30 470,-10 450,-10"/>
<text text-anchor="start" x="473.7258" y="-15.4" font-family="sans-serif" font-size="14.00" fill="#000000"> &#160;Exports</text>
<g id="clust1" class="cluster">
<title>cluster_ClickDatePickerRangeDemoModule</title>
<polygon fill="none" stroke="#000000" stroke-dasharray="1,5" points="8,-70 8,-195 576,-195 576,-70 8,-70"/>
</g>
<g id="clust2" class="cluster">
<title>cluster_ClickDatePickerRangeDemoModule_declarations</title>
<polygon fill="none" stroke="#000000" points="308,-78 308,-130 568,-130 568,-78 308,-78"/>
</g>
<g id="clust4" class="cluster">
<title>cluster_ClickDatePickerRangeDemoModule_imports</title>
<polygon fill="none" stroke="#000000" points="16,-78 16,-130 300,-130 300,-78 16,-78"/>
</g>
<!-- ClickDatePickerRangeDemoComponent -->
<g id="node1" class="node">
<title>ClickDatePickerRangeDemoComponent</title>
<polygon fill="#ffffb3" stroke="#000000" points="559.8319,-122 316.1681,-122 316.1681,-86 559.8319,-86 559.8319,-122"/>
<text text-anchor="middle" x="438" y="-99.8" font-family="Times,serif" font-size="14.00" fill="#000000">ClickDatePickerRangeDemoComponent</text>
</g>
<!-- ClickDatePickerRangeDemoModule -->
<g id="node2" class="node">
<title>ClickDatePickerRangeDemoModule</title>
<polygon fill="#8dd3c7" stroke="#000000" points="409.0492,-187 406.0492,-191 385.0492,-191 382.0492,-187 186.9508,-187 186.9508,-151 409.0492,-151 409.0492,-187"/>
<text text-anchor="middle" x="298" y="-164.8" font-family="Times,serif" font-size="14.00" fill="#000000">ClickDatePickerRangeDemoModule</text>
</g>
<!-- ClickDatePickerRangeDemoComponent&#45;&gt;ClickDatePickerRangeDemoModule -->
<g id="edge1" class="edge">
<title>ClickDatePickerRangeDemoComponent&#45;&gt;ClickDatePickerRangeDemoModule</title>
<path fill="none" stroke="#000000" d="M362.5544,-122.1061C362.5544,-122.1061 362.5544,-140.991 362.5544,-140.991"/>
<polygon fill="#000000" stroke="#000000" points="359.0544,-140.9909 362.5544,-150.991 366.0544,-140.991 359.0544,-140.9909"/>
</g>
<!-- ClickDatePickerRangeDemoRoutingModule -->
<g id="node3" class="node">
<title>ClickDatePickerRangeDemoRoutingModule</title>
<polygon fill="#8dd3c7" stroke="#000000" points="291.6671,-122 288.6671,-126 267.6671,-126 264.6671,-122 24.3329,-122 24.3329,-86 291.6671,-86 291.6671,-122"/>
<text text-anchor="middle" x="158" y="-99.8" font-family="Times,serif" font-size="14.00" fill="#000000">ClickDatePickerRangeDemoRoutingModule</text>
</g>
<!-- ClickDatePickerRangeDemoRoutingModule&#45;&gt;ClickDatePickerRangeDemoModule -->
<g id="edge2" class="edge">
<title>ClickDatePickerRangeDemoRoutingModule&#45;&gt;ClickDatePickerRangeDemoModule</title>
<path fill="none" stroke="#000000" d="M239.2795,-122.1061C239.2795,-122.1061 239.2795,-140.991 239.2795,-140.991"/>
<polygon fill="#000000" stroke="#000000" points="235.7795,-140.9909 239.2795,-150.991 242.7795,-140.991 235.7795,-140.9909"/>
</g>
</g>
</svg>
