<?xml version="1.0" encoding="UTF-8" standalone="no"?>
<!DOCTYPE svg PUBLIC "-//W3C//DTD SVG 1.1//EN"
 "http://www.w3.org/Graphics/SVG/1.1/DTD/svg11.dtd">
<!-- Generated by graphviz version 2.40.1 (20161225.0304)
 -->
<!-- Title: dependencies Pages: 1 -->
<svg width="818pt" height="211pt"
 viewBox="0.00 0.00 818.00 211.00" xmlns="http://www.w3.org/2000/svg" xmlns:xlink="http://www.w3.org/1999/xlink">
<g id="graph0" class="graph" transform="scale(1 1) rotate(0) translate(4 207)">
<title>dependencies</title>
<polygon fill="#ffffff" stroke="transparent" points="-4,4 -4,-207 814,-207 814,4 -4,4"/>
<text text-anchor="start" x="384.0091" y="-42.4" font-family="sans-serif" font-weight="bold" font-size="14.00" fill="#000000">Legend</text>
<polygon fill="#ffffb3" stroke="transparent" points="171,-10 171,-30 191,-30 191,-10 171,-10"/>
<text text-anchor="start" x="194.629" y="-15.4" font-family="sans-serif" font-size="14.00" fill="#000000"> &#160;Declarations</text>
<polygon fill="#8dd3c7" stroke="transparent" points="284,-10 284,-30 304,-30 304,-10 284,-10"/>
<text text-anchor="start" x="307.7251" y="-15.4" font-family="sans-serif" font-size="14.00" fill="#000000"> &#160;Module</text>
<polygon fill="#80b1d3" stroke="transparent" points="370,-10 370,-30 390,-30 390,-10 370,-10"/>
<text text-anchor="start" x="393.7812" y="-15.4" font-family="sans-serif" font-size="14.00" fill="#000000"> &#160;Bootstrap</text>
<polygon fill="#fdb462" stroke="transparent" points="467,-10 467,-30 487,-30 487,-10 467,-10"/>
<text text-anchor="start" x="490.6732" y="-15.4" font-family="sans-serif" font-size="14.00" fill="#000000"> &#160;Providers</text>
<polygon fill="#fb8072" stroke="transparent" points="563,-10 563,-30 583,-30 583,-10 563,-10"/>
<text text-anchor="start" x="586.7258" y="-15.4" font-family="sans-serif" font-size="14.00" fill="#000000"> &#160;Exports</text>
<g id="clust1" class="cluster">
<title>cluster_ClickDatePickerRangeDemoModule</title>
<polygon fill="none" stroke="#000000" stroke-dasharray="1,5" points="8,-70 8,-195 802,-195 802,-70 8,-70"/>
</g>
<g id="clust2" class="cluster">
<title>cluster_ClickDatePickerRangeDemoModule_declarations</title>
<polygon fill="none" stroke="#000000" points="308,-78 308,-130 794,-130 794,-78 308,-78"/>
</g>
<g id="clust5" class="cluster">
<title>cluster_ClickDatePickerRangeDemoModule_imports</title>
<polygon fill="none" stroke="#000000" points="16,-78 16,-130 300,-130 300,-78 16,-78"/>
</g>
<!-- ClickDatePickerRangeDemoComponent -->
<g id="node1" class="node">
<title>ClickDatePickerRangeDemoComponent</title>
<polygon fill="#ffffb3" stroke="#000000" points="785.8319,-122 542.1681,-122 542.1681,-86 785.8319,-86 785.8319,-122"/>
<text text-anchor="middle" x="664" y="-99.8" font-family="Times,serif" font-size="14.00" fill="#000000">ClickDatePickerRangeDemoComponent</text>
</g>
<!-- ClickDatePickerRangeDemoModule -->
<g id="node3" class="node">
<title>ClickDatePickerRangeDemoModule</title>
<polygon fill="#8dd3c7" stroke="#000000" points="531.0492,-187 528.0492,-191 507.0492,-191 504.0492,-187 308.9508,-187 308.9508,-151 531.0492,-151 531.0492,-187"/>
<text text-anchor="middle" x="420" y="-164.8" font-family="Times,serif" font-size="14.00" fill="#000000">ClickDatePickerRangeDemoModule</text>
</g>
<!-- ClickDatePickerRangeDemoComponent&#45;&gt;ClickDatePickerRangeDemoModule -->
<g id="edge1" class="edge">
<title>ClickDatePickerRangeDemoComponent&#45;&gt;ClickDatePickerRangeDemoModule</title>
<path fill="none" stroke="#000000" d="M664,-122.1061C664,-141.3391 664,-169 664,-169 664,-169 541.2896,-169 541.2896,-169"/>
<polygon fill="#000000" stroke="#000000" points="541.2896,-165.5001 531.2896,-169 541.2896,-172.5001 541.2896,-165.5001"/>
</g>
<!-- ClickDatepickerRangeComponent -->
<g id="node2" class="node">
<title>ClickDatepickerRangeComponent</title>
<polygon fill="#ffffb3" stroke="#000000" points="524.3375,-122 315.6625,-122 315.6625,-86 524.3375,-86 524.3375,-122"/>
<text text-anchor="middle" x="420" y="-99.8" font-family="Times,serif" font-size="14.00" fill="#000000">ClickDatepickerRangeComponent</text>
</g>
<!-- ClickDatepickerRangeComponent&#45;&gt;ClickDatePickerRangeDemoModule -->
<g id="edge2" class="edge">
<title>ClickDatepickerRangeComponent&#45;&gt;ClickDatePickerRangeDemoModule</title>
<path fill="none" stroke="#000000" d="M420,-122.1061C420,-122.1061 420,-140.991 420,-140.991"/>
<polygon fill="#000000" stroke="#000000" points="416.5001,-140.9909 420,-150.991 423.5001,-140.991 416.5001,-140.9909"/>
</g>
<!-- ClickDatePickerRangeDemoRoutingModule -->
<g id="node4" class="node">
<title>ClickDatePickerRangeDemoRoutingModule</title>
<polygon fill="#8dd3c7" stroke="#000000" points="291.6671,-122 288.6671,-126 267.6671,-126 264.6671,-122 24.3329,-122 24.3329,-86 291.6671,-86 291.6671,-122"/>
<text text-anchor="middle" x="158" y="-99.8" font-family="Times,serif" font-size="14.00" fill="#000000">ClickDatePickerRangeDemoRoutingModule</text>
</g>
<!-- ClickDatePickerRangeDemoRoutingModule&#45;&gt;ClickDatePickerRangeDemoModule -->
<g id="edge3" class="edge">
<title>ClickDatePickerRangeDemoRoutingModule&#45;&gt;ClickDatePickerRangeDemoModule</title>
<path fill="none" stroke="#000000" d="M158,-122.1061C158,-141.3391 158,-169 158,-169 158,-169 298.8884,-169 298.8884,-169"/>
<polygon fill="#000000" stroke="#000000" points="298.8884,-172.5001 308.8884,-169 298.8884,-165.5001 298.8884,-172.5001"/>
</g>
</g>
</svg>
