<?xml version="1.0" encoding="UTF-8" standalone="no"?>
<!DOCTYPE svg PUBLIC "-//W3C//DTD SVG 1.1//EN"
 "http://www.w3.org/Graphics/SVG/1.1/DTD/svg11.dtd">
<!-- Generated by graphviz version 2.40.1 (20161225.0304)
 -->
<!-- Title: dependencies Pages: 1 -->
<svg width="599pt" height="284pt"
 viewBox="0.00 0.00 599.00 284.00" xmlns="http://www.w3.org/2000/svg" xmlns:xlink="http://www.w3.org/1999/xlink">
<g id="graph0" class="graph" transform="scale(1 1) rotate(0) translate(4 280)">
<title>dependencies</title>
<polygon fill="#ffffff" stroke="transparent" points="-4,4 -4,-280 595,-280 595,4 -4,4"/>
<text text-anchor="start" x="274.5091" y="-42.4" font-family="sans-serif" font-weight="bold" font-size="14.00" fill="#000000">Legend</text>
<polygon fill="#ffffb3" stroke="transparent" points="61.5,-10 61.5,-30 81.5,-30 81.5,-10 61.5,-10"/>
<text text-anchor="start" x="85.129" y="-15.4" font-family="sans-serif" font-size="14.00" fill="#000000"> &#160;Declarations</text>
<polygon fill="#8dd3c7" stroke="transparent" points="174.5,-10 174.5,-30 194.5,-30 194.5,-10 174.5,-10"/>
<text text-anchor="start" x="198.2251" y="-15.4" font-family="sans-serif" font-size="14.00" fill="#000000"> &#160;Module</text>
<polygon fill="#80b1d3" stroke="transparent" points="260.5,-10 260.5,-30 280.5,-30 280.5,-10 260.5,-10"/>
<text text-anchor="start" x="284.2812" y="-15.4" font-family="sans-serif" font-size="14.00" fill="#000000"> &#160;Bootstrap</text>
<polygon fill="#fdb462" stroke="transparent" points="357.5,-10 357.5,-30 377.5,-30 377.5,-10 357.5,-10"/>
<text text-anchor="start" x="381.1732" y="-15.4" font-family="sans-serif" font-size="14.00" fill="#000000"> &#160;Providers</text>
<polygon fill="#fb8072" stroke="transparent" points="453.5,-10 453.5,-30 473.5,-30 473.5,-10 453.5,-10"/>
<text text-anchor="start" x="477.2258" y="-15.4" font-family="sans-serif" font-size="14.00" fill="#000000"> &#160;Exports</text>
<g id="clust1" class="cluster">
<title>cluster_ClickIconDemoModule</title>
<polygon fill="none" stroke="#000000" stroke-dasharray="1,5" points="8,-70 8,-268 583,-268 583,-70 8,-70"/>
</g>
<g id="clust2" class="cluster">
<title>cluster_ClickIconDemoModule_declarations</title>
<polygon fill="none" stroke="#000000" points="234,-78 234,-130 575,-130 575,-78 234,-78"/>
</g>
<g id="clust5" class="cluster">
<title>cluster_ClickIconDemoModule_imports</title>
<polygon fill="none" stroke="#000000" points="16,-78 16,-130 226,-130 226,-78 16,-78"/>
</g>
<g id="clust6" class="cluster">
<title>cluster_ClickIconDemoModule_exports</title>
<polygon fill="none" stroke="#000000" points="142,-208 142,-260 490,-260 490,-208 142,-208"/>
</g>
<!-- ClickIconComponent -->
<g id="node1" class="node">
<title>ClickIconComponent</title>
<polygon fill="#ffffb3" stroke="#000000" points="567.0408,-122 430.9592,-122 430.9592,-86 567.0408,-86 567.0408,-122"/>
<text text-anchor="middle" x="499" y="-99.8" font-family="Times,serif" font-size="14.00" fill="#000000">ClickIconComponent</text>
</g>
<!-- ClickIconDemoModule -->
<g id="node3" class="node">
<title>ClickIconDemoModule</title>
<polygon fill="#8dd3c7" stroke="#000000" points="401.4692,-187 398.4692,-191 377.4692,-191 374.4692,-187 252.5308,-187 252.5308,-151 401.4692,-151 401.4692,-187"/>
<text text-anchor="middle" x="327" y="-164.8" font-family="Times,serif" font-size="14.00" fill="#000000">ClickIconDemoModule</text>
</g>
<!-- ClickIconComponent&#45;&gt;ClickIconDemoModule -->
<g id="edge1" class="edge">
<title>ClickIconComponent&#45;&gt;ClickIconDemoModule</title>
<path fill="none" stroke="#000000" d="M456.375,-122.1061C456.375,-141.3391 456.375,-169 456.375,-169 456.375,-169 411.5084,-169 411.5084,-169"/>
<polygon fill="#000000" stroke="#000000" points="411.5084,-165.5001 401.5084,-169 411.5083,-172.5001 411.5084,-165.5001"/>
</g>
<!-- ClickIconDemoComponent -->
<g id="node2" class="node">
<title>ClickIconDemoComponent</title>
<polygon fill="#ffffb3" stroke="#000000" points="412.252,-122 241.748,-122 241.748,-86 412.252,-86 412.252,-122"/>
<text text-anchor="middle" x="327" y="-99.8" font-family="Times,serif" font-size="14.00" fill="#000000">ClickIconDemoComponent</text>
</g>
<!-- ClickIconDemoComponent&#45;&gt;ClickIconDemoModule -->
<g id="edge2" class="edge">
<title>ClickIconDemoComponent&#45;&gt;ClickIconDemoModule</title>
<path fill="none" stroke="#000000" d="M327,-122.1061C327,-122.1061 327,-140.991 327,-140.991"/>
<polygon fill="#000000" stroke="#000000" points="323.5001,-140.9909 327,-150.991 330.5001,-140.991 323.5001,-140.9909"/>
</g>
<!-- ClickIconComponent  -->
<g id="node5" class="node">
<title>ClickIconComponent </title>
<polygon fill="#fb8072" stroke="#000000" points="482.04,-252 341.96,-252 341.96,-216 482.04,-216 482.04,-252"/>
<text text-anchor="middle" x="412" y="-229.8" font-family="Times,serif" font-size="14.00" fill="#000000">ClickIconComponent </text>
</g>
<!-- ClickIconDemoModule&#45;&gt;ClickIconComponent  -->
<g id="edge4" class="edge">
<title>ClickIconDemoModule&#45;&gt;ClickIconComponent </title>
<path fill="none" stroke="#000000" stroke-dasharray="5,2" d="M371.7323,-187.1061C371.7323,-187.1061 371.7323,-205.991 371.7323,-205.991"/>
<polygon fill="#000000" stroke="#000000" points="368.2324,-205.9909 371.7323,-215.991 375.2324,-205.991 368.2324,-205.9909"/>
</g>
<!-- ClickIconDemoComponent  -->
<g id="node6" class="node">
<title>ClickIconDemoComponent </title>
<polygon fill="#fb8072" stroke="#000000" points="324.252,-252 149.748,-252 149.748,-216 324.252,-216 324.252,-252"/>
<text text-anchor="middle" x="237" y="-229.8" font-family="Times,serif" font-size="14.00" fill="#000000">ClickIconDemoComponent </text>
</g>
<!-- ClickIconDemoModule&#45;&gt;ClickIconDemoComponent  -->
<g id="edge5" class="edge">
<title>ClickIconDemoModule&#45;&gt;ClickIconDemoComponent </title>
<path fill="none" stroke="#000000" stroke-dasharray="5,2" d="M288.3207,-187.1061C288.3207,-187.1061 288.3207,-205.991 288.3207,-205.991"/>
<polygon fill="#000000" stroke="#000000" points="284.8207,-205.9909 288.3207,-215.991 291.8207,-205.991 284.8207,-205.9909"/>
</g>
<!-- ClickIconDemoRoutingModule -->
<g id="node4" class="node">
<title>ClickIconDemoRoutingModule</title>
<polygon fill="#8dd3c7" stroke="#000000" points="218.087,-122 215.087,-126 194.087,-126 191.087,-122 23.913,-122 23.913,-86 218.087,-86 218.087,-122"/>
<text text-anchor="middle" x="121" y="-99.8" font-family="Times,serif" font-size="14.00" fill="#000000">ClickIconDemoRoutingModule</text>
</g>
<!-- ClickIconDemoRoutingModule&#45;&gt;ClickIconDemoModule -->
<g id="edge3" class="edge">
<title>ClickIconDemoRoutingModule&#45;&gt;ClickIconDemoModule</title>
<path fill="none" stroke="#000000" d="M183.9588,-122.1061C183.9588,-141.3391 183.9588,-169 183.9588,-169 183.9588,-169 242.128,-169 242.128,-169"/>
<polygon fill="#000000" stroke="#000000" points="242.128,-172.5001 252.128,-169 242.1279,-165.5001 242.128,-172.5001"/>
</g>
</g>
</svg>
