<?xml version="1.0" encoding="UTF-8" standalone="no"?>
<!DOCTYPE svg PUBLIC "-//W3C//DTD SVG 1.1//EN"
 "http://www.w3.org/Graphics/SVG/1.1/DTD/svg11.dtd">
<!-- Generated by graphviz version 2.40.1 (20161225.0304)
 -->
<!-- Title: dependencies Pages: 1 -->
<svg width="732pt" height="284pt"
 viewBox="0.00 0.00 732.00 284.00" xmlns="http://www.w3.org/2000/svg" xmlns:xlink="http://www.w3.org/1999/xlink">
<g id="graph0" class="graph" transform="scale(1 1) rotate(0) translate(4 280)">
<title>dependencies</title>
<polygon fill="#ffffff" stroke="transparent" points="-4,4 -4,-280 728,-280 728,4 -4,4"/>
<text text-anchor="start" x="341.0091" y="-42.4" font-family="sans-serif" font-weight="bold" font-size="14.00" fill="#000000">Legend</text>
<polygon fill="#ffffb3" stroke="transparent" points="128,-10 128,-30 148,-30 148,-10 128,-10"/>
<text text-anchor="start" x="151.629" y="-15.4" font-family="sans-serif" font-size="14.00" fill="#000000"> &#160;Declarations</text>
<polygon fill="#8dd3c7" stroke="transparent" points="241,-10 241,-30 261,-30 261,-10 241,-10"/>
<text text-anchor="start" x="264.7251" y="-15.4" font-family="sans-serif" font-size="14.00" fill="#000000"> &#160;Module</text>
<polygon fill="#80b1d3" stroke="transparent" points="327,-10 327,-30 347,-30 347,-10 327,-10"/>
<text text-anchor="start" x="350.7812" y="-15.4" font-family="sans-serif" font-size="14.00" fill="#000000"> &#160;Bootstrap</text>
<polygon fill="#fdb462" stroke="transparent" points="424,-10 424,-30 444,-30 444,-10 424,-10"/>
<text text-anchor="start" x="447.6732" y="-15.4" font-family="sans-serif" font-size="14.00" fill="#000000"> &#160;Providers</text>
<polygon fill="#fb8072" stroke="transparent" points="520,-10 520,-30 540,-30 540,-10 520,-10"/>
<text text-anchor="start" x="543.7258" y="-15.4" font-family="sans-serif" font-size="14.00" fill="#000000"> &#160;Exports</text>
<g id="clust1" class="cluster">
<title>cluster_AppModule</title>
<polygon fill="none" stroke="#000000" stroke-dasharray="1,5" points="8,-70 8,-268 716,-268 716,-70 8,-70"/>
</g>
<g id="clust2" class="cluster">
<title>cluster_AppModule_declarations</title>
<polygon fill="none" stroke="#000000" points="168,-78 168,-130 708,-130 708,-78 168,-78"/>
</g>
<g id="clust6" class="cluster">
<title>cluster_AppModule_imports</title>
<polygon fill="none" stroke="#000000" points="16,-78 16,-130 160,-130 160,-78 16,-78"/>
</g>
<g id="clust8" class="cluster">
<title>cluster_AppModule_bootstrap</title>
<polygon fill="none" stroke="#000000" points="322,-208 322,-260 446,-260 446,-208 322,-208"/>
</g>
<!-- AppComponent -->
<g id="node1" class="node">
<title>AppComponent</title>
<polygon fill="#ffffb3" stroke="#000000" points="699.9399,-122 594.0601,-122 594.0601,-86 699.9399,-86 699.9399,-122"/>
<text text-anchor="middle" x="647" y="-99.8" font-family="Times,serif" font-size="14.00" fill="#000000">AppComponent</text>
</g>
<!-- AppModule -->
<g id="node4" class="node">
<title>AppModule</title>
<polygon fill="#8dd3c7" stroke="#000000" points="425.6571,-187 422.6571,-191 401.6571,-191 398.6571,-187 342.3429,-187 342.3429,-151 425.6571,-151 425.6571,-187"/>
<text text-anchor="middle" x="384" y="-164.8" font-family="Times,serif" font-size="14.00" fill="#000000">AppModule</text>
</g>
<!-- AppComponent&#45;&gt;AppModule -->
<g id="edge1" class="edge">
<title>AppComponent&#45;&gt;AppModule</title>
<path fill="none" stroke="#000000" d="M647,-122.1061C647,-141.3391 647,-169 647,-169 647,-169 435.6731,-169 435.6731,-169"/>
<polygon fill="#000000" stroke="#000000" points="435.6732,-165.5001 425.6731,-169 435.6731,-172.5001 435.6732,-165.5001"/>
</g>
<!-- ClickDatePickerComponent -->
<g id="node2" class="node">
<title>ClickDatePickerComponent</title>
<polygon fill="#ffffb3" stroke="#000000" points="575.8543,-122 402.1457,-122 402.1457,-86 575.8543,-86 575.8543,-122"/>
<text text-anchor="middle" x="489" y="-99.8" font-family="Times,serif" font-size="14.00" fill="#000000">ClickDatePickerComponent</text>
</g>
<!-- ClickDatePickerComponent&#45;&gt;AppModule -->
<g id="edge2" class="edge">
<title>ClickDatePickerComponent&#45;&gt;AppModule</title>
<path fill="none" stroke="#000000" d="M413.9506,-122.1061C413.9506,-122.1061 413.9506,-140.991 413.9506,-140.991"/>
<polygon fill="#000000" stroke="#000000" points="410.4506,-140.9909 413.9506,-150.991 417.4506,-140.991 410.4506,-140.9909"/>
</g>
<!-- ClickDatepickerRangeComponent -->
<g id="node3" class="node">
<title>ClickDatepickerRangeComponent</title>
<polygon fill="#ffffb3" stroke="#000000" points="384.3375,-122 175.6625,-122 175.6625,-86 384.3375,-86 384.3375,-122"/>
<text text-anchor="middle" x="280" y="-99.8" font-family="Times,serif" font-size="14.00" fill="#000000">ClickDatepickerRangeComponent</text>
</g>
<!-- ClickDatepickerRangeComponent&#45;&gt;AppModule -->
<g id="edge3" class="edge">
<title>ClickDatepickerRangeComponent&#45;&gt;AppModule</title>
<path fill="none" stroke="#000000" d="M363.2953,-122.1061C363.2953,-122.1061 363.2953,-140.991 363.2953,-140.991"/>
<polygon fill="#000000" stroke="#000000" points="359.7953,-140.9909 363.2953,-150.991 366.7953,-140.991 359.7953,-140.9909"/>
</g>
<!-- AppComponent  -->
<g id="node6" class="node">
<title>AppComponent </title>
<polygon fill="#80b1d3" stroke="#000000" points="438.439,-252 329.561,-252 329.561,-216 438.439,-216 438.439,-252"/>
<text text-anchor="middle" x="384" y="-229.8" font-family="Times,serif" font-size="14.00" fill="#000000">AppComponent </text>
</g>
<!-- AppModule&#45;&gt;AppComponent  -->
<g id="edge5" class="edge">
<title>AppModule&#45;&gt;AppComponent </title>
<path fill="none" stroke="#000000" stroke-dasharray="1,5" d="M384,-187.1061C384,-187.1061 384,-205.991 384,-205.991"/>
<polygon fill="#000000" stroke="#000000" points="380.5001,-205.9909 384,-215.991 387.5001,-205.991 380.5001,-205.9909"/>
</g>
<!-- AppRoutingModule -->
<g id="node5" class="node">
<title>AppRoutingModule</title>
<polygon fill="#8dd3c7" stroke="#000000" points="152.2744,-122 149.2744,-126 128.2744,-126 125.2744,-122 23.7256,-122 23.7256,-86 152.2744,-86 152.2744,-122"/>
<text text-anchor="middle" x="88" y="-99.8" font-family="Times,serif" font-size="14.00" fill="#000000">AppRoutingModule</text>
</g>
<!-- AppRoutingModule&#45;&gt;AppModule -->
<g id="edge4" class="edge">
<title>AppRoutingModule&#45;&gt;AppModule</title>
<path fill="none" stroke="#000000" d="M88,-122.1061C88,-141.3391 88,-169 88,-169 88,-169 332.2182,-169 332.2182,-169"/>
<polygon fill="#000000" stroke="#000000" points="332.2183,-172.5001 342.2182,-169 332.2182,-165.5001 332.2183,-172.5001"/>
</g>
</g>
</svg>
