<?xml version="1.0" encoding="UTF-8" standalone="no"?>
<!DOCTYPE svg PUBLIC "-//W3C//DTD SVG 1.1//EN"
 "http://www.w3.org/Graphics/SVG/1.1/DTD/svg11.dtd">
<!-- Generated by graphviz version 2.40.1 (20161225.0304)
 -->
<!-- Title: dependencies Pages: 1 -->
<svg width="1405pt" height="284pt"
 viewBox="0.00 0.00 1405.00 284.00" xmlns="http://www.w3.org/2000/svg" xmlns:xlink="http://www.w3.org/1999/xlink">
<g id="graph0" class="graph" transform="scale(1 1) rotate(0) translate(4 280)">
<title>dependencies</title>
<polygon fill="#ffffff" stroke="transparent" points="-4,4 -4,-280 1401,-280 1401,4 -4,4"/>
<text text-anchor="start" x="677.5091" y="-42.4" font-family="sans-serif" font-weight="bold" font-size="14.00" fill="#000000">Legend</text>
<polygon fill="#ffffb3" stroke="transparent" points="464.5,-10 464.5,-30 484.5,-30 484.5,-10 464.5,-10"/>
<text text-anchor="start" x="488.129" y="-15.4" font-family="sans-serif" font-size="14.00" fill="#000000"> &#160;Declarations</text>
<polygon fill="#8dd3c7" stroke="transparent" points="577.5,-10 577.5,-30 597.5,-30 597.5,-10 577.5,-10"/>
<text text-anchor="start" x="601.2251" y="-15.4" font-family="sans-serif" font-size="14.00" fill="#000000"> &#160;Module</text>
<polygon fill="#80b1d3" stroke="transparent" points="663.5,-10 663.5,-30 683.5,-30 683.5,-10 663.5,-10"/>
<text text-anchor="start" x="687.2812" y="-15.4" font-family="sans-serif" font-size="14.00" fill="#000000"> &#160;Bootstrap</text>
<polygon fill="#fdb462" stroke="transparent" points="760.5,-10 760.5,-30 780.5,-30 780.5,-10 760.5,-10"/>
<text text-anchor="start" x="784.1732" y="-15.4" font-family="sans-serif" font-size="14.00" fill="#000000"> &#160;Providers</text>
<polygon fill="#fb8072" stroke="transparent" points="856.5,-10 856.5,-30 876.5,-30 876.5,-10 856.5,-10"/>
<text text-anchor="start" x="880.2258" y="-15.4" font-family="sans-serif" font-size="14.00" fill="#000000"> &#160;Exports</text>
<g id="clust1" class="cluster">
<title>cluster_ClickTimeDomainModule</title>
<polygon fill="none" stroke="#000000" stroke-dasharray="1,5" points="8,-70 8,-268 1389,-268 1389,-70 8,-70"/>
</g>
<g id="clust2" class="cluster">
<title>cluster_ClickTimeDomainModule_declarations</title>
<polygon fill="none" stroke="#000000" points="458,-78 458,-130 1381,-130 1381,-78 458,-78"/>
</g>
<g id="clust7" class="cluster">
<title>cluster_ClickTimeDomainModule_imports</title>
<polygon fill="none" stroke="#000000" points="16,-78 16,-130 450,-130 450,-78 16,-78"/>
</g>
<g id="clust8" class="cluster">
<title>cluster_ClickTimeDomainModule_exports</title>
<polygon fill="none" stroke="#000000" points="594,-208 594,-260 800,-260 800,-208 594,-208"/>
</g>
<!-- ClickDateRangeCalendarComponent -->
<g id="node1" class="node">
<title>ClickDateRangeCalendarComponent</title>
<polygon fill="#ffffb3" stroke="#000000" points="1373.3889,-122 1148.6111,-122 1148.6111,-86 1373.3889,-86 1373.3889,-122"/>
<text text-anchor="middle" x="1261" y="-99.8" font-family="Times,serif" font-size="14.00" fill="#000000">ClickDateRangeCalendarComponent</text>
</g>
<!-- ClickTimeDomainModule -->
<g id="node5" class="node">
<title>ClickTimeDomainModule</title>
<polygon fill="#8dd3c7" stroke="#000000" points="779.0337,-187 776.0337,-191 755.0337,-191 752.0337,-187 614.9663,-187 614.9663,-151 779.0337,-151 779.0337,-187"/>
<text text-anchor="middle" x="697" y="-164.8" font-family="Times,serif" font-size="14.00" fill="#000000">ClickTimeDomainModule</text>
</g>
<!-- ClickDateRangeCalendarComponent&#45;&gt;ClickTimeDomainModule -->
<g id="edge1" class="edge">
<title>ClickDateRangeCalendarComponent&#45;&gt;ClickTimeDomainModule</title>
<path fill="none" stroke="#000000" d="M1261,-122.2843C1261,-143.3211 1261,-175 1261,-175 1261,-175 789.3122,-175 789.3122,-175"/>
<polygon fill="#000000" stroke="#000000" points="789.3123,-171.5001 779.3122,-175 789.3122,-178.5001 789.3123,-171.5001"/>
</g>
<!-- ClickTimeDomainComponent -->
<g id="node2" class="node">
<title>ClickTimeDomainComponent</title>
<polygon fill="#ffffb3" stroke="#000000" points="1131.3159,-122 944.6841,-122 944.6841,-86 1131.3159,-86 1131.3159,-122"/>
<text text-anchor="middle" x="1038" y="-99.8" font-family="Times,serif" font-size="14.00" fill="#000000">ClickTimeDomainComponent</text>
</g>
<!-- ClickTimeDomainComponent&#45;&gt;ClickTimeDomainModule -->
<g id="edge2" class="edge">
<title>ClickTimeDomainComponent&#45;&gt;ClickTimeDomainModule</title>
<path fill="none" stroke="#000000" d="M1038,-122.0225C1038,-139.3734 1038,-163 1038,-163 1038,-163 789.1119,-163 789.1119,-163"/>
<polygon fill="#000000" stroke="#000000" points="789.112,-159.5001 779.1119,-163 789.1119,-166.5001 789.112,-159.5001"/>
</g>
<!-- ClickTimeDomainDemoComponent -->
<g id="node3" class="node">
<title>ClickTimeDomainDemoComponent</title>
<polygon fill="#ffffb3" stroke="#000000" points="927.0279,-122 706.9721,-122 706.9721,-86 927.0279,-86 927.0279,-122"/>
<text text-anchor="middle" x="817" y="-99.8" font-family="Times,serif" font-size="14.00" fill="#000000">ClickTimeDomainDemoComponent</text>
</g>
<!-- ClickTimeDomainDemoComponent&#45;&gt;ClickTimeDomainModule -->
<g id="edge3" class="edge">
<title>ClickTimeDomainDemoComponent&#45;&gt;ClickTimeDomainModule</title>
<path fill="none" stroke="#000000" d="M743.0014,-122.1061C743.0014,-122.1061 743.0014,-140.991 743.0014,-140.991"/>
<polygon fill="#000000" stroke="#000000" points="739.5015,-140.9909 743.0014,-150.991 746.5015,-140.991 739.5015,-140.9909"/>
</g>
<!-- ClickTimeDomainModalComponent -->
<g id="node4" class="node">
<title>ClickTimeDomainModalComponent</title>
<polygon fill="#ffffb3" stroke="#000000" points="688.3654,-122 465.6346,-122 465.6346,-86 688.3654,-86 688.3654,-122"/>
<text text-anchor="middle" x="577" y="-99.8" font-family="Times,serif" font-size="14.00" fill="#000000">ClickTimeDomainModalComponent</text>
</g>
<!-- ClickTimeDomainModalComponent&#45;&gt;ClickTimeDomainModule -->
<g id="edge4" class="edge">
<title>ClickTimeDomainModalComponent&#45;&gt;ClickTimeDomainModule</title>
<path fill="none" stroke="#000000" d="M651.5831,-122.1061C651.5831,-122.1061 651.5831,-140.991 651.5831,-140.991"/>
<polygon fill="#000000" stroke="#000000" points="648.0832,-140.9909 651.5831,-150.991 655.0832,-140.991 648.0832,-140.9909"/>
</g>
<!-- ClickTimeDomainComponent  -->
<g id="node8" class="node">
<title>ClickTimeDomainComponent </title>
<polygon fill="#fb8072" stroke="#000000" points="791.8157,-252 602.1843,-252 602.1843,-216 791.8157,-216 791.8157,-252"/>
<text text-anchor="middle" x="697" y="-229.8" font-family="Times,serif" font-size="14.00" fill="#000000">ClickTimeDomainComponent </text>
</g>
<!-- ClickTimeDomainModule&#45;&gt;ClickTimeDomainComponent  -->
<g id="edge7" class="edge">
<title>ClickTimeDomainModule&#45;&gt;ClickTimeDomainComponent </title>
<path fill="none" stroke="#000000" stroke-dasharray="5,2" d="M697,-187.1061C697,-187.1061 697,-205.991 697,-205.991"/>
<polygon fill="#000000" stroke="#000000" points="693.5001,-205.9909 697,-215.991 700.5001,-205.991 693.5001,-205.9909"/>
</g>
<!-- ClickTimeDomainRoutingModule -->
<g id="node6" class="node">
<title>ClickTimeDomainRoutingModule</title>
<polygon fill="#8dd3c7" stroke="#000000" points="441.6511,-122 438.6511,-126 417.6511,-126 414.6511,-122 232.3489,-122 232.3489,-86 441.6511,-86 441.6511,-122"/>
<text text-anchor="middle" x="337" y="-99.8" font-family="Times,serif" font-size="14.00" fill="#000000">ClickTimeDomainRoutingModule</text>
</g>
<!-- ClickTimeDomainRoutingModule&#45;&gt;ClickTimeDomainModule -->
<g id="edge5" class="edge">
<title>ClickTimeDomainRoutingModule&#45;&gt;ClickTimeDomainModule</title>
<path fill="none" stroke="#000000" d="M337,-122.0225C337,-139.3734 337,-163 337,-163 337,-163 604.86,-163 604.86,-163"/>
<polygon fill="#000000" stroke="#000000" points="604.86,-166.5001 614.86,-163 604.8599,-159.5001 604.86,-166.5001"/>
</g>
<!-- ClickTristateCheckboxModule -->
<g id="node7" class="node">
<title>ClickTristateCheckboxModule</title>
<polygon fill="#8dd3c7" stroke="#000000" points="213.9072,-122 210.9072,-126 189.9072,-126 186.9072,-122 24.0928,-122 24.0928,-86 213.9072,-86 213.9072,-122"/>
<text text-anchor="middle" x="119" y="-99.8" font-family="Times,serif" font-size="14.00" fill="#000000">ClickTristateCheckboxModule</text>
</g>
<!-- ClickTristateCheckboxModule&#45;&gt;ClickTimeDomainModule -->
<g id="edge6" class="edge">
<title>ClickTristateCheckboxModule&#45;&gt;ClickTimeDomainModule</title>
<path fill="none" stroke="#000000" d="M119,-122.2843C119,-143.3211 119,-175 119,-175 119,-175 604.8005,-175 604.8005,-175"/>
<polygon fill="#000000" stroke="#000000" points="604.8006,-178.5001 614.8005,-175 604.8005,-171.5001 604.8006,-178.5001"/>
</g>
</g>
</svg>
