<?xml version="1.0" encoding="UTF-8" standalone="no"?>
<!DOCTYPE svg PUBLIC "-//W3C//DTD SVG 1.1//EN"
 "http://www.w3.org/Graphics/SVG/1.1/DTD/svg11.dtd">
<!-- Generated by graphviz version 2.40.1 (20161225.0304)
 -->
<!-- Title: dependencies Pages: 1 -->
<svg width="1051pt" height="284pt"
 viewBox="0.00 0.00 1051.00 284.00" xmlns="http://www.w3.org/2000/svg" xmlns:xlink="http://www.w3.org/1999/xlink">
<g id="graph0" class="graph" transform="scale(1 1) rotate(0) translate(4 280)">
<title>dependencies</title>
<polygon fill="#ffffff" stroke="transparent" points="-4,4 -4,-280 1047,-280 1047,4 -4,4"/>
<text text-anchor="start" x="500.5091" y="-42.4" font-family="sans-serif" font-weight="bold" font-size="14.00" fill="#000000">Legend</text>
<polygon fill="#ffffb3" stroke="transparent" points="287.5,-10 287.5,-30 307.5,-30 307.5,-10 287.5,-10"/>
<text text-anchor="start" x="311.129" y="-15.4" font-family="sans-serif" font-size="14.00" fill="#000000"> &#160;Declarations</text>
<polygon fill="#8dd3c7" stroke="transparent" points="400.5,-10 400.5,-30 420.5,-30 420.5,-10 400.5,-10"/>
<text text-anchor="start" x="424.2251" y="-15.4" font-family="sans-serif" font-size="14.00" fill="#000000"> &#160;Module</text>
<polygon fill="#80b1d3" stroke="transparent" points="486.5,-10 486.5,-30 506.5,-30 506.5,-10 486.5,-10"/>
<text text-anchor="start" x="510.2812" y="-15.4" font-family="sans-serif" font-size="14.00" fill="#000000"> &#160;Bootstrap</text>
<polygon fill="#fdb462" stroke="transparent" points="583.5,-10 583.5,-30 603.5,-30 603.5,-10 583.5,-10"/>
<text text-anchor="start" x="607.1732" y="-15.4" font-family="sans-serif" font-size="14.00" fill="#000000"> &#160;Providers</text>
<polygon fill="#fb8072" stroke="transparent" points="679.5,-10 679.5,-30 699.5,-30 699.5,-10 679.5,-10"/>
<text text-anchor="start" x="703.2258" y="-15.4" font-family="sans-serif" font-size="14.00" fill="#000000"> &#160;Exports</text>
<g id="clust1" class="cluster">
<title>cluster_ClickMeseageDialogDemoModule</title>
<polygon fill="none" stroke="#000000" stroke-dasharray="1,5" points="8,-70 8,-268 1035,-268 1035,-70 8,-70"/>
</g>
<g id="clust2" class="cluster">
<title>cluster_ClickMeseageDialogDemoModule_declarations</title>
<polygon fill="none" stroke="#000000" points="562,-78 562,-130 1027,-130 1027,-78 562,-78"/>
</g>
<g id="clust5" class="cluster">
<title>cluster_ClickMeseageDialogDemoModule_imports</title>
<polygon fill="none" stroke="#000000" points="282,-78 282,-130 554,-130 554,-78 282,-78"/>
</g>
<g id="clust6" class="cluster">
<title>cluster_ClickMeseageDialogDemoModule_exports</title>
<polygon fill="none" stroke="#000000" points="305,-208 305,-260 777,-260 777,-208 305,-208"/>
</g>
<g id="clust8" class="cluster">
<title>cluster_ClickMeseageDialogDemoModule_providers</title>
<polygon fill="none" stroke="#000000" points="16,-78 16,-130 274,-130 274,-78 16,-78"/>
</g>
<!-- ClickMessageDialogComponent -->
<g id="node1" class="node">
<title>ClickMessageDialogComponent</title>
<polygon fill="#ffffb3" stroke="#000000" points="1019.245,-122 820.755,-122 820.755,-86 1019.245,-86 1019.245,-122"/>
<text text-anchor="middle" x="920" y="-99.8" font-family="Times,serif" font-size="14.00" fill="#000000">ClickMessageDialogComponent</text>
</g>
<!-- ClickMeseageDialogDemoModule -->
<g id="node3" class="node">
<title>ClickMeseageDialogDemoModule</title>
<polygon fill="#8dd3c7" stroke="#000000" points="654.944,-187 651.944,-191 630.944,-191 627.944,-187 443.056,-187 443.056,-151 654.944,-151 654.944,-187"/>
<text text-anchor="middle" x="549" y="-164.8" font-family="Times,serif" font-size="14.00" fill="#000000">ClickMeseageDialogDemoModule</text>
</g>
<!-- ClickMessageDialogComponent&#45;&gt;ClickMeseageDialogDemoModule -->
<g id="edge1" class="edge">
<title>ClickMessageDialogComponent&#45;&gt;ClickMeseageDialogDemoModule</title>
<path fill="none" stroke="#000000" d="M920,-122.1061C920,-141.3391 920,-169 920,-169 920,-169 665.3137,-169 665.3137,-169"/>
<polygon fill="#000000" stroke="#000000" points="665.3137,-165.5001 655.3137,-169 665.3137,-172.5001 665.3137,-165.5001"/>
</g>
<!-- ClickMessageDialogDemoComponent -->
<g id="node2" class="node">
<title>ClickMessageDialogDemoComponent</title>
<polygon fill="#ffffb3" stroke="#000000" points="802.4566,-122 569.5434,-122 569.5434,-86 802.4566,-86 802.4566,-122"/>
<text text-anchor="middle" x="686" y="-99.8" font-family="Times,serif" font-size="14.00" fill="#000000">ClickMessageDialogDemoComponent</text>
</g>
<!-- ClickMessageDialogDemoComponent&#45;&gt;ClickMeseageDialogDemoModule -->
<g id="edge2" class="edge">
<title>ClickMessageDialogDemoComponent&#45;&gt;ClickMeseageDialogDemoModule</title>
<path fill="none" stroke="#000000" d="M612.2469,-122.1061C612.2469,-122.1061 612.2469,-140.991 612.2469,-140.991"/>
<polygon fill="#000000" stroke="#000000" points="608.7469,-140.9909 612.2469,-150.991 615.7469,-140.991 608.7469,-140.9909"/>
</g>
<!-- ClickMessageDialogComponent  -->
<g id="node5" class="node">
<title>ClickMessageDialogComponent </title>
<polygon fill="#fb8072" stroke="#000000" points="769.2449,-252 566.7551,-252 566.7551,-216 769.2449,-216 769.2449,-252"/>
<text text-anchor="middle" x="668" y="-229.8" font-family="Times,serif" font-size="14.00" fill="#000000">ClickMessageDialogComponent </text>
</g>
<!-- ClickMeseageDialogDemoModule&#45;&gt;ClickMessageDialogComponent  -->
<g id="edge4" class="edge">
<title>ClickMeseageDialogDemoModule&#45;&gt;ClickMessageDialogComponent </title>
<path fill="none" stroke="#000000" stroke-dasharray="5,2" d="M610.9248,-187.1061C610.9248,-187.1061 610.9248,-205.991 610.9248,-205.991"/>
<polygon fill="#000000" stroke="#000000" points="607.4249,-205.9909 610.9248,-215.991 614.4249,-205.991 607.4249,-205.9909"/>
</g>
<!-- ClickMessageDialogDemoComponent  -->
<g id="node6" class="node">
<title>ClickMessageDialogDemoComponent </title>
<polygon fill="#fb8072" stroke="#000000" points="549.457,-252 312.543,-252 312.543,-216 549.457,-216 549.457,-252"/>
<text text-anchor="middle" x="431" y="-229.8" font-family="Times,serif" font-size="14.00" fill="#000000">ClickMessageDialogDemoComponent </text>
</g>
<!-- ClickMeseageDialogDemoModule&#45;&gt;ClickMessageDialogDemoComponent  -->
<g id="edge5" class="edge">
<title>ClickMeseageDialogDemoModule&#45;&gt;ClickMessageDialogDemoComponent </title>
<path fill="none" stroke="#000000" stroke-dasharray="5,2" d="M496.1282,-187.1061C496.1282,-187.1061 496.1282,-205.991 496.1282,-205.991"/>
<polygon fill="#000000" stroke="#000000" points="492.6282,-205.9909 496.1282,-215.991 499.6282,-205.991 492.6282,-205.9909"/>
</g>
<!-- ClickMessageDialogDemoRoutingModule -->
<g id="node4" class="node">
<title>ClickMessageDialogDemoRoutingModule</title>
<polygon fill="#8dd3c7" stroke="#000000" points="546.292,-122 543.292,-126 522.292,-126 519.292,-122 289.708,-122 289.708,-86 546.292,-86 546.292,-122"/>
<text text-anchor="middle" x="418" y="-99.8" font-family="Times,serif" font-size="14.00" fill="#000000">ClickMessageDialogDemoRoutingModule</text>
</g>
<!-- ClickMessageDialogDemoRoutingModule&#45;&gt;ClickMeseageDialogDemoModule -->
<g id="edge3" class="edge">
<title>ClickMessageDialogDemoRoutingModule&#45;&gt;ClickMeseageDialogDemoModule</title>
<path fill="none" stroke="#000000" d="M494.587,-122.1061C494.587,-122.1061 494.587,-140.991 494.587,-140.991"/>
<polygon fill="#000000" stroke="#000000" points="491.087,-140.9909 494.587,-150.991 498.087,-140.991 491.087,-140.9909"/>
</g>
<!-- ClickMessageDialogService -->
<g id="node7" class="node">
<title>ClickMessageDialogService</title>
<ellipse fill="#fdb462" stroke="#000000" cx="145" cy="-104" rx="120.9616" ry="18"/>
<text text-anchor="middle" x="145" y="-99.8" font-family="Times,serif" font-size="14.00" fill="#000000">ClickMessageDialogService</text>
</g>
<!-- ClickMessageDialogService&#45;&gt;ClickMeseageDialogDemoModule -->
<g id="edge6" class="edge">
<title>ClickMessageDialogService&#45;&gt;ClickMeseageDialogDemoModule</title>
<path fill="none" stroke="#000000" d="M145,-122.1061C145,-141.3391 145,-169 145,-169 145,-169 432.8538,-169 432.8538,-169"/>
<polygon fill="#000000" stroke="#000000" points="432.8538,-172.5001 442.8538,-169 432.8537,-165.5001 432.8538,-172.5001"/>
</g>
</g>
</svg>
