<?xml version="1.0" encoding="UTF-8" standalone="no"?>
<!DOCTYPE svg PUBLIC "-//W3C//DTD SVG 1.1//EN"
 "http://www.w3.org/Graphics/SVG/1.1/DTD/svg11.dtd">
<!-- Generated by graphviz version 2.40.1 (20161225.0304)
 -->
<!-- Title: dependencies Pages: 1 -->
<svg width="789pt" height="284pt"
 viewBox="0.00 0.00 789.00 284.00" xmlns="http://www.w3.org/2000/svg" xmlns:xlink="http://www.w3.org/1999/xlink">
<g id="graph0" class="graph" transform="scale(1 1) rotate(0) translate(4 280)">
<title>dependencies</title>
<polygon fill="#ffffff" stroke="transparent" points="-4,4 -4,-280 785,-280 785,4 -4,4"/>
<text text-anchor="start" x="369.5091" y="-42.4" font-family="sans-serif" font-weight="bold" font-size="14.00" fill="#000000">Legend</text>
<polygon fill="#ffffb3" stroke="transparent" points="156.5,-10 156.5,-30 176.5,-30 176.5,-10 156.5,-10"/>
<text text-anchor="start" x="180.129" y="-15.4" font-family="sans-serif" font-size="14.00" fill="#000000"> &#160;Declarations</text>
<polygon fill="#8dd3c7" stroke="transparent" points="269.5,-10 269.5,-30 289.5,-30 289.5,-10 269.5,-10"/>
<text text-anchor="start" x="293.2251" y="-15.4" font-family="sans-serif" font-size="14.00" fill="#000000"> &#160;Module</text>
<polygon fill="#80b1d3" stroke="transparent" points="355.5,-10 355.5,-30 375.5,-30 375.5,-10 355.5,-10"/>
<text text-anchor="start" x="379.2812" y="-15.4" font-family="sans-serif" font-size="14.00" fill="#000000"> &#160;Bootstrap</text>
<polygon fill="#fdb462" stroke="transparent" points="452.5,-10 452.5,-30 472.5,-30 472.5,-10 452.5,-10"/>
<text text-anchor="start" x="476.1732" y="-15.4" font-family="sans-serif" font-size="14.00" fill="#000000"> &#160;Providers</text>
<polygon fill="#fb8072" stroke="transparent" points="548.5,-10 548.5,-30 568.5,-30 568.5,-10 548.5,-10"/>
<text text-anchor="start" x="572.2258" y="-15.4" font-family="sans-serif" font-size="14.00" fill="#000000"> &#160;Exports</text>
<g id="clust1" class="cluster">
<title>cluster_ClickTristateCheckboxModule</title>
<polygon fill="none" stroke="#000000" stroke-dasharray="1,5" points="8,-70 8,-268 773,-268 773,-70 8,-70"/>
</g>
<g id="clust2" class="cluster">
<title>cluster_ClickTristateCheckboxModule_declarations</title>
<polygon fill="none" stroke="#000000" points="274,-78 274,-130 765,-130 765,-78 274,-78"/>
</g>
<g id="clust5" class="cluster">
<title>cluster_ClickTristateCheckboxModule_imports</title>
<polygon fill="none" stroke="#000000" points="16,-78 16,-130 266,-130 266,-78 16,-78"/>
</g>
<g id="clust6" class="cluster">
<title>cluster_ClickTristateCheckboxModule_exports</title>
<polygon fill="none" stroke="#000000" points="290,-208 290,-260 520,-260 520,-208 290,-208"/>
</g>
<!-- ClickTristateCheckboxComponent -->
<g id="node1" class="node">
<title>ClickTristateCheckboxComponent</title>
<polygon fill="#ffffb3" stroke="#000000" points="756.6895,-122 545.3105,-122 545.3105,-86 756.6895,-86 756.6895,-122"/>
<text text-anchor="middle" x="651" y="-99.8" font-family="Times,serif" font-size="14.00" fill="#000000">ClickTristateCheckboxComponent</text>
</g>
<!-- ClickTristateCheckboxModule -->
<g id="node3" class="node">
<title>ClickTristateCheckboxModule</title>
<polygon fill="#8dd3c7" stroke="#000000" points="499.9072,-187 496.9072,-191 475.9072,-191 472.9072,-187 310.0928,-187 310.0928,-151 499.9072,-151 499.9072,-187"/>
<text text-anchor="middle" x="405" y="-164.8" font-family="Times,serif" font-size="14.00" fill="#000000">ClickTristateCheckboxModule</text>
</g>
<!-- ClickTristateCheckboxComponent&#45;&gt;ClickTristateCheckboxModule -->
<g id="edge1" class="edge">
<title>ClickTristateCheckboxComponent&#45;&gt;ClickTristateCheckboxModule</title>
<path fill="none" stroke="#000000" d="M651,-122.1061C651,-141.3391 651,-169 651,-169 651,-169 509.7581,-169 509.7581,-169"/>
<polygon fill="#000000" stroke="#000000" points="509.7582,-165.5001 499.7581,-169 509.7581,-172.5001 509.7582,-165.5001"/>
</g>
<!-- ClickTristateCheckboxDemoComponent -->
<g id="node2" class="node">
<title>ClickTristateCheckboxDemoComponent</title>
<polygon fill="#ffffb3" stroke="#000000" points="527.9015,-122 282.0985,-122 282.0985,-86 527.9015,-86 527.9015,-122"/>
<text text-anchor="middle" x="405" y="-99.8" font-family="Times,serif" font-size="14.00" fill="#000000">ClickTristateCheckboxDemoComponent</text>
</g>
<!-- ClickTristateCheckboxDemoComponent&#45;&gt;ClickTristateCheckboxModule -->
<g id="edge2" class="edge">
<title>ClickTristateCheckboxDemoComponent&#45;&gt;ClickTristateCheckboxModule</title>
<path fill="none" stroke="#000000" d="M405,-122.1061C405,-122.1061 405,-140.991 405,-140.991"/>
<polygon fill="#000000" stroke="#000000" points="401.5001,-140.9909 405,-150.991 408.5001,-140.991 401.5001,-140.9909"/>
</g>
<!-- ClickTristateCheckboxComponent  -->
<g id="node5" class="node">
<title>ClickTristateCheckboxComponent </title>
<polygon fill="#fb8072" stroke="#000000" points="512.1896,-252 297.8104,-252 297.8104,-216 512.1896,-216 512.1896,-252"/>
<text text-anchor="middle" x="405" y="-229.8" font-family="Times,serif" font-size="14.00" fill="#000000">ClickTristateCheckboxComponent </text>
</g>
<!-- ClickTristateCheckboxModule&#45;&gt;ClickTristateCheckboxComponent  -->
<g id="edge4" class="edge">
<title>ClickTristateCheckboxModule&#45;&gt;ClickTristateCheckboxComponent </title>
<path fill="none" stroke="#000000" stroke-dasharray="5,2" d="M405,-187.1061C405,-187.1061 405,-205.991 405,-205.991"/>
<polygon fill="#000000" stroke="#000000" points="401.5001,-205.9909 405,-215.991 408.5001,-205.991 401.5001,-205.9909"/>
</g>
<!-- ClickTristateCheckboxRoutingModule -->
<g id="node4" class="node">
<title>ClickTristateCheckboxRoutingModule</title>
<polygon fill="#8dd3c7" stroke="#000000" points="258.0251,-122 255.0251,-126 234.0251,-126 231.0251,-122 23.9749,-122 23.9749,-86 258.0251,-86 258.0251,-122"/>
<text text-anchor="middle" x="141" y="-99.8" font-family="Times,serif" font-size="14.00" fill="#000000">ClickTristateCheckboxRoutingModule</text>
</g>
<!-- ClickTristateCheckboxRoutingModule&#45;&gt;ClickTristateCheckboxModule -->
<g id="edge3" class="edge">
<title>ClickTristateCheckboxRoutingModule&#45;&gt;ClickTristateCheckboxModule</title>
<path fill="none" stroke="#000000" d="M141,-122.1061C141,-141.3391 141,-169 141,-169 141,-169 300.0629,-169 300.0629,-169"/>
<polygon fill="#000000" stroke="#000000" points="300.063,-172.5001 310.0629,-169 300.0629,-165.5001 300.063,-172.5001"/>
</g>
</g>
</svg>
