<?xml version="1.0" encoding="UTF-8" standalone="no"?>
<!DOCTYPE svg PUBLIC "-//W3C//DTD SVG 1.1//EN"
 "http://www.w3.org/Graphics/SVG/1.1/DTD/svg11.dtd">
<!-- Generated by graphviz version 2.40.1 (20161225.0304)
 -->
<!-- Title: dependencies Pages: 1 -->
<svg width="693pt" height="284pt"
 viewBox="0.00 0.00 693.00 284.00" xmlns="http://www.w3.org/2000/svg" xmlns:xlink="http://www.w3.org/1999/xlink">
<g id="graph0" class="graph" transform="scale(1 1) rotate(0) translate(4 280)">
<title>dependencies</title>
<polygon fill="#ffffff" stroke="transparent" points="-4,4 -4,-280 689,-280 689,4 -4,4"/>
<text text-anchor="start" x="321.5091" y="-42.4" font-family="sans-serif" font-weight="bold" font-size="14.00" fill="#000000">Legend</text>
<polygon fill="#ffffb3" stroke="transparent" points="108.5,-10 108.5,-30 128.5,-30 128.5,-10 108.5,-10"/>
<text text-anchor="start" x="132.129" y="-15.4" font-family="sans-serif" font-size="14.00" fill="#000000"> &#160;Declarations</text>
<polygon fill="#8dd3c7" stroke="transparent" points="221.5,-10 221.5,-30 241.5,-30 241.5,-10 221.5,-10"/>
<text text-anchor="start" x="245.2251" y="-15.4" font-family="sans-serif" font-size="14.00" fill="#000000"> &#160;Module</text>
<polygon fill="#80b1d3" stroke="transparent" points="307.5,-10 307.5,-30 327.5,-30 327.5,-10 307.5,-10"/>
<text text-anchor="start" x="331.2812" y="-15.4" font-family="sans-serif" font-size="14.00" fill="#000000"> &#160;Bootstrap</text>
<polygon fill="#fdb462" stroke="transparent" points="404.5,-10 404.5,-30 424.5,-30 424.5,-10 404.5,-10"/>
<text text-anchor="start" x="428.1732" y="-15.4" font-family="sans-serif" font-size="14.00" fill="#000000"> &#160;Providers</text>
<polygon fill="#fb8072" stroke="transparent" points="500.5,-10 500.5,-30 520.5,-30 520.5,-10 500.5,-10"/>
<text text-anchor="start" x="524.2258" y="-15.4" font-family="sans-serif" font-size="14.00" fill="#000000"> &#160;Exports</text>
<g id="clust1" class="cluster">
<title>cluster_ClickSearchInputModule</title>
<polygon fill="none" stroke="#000000" stroke-dasharray="1,5" points="8,-70 8,-268 677,-268 677,-70 8,-70"/>
</g>
<g id="clust2" class="cluster">
<title>cluster_ClickSearchInputModule_declarations</title>
<polygon fill="none" stroke="#000000" points="242,-78 242,-130 669,-130 669,-78 242,-78"/>
</g>
<g id="clust5" class="cluster">
<title>cluster_ClickSearchInputModule_imports</title>
<polygon fill="none" stroke="#000000" points="16,-78 16,-130 234,-130 234,-78 16,-78"/>
</g>
<g id="clust6" class="cluster">
<title>cluster_ClickSearchInputModule_exports</title>
<polygon fill="none" stroke="#000000" points="258,-208 258,-260 456,-260 456,-208 258,-208"/>
</g>
<!-- ClickSearchInputComponent -->
<g id="node1" class="node">
<title>ClickSearchInputComponent</title>
<polygon fill="#ffffb3" stroke="#000000" points="660.8033,-122 481.1967,-122 481.1967,-86 660.8033,-86 660.8033,-122"/>
<text text-anchor="middle" x="571" y="-99.8" font-family="Times,serif" font-size="14.00" fill="#000000">ClickSearchInputComponent</text>
</g>
<!-- ClickSearchInputModule -->
<g id="node3" class="node">
<title>ClickSearchInputModule</title>
<polygon fill="#8dd3c7" stroke="#000000" points="435.5211,-187 432.5211,-191 411.5211,-191 408.5211,-187 278.4789,-187 278.4789,-151 435.5211,-151 435.5211,-187"/>
<text text-anchor="middle" x="357" y="-164.8" font-family="Times,serif" font-size="14.00" fill="#000000">ClickSearchInputModule</text>
</g>
<!-- ClickSearchInputComponent&#45;&gt;ClickSearchInputModule -->
<g id="edge1" class="edge">
<title>ClickSearchInputComponent&#45;&gt;ClickSearchInputModule</title>
<path fill="none" stroke="#000000" d="M571,-122.1061C571,-141.3391 571,-169 571,-169 571,-169 445.774,-169 445.774,-169"/>
<polygon fill="#000000" stroke="#000000" points="445.774,-165.5001 435.774,-169 445.774,-172.5001 445.774,-165.5001"/>
</g>
<!-- ClickSearchInputDemoComponent -->
<g id="node2" class="node">
<title>ClickSearchInputDemoComponent</title>
<polygon fill="#ffffb3" stroke="#000000" points="463.5154,-122 250.4846,-122 250.4846,-86 463.5154,-86 463.5154,-122"/>
<text text-anchor="middle" x="357" y="-99.8" font-family="Times,serif" font-size="14.00" fill="#000000">ClickSearchInputDemoComponent</text>
</g>
<!-- ClickSearchInputDemoComponent&#45;&gt;ClickSearchInputModule -->
<g id="edge2" class="edge">
<title>ClickSearchInputDemoComponent&#45;&gt;ClickSearchInputModule</title>
<path fill="none" stroke="#000000" d="M357,-122.1061C357,-122.1061 357,-140.991 357,-140.991"/>
<polygon fill="#000000" stroke="#000000" points="353.5001,-140.9909 357,-150.991 360.5001,-140.991 353.5001,-140.9909"/>
</g>
<!-- ClickSearchInputComponent  -->
<g id="node5" class="node">
<title>ClickSearchInputComponent </title>
<polygon fill="#fb8072" stroke="#000000" points="448.3031,-252 265.6969,-252 265.6969,-216 448.3031,-216 448.3031,-252"/>
<text text-anchor="middle" x="357" y="-229.8" font-family="Times,serif" font-size="14.00" fill="#000000">ClickSearchInputComponent </text>
</g>
<!-- ClickSearchInputModule&#45;&gt;ClickSearchInputComponent  -->
<g id="edge4" class="edge">
<title>ClickSearchInputModule&#45;&gt;ClickSearchInputComponent </title>
<path fill="none" stroke="#000000" stroke-dasharray="5,2" d="M357,-187.1061C357,-187.1061 357,-205.991 357,-205.991"/>
<polygon fill="#000000" stroke="#000000" points="353.5001,-205.9909 357,-215.991 360.5001,-205.991 353.5001,-205.9909"/>
</g>
<!-- ClickSearchInputRoutingModule -->
<g id="node4" class="node">
<title>ClickSearchInputRoutingModule</title>
<polygon fill="#8dd3c7" stroke="#000000" points="226.1385,-122 223.1385,-126 202.1385,-126 199.1385,-122 23.8615,-122 23.8615,-86 226.1385,-86 226.1385,-122"/>
<text text-anchor="middle" x="125" y="-99.8" font-family="Times,serif" font-size="14.00" fill="#000000">ClickSearchInputRoutingModule</text>
</g>
<!-- ClickSearchInputRoutingModule&#45;&gt;ClickSearchInputModule -->
<g id="edge3" class="edge">
<title>ClickSearchInputRoutingModule&#45;&gt;ClickSearchInputModule</title>
<path fill="none" stroke="#000000" d="M125,-122.1061C125,-141.3391 125,-169 125,-169 125,-169 268.4554,-169 268.4554,-169"/>
<polygon fill="#000000" stroke="#000000" points="268.4554,-172.5001 278.4554,-169 268.4553,-165.5001 268.4554,-172.5001"/>
</g>
</g>
</svg>
