<?xml version="1.0" encoding="UTF-8" standalone="no"?>
<!DOCTYPE svg PUBLIC "-//W3C//DTD SVG 1.1//EN"
 "http://www.w3.org/Graphics/SVG/1.1/DTD/svg11.dtd">
<!-- Generated by graphviz version 2.40.1 (20161225.0304)
 -->
<!-- Title: dependencies Pages: 1 -->
<svg width="504pt" height="211pt"
 viewBox="0.00 0.00 504.00 211.00" xmlns="http://www.w3.org/2000/svg" xmlns:xlink="http://www.w3.org/1999/xlink">
<g id="graph0" class="graph" transform="scale(1 1) rotate(0) translate(4 207)">
<title>dependencies</title>
<polygon fill="#ffffff" stroke="transparent" points="-4,4 -4,-207 500,-207 500,4 -4,4"/>
<text text-anchor="start" x="227.0091" y="-42.4" font-family="sans-serif" font-weight="bold" font-size="14.00" fill="#000000">Legend</text>
<polygon fill="#ffffb3" stroke="transparent" points="14,-10 14,-30 34,-30 34,-10 14,-10"/>
<text text-anchor="start" x="37.629" y="-15.4" font-family="sans-serif" font-size="14.00" fill="#000000"> &#160;Declarations</text>
<polygon fill="#8dd3c7" stroke="transparent" points="127,-10 127,-30 147,-30 147,-10 127,-10"/>
<text text-anchor="start" x="150.7251" y="-15.4" font-family="sans-serif" font-size="14.00" fill="#000000"> &#160;Module</text>
<polygon fill="#80b1d3" stroke="transparent" points="213,-10 213,-30 233,-30 233,-10 213,-10"/>
<text text-anchor="start" x="236.7812" y="-15.4" font-family="sans-serif" font-size="14.00" fill="#000000"> &#160;Bootstrap</text>
<polygon fill="#fdb462" stroke="transparent" points="310,-10 310,-30 330,-30 330,-10 310,-10"/>
<text text-anchor="start" x="333.6732" y="-15.4" font-family="sans-serif" font-size="14.00" fill="#000000"> &#160;Providers</text>
<polygon fill="#fb8072" stroke="transparent" points="406,-10 406,-30 426,-30 426,-10 406,-10"/>
<text text-anchor="start" x="429.7258" y="-15.4" font-family="sans-serif" font-size="14.00" fill="#000000"> &#160;Exports</text>
<g id="clust1" class="cluster">
<title>cluster_ClickDatePickerDemoModule</title>
<polygon fill="none" stroke="#000000" stroke-dasharray="1,5" points="17,-70 17,-195 479,-195 479,-70 17,-70"/>
</g>
<g id="clust2" class="cluster">
<title>cluster_ClickDatePickerDemoModule_declarations</title>
<polygon fill="none" stroke="#000000" points="247,-78 247,-130 471,-130 471,-78 247,-78"/>
</g>
<g id="clust4" class="cluster">
<title>cluster_ClickDatePickerDemoModule_imports</title>
<polygon fill="none" stroke="#000000" points="25,-78 25,-130 239,-130 239,-78 25,-78"/>
</g>
<!-- ClickDatePickerDemoComponent -->
<g id="node1" class="node">
<title>ClickDatePickerDemoComponent</title>
<polygon fill="#ffffb3" stroke="#000000" points="463.066,-122 254.934,-122 254.934,-86 463.066,-86 463.066,-122"/>
<text text-anchor="middle" x="359" y="-99.8" font-family="Times,serif" font-size="14.00" fill="#000000">ClickDatePickerDemoComponent</text>
</g>
<!-- ClickDatePickerDemoModule -->
<g id="node2" class="node">
<title>ClickDatePickerDemoModule</title>
<polygon fill="#8dd3c7" stroke="#000000" points="338.2836,-187 335.2836,-191 314.2836,-191 311.2836,-187 151.7164,-187 151.7164,-151 338.2836,-151 338.2836,-187"/>
<text text-anchor="middle" x="245" y="-164.8" font-family="Times,serif" font-size="14.00" fill="#000000">ClickDatePickerDemoModule</text>
</g>
<!-- ClickDatePickerDemoComponent&#45;&gt;ClickDatePickerDemoModule -->
<g id="edge1" class="edge">
<title>ClickDatePickerDemoComponent&#45;&gt;ClickDatePickerDemoModule</title>
<path fill="none" stroke="#000000" d="M296.5544,-122.1061C296.5544,-122.1061 296.5544,-140.991 296.5544,-140.991"/>
<polygon fill="#000000" stroke="#000000" points="293.0544,-140.9909 296.5544,-150.991 300.0544,-140.991 293.0544,-140.9909"/>
</g>
<!-- ClickDatePickerRoutingModule -->
<g id="node3" class="node">
<title>ClickDatePickerRoutingModule</title>
<polygon fill="#8dd3c7" stroke="#000000" points="230.6895,-122 227.6895,-126 206.6895,-126 203.6895,-122 33.3105,-122 33.3105,-86 230.6895,-86 230.6895,-122"/>
<text text-anchor="middle" x="132" y="-99.8" font-family="Times,serif" font-size="14.00" fill="#000000">ClickDatePickerRoutingModule</text>
</g>
<!-- ClickDatePickerRoutingModule&#45;&gt;ClickDatePickerDemoModule -->
<g id="edge2" class="edge">
<title>ClickDatePickerRoutingModule&#45;&gt;ClickDatePickerDemoModule</title>
<path fill="none" stroke="#000000" d="M191.2265,-122.1061C191.2265,-122.1061 191.2265,-140.991 191.2265,-140.991"/>
<polygon fill="#000000" stroke="#000000" points="187.7266,-140.9909 191.2265,-150.991 194.7266,-140.991 187.7266,-140.9909"/>
</g>
</g>
</svg>
