<?xml version="1.0" encoding="UTF-8" standalone="no"?>
<!DOCTYPE svg PUBLIC "-//W3C//DTD SVG 1.1//EN"
 "http://www.w3.org/Graphics/SVG/1.1/DTD/svg11.dtd">
<!-- Generated by graphviz version 2.40.1 (20161225.0304)
 -->
<!-- Title: dependencies Pages: 1 -->
<svg width="844pt" height="211pt"
 viewBox="0.00 0.00 844.00 211.00" xmlns="http://www.w3.org/2000/svg" xmlns:xlink="http://www.w3.org/1999/xlink">
<g id="graph0" class="graph" transform="scale(1 1) rotate(0) translate(4 207)">
<title>dependencies</title>
<polygon fill="#ffffff" stroke="transparent" points="-4,4 -4,-207 840,-207 840,4 -4,4"/>
<text text-anchor="start" x="397.0091" y="-42.4" font-family="sans-serif" font-weight="bold" font-size="14.00" fill="#000000">Legend</text>
<polygon fill="#ffffb3" stroke="transparent" points="184,-10 184,-30 204,-30 204,-10 184,-10"/>
<text text-anchor="start" x="207.629" y="-15.4" font-family="sans-serif" font-size="14.00" fill="#000000"> &#160;Declarations</text>
<polygon fill="#8dd3c7" stroke="transparent" points="297,-10 297,-30 317,-30 317,-10 297,-10"/>
<text text-anchor="start" x="320.7251" y="-15.4" font-family="sans-serif" font-size="14.00" fill="#000000"> &#160;Module</text>
<polygon fill="#80b1d3" stroke="transparent" points="383,-10 383,-30 403,-30 403,-10 383,-10"/>
<text text-anchor="start" x="406.7812" y="-15.4" font-family="sans-serif" font-size="14.00" fill="#000000"> &#160;Bootstrap</text>
<polygon fill="#fdb462" stroke="transparent" points="480,-10 480,-30 500,-30 500,-10 480,-10"/>
<text text-anchor="start" x="503.6732" y="-15.4" font-family="sans-serif" font-size="14.00" fill="#000000"> &#160;Providers</text>
<polygon fill="#fb8072" stroke="transparent" points="576,-10 576,-30 596,-30 596,-10 576,-10"/>
<text text-anchor="start" x="599.7258" y="-15.4" font-family="sans-serif" font-size="14.00" fill="#000000"> &#160;Exports</text>
<g id="clust1" class="cluster">
<title>cluster_ClickDatePickerDemoModule</title>
<polygon fill="none" stroke="#000000" stroke-dasharray="1,5" points="8,-70 8,-195 828,-195 828,-70 8,-70"/>
</g>
<g id="clust2" class="cluster">
<title>cluster_ClickDatePickerDemoModule_declarations</title>
<polygon fill="none" stroke="#000000" points="404,-78 404,-130 820,-130 820,-78 404,-78"/>
</g>
<g id="clust5" class="cluster">
<title>cluster_ClickDatePickerDemoModule_imports</title>
<polygon fill="none" stroke="#000000" points="16,-78 16,-130 396,-130 396,-78 16,-78"/>
</g>
<!-- ClickDatePickerComponent -->
<g id="node1" class="node">
<title>ClickDatePickerComponent</title>
<polygon fill="#ffffb3" stroke="#000000" points="811.8543,-122 638.1457,-122 638.1457,-86 811.8543,-86 811.8543,-122"/>
<text text-anchor="middle" x="725" y="-99.8" font-family="Times,serif" font-size="14.00" fill="#000000">ClickDatePickerComponent</text>
</g>
<!-- ClickDatePickerDemoModule -->
<g id="node3" class="node">
<title>ClickDatePickerDemoModule</title>
<polygon fill="#8dd3c7" stroke="#000000" points="495.2836,-187 492.2836,-191 471.2836,-191 468.2836,-187 308.7164,-187 308.7164,-151 495.2836,-151 495.2836,-187"/>
<text text-anchor="middle" x="402" y="-164.8" font-family="Times,serif" font-size="14.00" fill="#000000">ClickDatePickerDemoModule</text>
</g>
<!-- ClickDatePickerComponent&#45;&gt;ClickDatePickerDemoModule -->
<g id="edge1" class="edge">
<title>ClickDatePickerComponent&#45;&gt;ClickDatePickerDemoModule</title>
<path fill="none" stroke="#000000" d="M725,-122.1061C725,-141.3391 725,-169 725,-169 725,-169 505.425,-169 505.425,-169"/>
<polygon fill="#000000" stroke="#000000" points="505.425,-165.5001 495.425,-169 505.4249,-172.5001 505.425,-165.5001"/>
</g>
<!-- ClickDatePickerDemoComponent -->
<g id="node2" class="node">
<title>ClickDatePickerDemoComponent</title>
<polygon fill="#ffffb3" stroke="#000000" points="620.066,-122 411.934,-122 411.934,-86 620.066,-86 620.066,-122"/>
<text text-anchor="middle" x="516" y="-99.8" font-family="Times,serif" font-size="14.00" fill="#000000">ClickDatePickerDemoComponent</text>
</g>
<!-- ClickDatePickerDemoComponent&#45;&gt;ClickDatePickerDemoModule -->
<g id="edge2" class="edge">
<title>ClickDatePickerDemoComponent&#45;&gt;ClickDatePickerDemoModule</title>
<path fill="none" stroke="#000000" d="M453.5544,-122.1061C453.5544,-122.1061 453.5544,-140.991 453.5544,-140.991"/>
<polygon fill="#000000" stroke="#000000" points="450.0544,-140.9909 453.5544,-150.991 457.0544,-140.991 450.0544,-140.9909"/>
</g>
<!-- ClickDatePickerRoutingModule -->
<g id="node4" class="node">
<title>ClickDatePickerRoutingModule</title>
<polygon fill="#8dd3c7" stroke="#000000" points="387.6895,-122 384.6895,-126 363.6895,-126 360.6895,-122 190.3105,-122 190.3105,-86 387.6895,-86 387.6895,-122"/>
<text text-anchor="middle" x="289" y="-99.8" font-family="Times,serif" font-size="14.00" fill="#000000">ClickDatePickerRoutingModule</text>
</g>
<!-- ClickDatePickerRoutingModule&#45;&gt;ClickDatePickerDemoModule -->
<g id="edge3" class="edge">
<title>ClickDatePickerRoutingModule&#45;&gt;ClickDatePickerDemoModule</title>
<path fill="none" stroke="#000000" d="M348.2265,-122.1061C348.2265,-122.1061 348.2265,-140.991 348.2265,-140.991"/>
<polygon fill="#000000" stroke="#000000" points="344.7266,-140.9909 348.2265,-150.991 351.7266,-140.991 344.7266,-140.9909"/>
</g>
<!-- ClickIconDemoModule -->
<g id="node5" class="node">
<title>ClickIconDemoModule</title>
<polygon fill="#8dd3c7" stroke="#000000" points="172.4692,-122 169.4692,-126 148.4692,-126 145.4692,-122 23.5308,-122 23.5308,-86 172.4692,-86 172.4692,-122"/>
<text text-anchor="middle" x="98" y="-99.8" font-family="Times,serif" font-size="14.00" fill="#000000">ClickIconDemoModule</text>
</g>
<!-- ClickIconDemoModule&#45;&gt;ClickDatePickerDemoModule -->
<g id="edge4" class="edge">
<title>ClickIconDemoModule&#45;&gt;ClickDatePickerDemoModule</title>
<path fill="none" stroke="#000000" d="M98,-122.1061C98,-141.3391 98,-169 98,-169 98,-169 298.724,-169 298.724,-169"/>
<polygon fill="#000000" stroke="#000000" points="298.724,-172.5001 308.724,-169 298.724,-165.5001 298.724,-172.5001"/>
</g>
</g>
</svg>
