<?xml version="1.0" encoding="UTF-8" standalone="no"?>
<!DOCTYPE svg PUBLIC "-//W3C//DTD SVG 1.1//EN"
 "http://www.w3.org/Graphics/SVG/1.1/DTD/svg11.dtd">
<!-- Generated by graphviz version 2.40.1 (20161225.0304)
 -->
<!-- Title: dependencies Pages: 1 -->
<svg width="5128pt" height="363pt"
 viewBox="0.00 0.00 5128.00 363.00" xmlns="http://www.w3.org/2000/svg" xmlns:xlink="http://www.w3.org/1999/xlink">
<g id="graph0" class="graph" transform="scale(1 1) rotate(0) translate(4 359)">
<title>dependencies</title>
<polygon fill="#ffffff" stroke="transparent" points="-4,4 -4,-359 5124,-359 5124,4 -4,4"/>
<text text-anchor="start" x="2539.0091" y="-42.4" font-family="sans-serif" font-weight="bold" font-size="14.00" fill="#000000">Legend</text>
<polygon fill="#ffffb3" stroke="transparent" points="2326,-10 2326,-30 2346,-30 2346,-10 2326,-10"/>
<text text-anchor="start" x="2349.629" y="-15.4" font-family="sans-serif" font-size="14.00" fill="#000000"> &#160;Declarations</text>
<polygon fill="#8dd3c7" stroke="transparent" points="2439,-10 2439,-30 2459,-30 2459,-10 2439,-10"/>
<text text-anchor="start" x="2462.7251" y="-15.4" font-family="sans-serif" font-size="14.00" fill="#000000"> &#160;Module</text>
<polygon fill="#80b1d3" stroke="transparent" points="2525,-10 2525,-30 2545,-30 2545,-10 2525,-10"/>
<text text-anchor="start" x="2548.7812" y="-15.4" font-family="sans-serif" font-size="14.00" fill="#000000"> &#160;Bootstrap</text>
<polygon fill="#fdb462" stroke="transparent" points="2622,-10 2622,-30 2642,-30 2642,-10 2622,-10"/>
<text text-anchor="start" x="2645.6732" y="-15.4" font-family="sans-serif" font-size="14.00" fill="#000000"> &#160;Providers</text>
<polygon fill="#fb8072" stroke="transparent" points="2718,-10 2718,-30 2738,-30 2738,-10 2718,-10"/>
<text text-anchor="start" x="2741.7258" y="-15.4" font-family="sans-serif" font-size="14.00" fill="#000000"> &#160;Exports</text>
<g id="clust1" class="cluster">
<title>cluster_AppModule</title>
<polygon fill="none" stroke="#000000" stroke-dasharray="1,5" points="8,-70 8,-279 298,-279 298,-70 8,-70"/>
</g>
<g id="clust2" class="cluster">
<title>cluster_AppModule_declarations</title>
<polygon fill="none" stroke="#000000" points="168,-78 168,-130 290,-130 290,-78 168,-78"/>
</g>
<g id="clust4" class="cluster">
<title>cluster_AppModule_imports</title>
<polygon fill="none" stroke="#000000" points="16,-78 16,-130 160,-130 160,-78 16,-78"/>
</g>
<g id="clust6" class="cluster">
<title>cluster_AppModule_bootstrap</title>
<polygon fill="none" stroke="#000000" points="96,-219 96,-271 220,-271 220,-219 96,-219"/>
</g>
<g id="clust14" class="cluster">
<title>cluster_ClickDatePickerDemoModule</title>
<polygon fill="none" stroke="#000000" stroke-dasharray="1,5" points="596,-146 596,-271 1416,-271 1416,-146 596,-146"/>
</g>
<g id="clust15" class="cluster">
<title>cluster_ClickDatePickerDemoModule_declarations</title>
<polygon fill="none" stroke="#000000" points="992,-154 992,-206 1408,-206 1408,-154 992,-154"/>
</g>
<g id="clust18" class="cluster">
<title>cluster_ClickDatePickerDemoModule_imports</title>
<polygon fill="none" stroke="#000000" points="604,-154 604,-206 984,-206 984,-154 604,-154"/>
</g>
<g id="clust22" class="cluster">
<title>cluster_ClickDatePickerRangeDemoModule</title>
<polygon fill="none" stroke="#000000" stroke-dasharray="1,5" points="1424,-70 1424,-206 2218,-206 2218,-70 1424,-70"/>
</g>
<g id="clust23" class="cluster">
<title>cluster_ClickDatePickerRangeDemoModule_declarations</title>
<polygon fill="none" stroke="#000000" points="1724,-78 1724,-130 2210,-130 2210,-78 1724,-78"/>
</g>
<g id="clust26" class="cluster">
<title>cluster_ClickDatePickerRangeDemoModule_imports</title>
<polygon fill="none" stroke="#000000" points="1432,-78 1432,-130 1716,-130 1716,-78 1432,-78"/>
</g>
<g id="clust42" class="cluster">
<title>cluster_ClickIconDemoModule</title>
<polygon fill="none" stroke="#000000" stroke-dasharray="1,5" points="306,-70 306,-138 1045,-138 1045,-70 306,-70"/>
</g>
<g id="clust43" class="cluster">
<title>cluster_ClickIconDemoModule_declarations</title>
<polygon fill="none" stroke="#000000" points="696,-78 696,-130 1037,-130 1037,-78 696,-78"/>
</g>
<g id="clust46" class="cluster">
<title>cluster_ClickIconDemoModule_imports</title>
<polygon fill="none" stroke="#000000" points="478,-78 478,-130 688,-130 688,-78 478,-78"/>
</g>
<g id="clust47" class="cluster">
<title>cluster_ClickIconDemoModule_exports</title>
<polygon fill="none" stroke="#000000" points="314,-78 314,-130 470,-130 470,-78 314,-78"/>
</g>
<g id="clust56" class="cluster">
<title>cluster_ClickSearchInputModule</title>
<polygon fill="none" stroke="#000000" stroke-dasharray="1,5" points="2226,-70 2226,-279 2895,-279 2895,-70 2226,-70"/>
</g>
<g id="clust57" class="cluster">
<title>cluster_ClickSearchInputModule_declarations</title>
<polygon fill="none" stroke="#000000" points="2460,-78 2460,-130 2887,-130 2887,-78 2460,-78"/>
</g>
<g id="clust60" class="cluster">
<title>cluster_ClickSearchInputModule_imports</title>
<polygon fill="none" stroke="#000000" points="2234,-78 2234,-130 2452,-130 2452,-78 2234,-78"/>
</g>
<g id="clust61" class="cluster">
<title>cluster_ClickSearchInputModule_exports</title>
<polygon fill="none" stroke="#000000" points="2582,-219 2582,-271 2780,-271 2780,-219 2582,-219"/>
</g>
<g id="clust70" class="cluster">
<title>cluster_ClickTimeDomainModule</title>
<polygon fill="none" stroke="#000000" stroke-dasharray="1,5" points="3731,-146 3731,-347 5112,-347 5112,-146 3731,-146"/>
</g>
<g id="clust71" class="cluster">
<title>cluster_ClickTimeDomainModule_declarations</title>
<polygon fill="none" stroke="#000000" points="4181,-154 4181,-206 5104,-206 5104,-154 4181,-154"/>
</g>
<g id="clust76" class="cluster">
<title>cluster_ClickTimeDomainModule_imports</title>
<polygon fill="none" stroke="#000000" points="3739,-154 3739,-206 4173,-206 4173,-154 3739,-154"/>
</g>
<g id="clust77" class="cluster">
<title>cluster_ClickTimeDomainModule_exports</title>
<polygon fill="none" stroke="#000000" points="4317,-287 4317,-339 4523,-339 4523,-287 4317,-287"/>
</g>
<g id="clust86" class="cluster">
<title>cluster_ClickTreeViewModule</title>
<polygon fill="none" stroke="#000000" stroke-dasharray="1,5" points="2903,-146 2903,-347 3723,-347 3723,-146 2903,-146"/>
</g>
<g id="clust87" class="cluster">
<title>cluster_ClickTreeViewModule_declarations</title>
<polygon fill="none" stroke="#000000" points="3125,-154 3125,-206 3715,-206 3715,-154 3125,-154"/>
</g>
<g id="clust91" class="cluster">
<title>cluster_ClickTreeViewModule_imports</title>
<polygon fill="none" stroke="#000000" points="2911,-154 2911,-206 3117,-206 3117,-154 2911,-154"/>
</g>
<g id="clust92" class="cluster">
<title>cluster_ClickTreeViewModule_exports</title>
<polygon fill="none" stroke="#000000" points="3241,-287 3241,-339 3429,-339 3429,-287 3241,-287"/>
</g>
<g id="clust101" class="cluster">
<title>cluster_ClickTristateCheckboxModule</title>
<polygon fill="none" stroke="#000000" stroke-dasharray="1,5" points="3339,-70 3339,-138 4342,-138 4342,-70 3339,-70"/>
</g>
<g id="clust102" class="cluster">
<title>cluster_ClickTristateCheckboxModule_declarations</title>
<polygon fill="none" stroke="#000000" points="3843,-78 3843,-130 4334,-130 4334,-78 3843,-78"/>
</g>
<g id="clust105" class="cluster">
<title>cluster_ClickTristateCheckboxModule_imports</title>
<polygon fill="none" stroke="#000000" points="3585,-78 3585,-130 3835,-130 3835,-78 3585,-78"/>
</g>
<g id="clust106" class="cluster">
<title>cluster_ClickTristateCheckboxModule_exports</title>
<polygon fill="none" stroke="#000000" points="3347,-78 3347,-130 3577,-130 3577,-78 3347,-78"/>
</g>
<!-- AppComponent -->
<g id="node1" class="node">
<title>AppComponent</title>
<polygon fill="#ffffb3" stroke="#000000" points="281.9399,-122 176.0601,-122 176.0601,-86 281.9399,-86 281.9399,-122"/>
<text text-anchor="middle" x="229" y="-99.8" font-family="Times,serif" font-size="14.00" fill="#000000">AppComponent</text>
</g>
<!-- AppModule -->
<g id="node2" class="node">
<title>AppModule</title>
<polygon fill="#8dd3c7" stroke="#000000" points="199.6571,-198 196.6571,-202 175.6571,-202 172.6571,-198 116.3429,-198 116.3429,-162 199.6571,-162 199.6571,-198"/>
<text text-anchor="middle" x="158" y="-175.8" font-family="Times,serif" font-size="14.00" fill="#000000">AppModule</text>
</g>
<!-- AppComponent&#45;&gt;AppModule -->
<g id="edge1" class="edge">
<title>AppComponent&#45;&gt;AppModule</title>
<path fill="none" stroke="#000000" d="M188.0544,-122.0109C188.0544,-122.0109 188.0544,-151.855 188.0544,-151.855"/>
<polygon fill="#000000" stroke="#000000" points="184.5544,-151.8549 188.0544,-161.855 191.5544,-151.855 184.5544,-151.8549"/>
</g>
<!-- AppComponent  -->
<g id="node4" class="node">
<title>AppComponent </title>
<polygon fill="#80b1d3" stroke="#000000" points="212.439,-263 103.561,-263 103.561,-227 212.439,-227 212.439,-263"/>
<text text-anchor="middle" x="158" y="-240.8" font-family="Times,serif" font-size="14.00" fill="#000000">AppComponent </text>
</g>
<!-- AppModule&#45;&gt;AppComponent  -->
<g id="edge3" class="edge">
<title>AppModule&#45;&gt;AppComponent </title>
<path fill="none" stroke="#000000" stroke-dasharray="1,5" d="M158,-198.1061C158,-198.1061 158,-216.991 158,-216.991"/>
<polygon fill="#000000" stroke="#000000" points="154.5001,-216.9909 158,-226.991 161.5001,-216.991 154.5001,-216.9909"/>
</g>
<!-- AppRoutingModule -->
<g id="node3" class="node">
<title>AppRoutingModule</title>
<polygon fill="#8dd3c7" stroke="#000000" points="152.2744,-122 149.2744,-126 128.2744,-126 125.2744,-122 23.7256,-122 23.7256,-86 152.2744,-86 152.2744,-122"/>
<text text-anchor="middle" x="88" y="-99.8" font-family="Times,serif" font-size="14.00" fill="#000000">AppRoutingModule</text>
</g>
<!-- AppRoutingModule&#45;&gt;AppModule -->
<g id="edge2" class="edge">
<title>AppRoutingModule&#45;&gt;AppModule</title>
<path fill="none" stroke="#000000" d="M134.2795,-122.0109C134.2795,-122.0109 134.2795,-151.855 134.2795,-151.855"/>
<polygon fill="#000000" stroke="#000000" points="130.7795,-151.8549 134.2795,-161.855 137.7795,-151.855 130.7795,-151.8549"/>
</g>
<!-- ClickDatePickerComponent -->
<g id="node5" class="node">
<title>ClickDatePickerComponent</title>
<polygon fill="#ffffb3" stroke="#000000" points="1399.8543,-198 1226.1457,-198 1226.1457,-162 1399.8543,-162 1399.8543,-198"/>
<text text-anchor="middle" x="1313" y="-175.8" font-family="Times,serif" font-size="14.00" fill="#000000">ClickDatePickerComponent</text>
</g>
<!-- ClickDatePickerDemoModule -->
<g id="node7" class="node">
<title>ClickDatePickerDemoModule</title>
<polygon fill="#8dd3c7" stroke="#000000" points="1083.2836,-263 1080.2836,-267 1059.2836,-267 1056.2836,-263 896.7164,-263 896.7164,-227 1083.2836,-227 1083.2836,-263"/>
<text text-anchor="middle" x="990" y="-240.8" font-family="Times,serif" font-size="14.00" fill="#000000">ClickDatePickerDemoModule</text>
</g>
<!-- ClickDatePickerComponent&#45;&gt;ClickDatePickerDemoModule -->
<g id="edge4" class="edge">
<title>ClickDatePickerComponent&#45;&gt;ClickDatePickerDemoModule</title>
<path fill="none" stroke="#000000" d="M1313,-198.1061C1313,-217.3391 1313,-245 1313,-245 1313,-245 1093.425,-245 1093.425,-245"/>
<polygon fill="#000000" stroke="#000000" points="1093.425,-241.5001 1083.425,-245 1093.4249,-248.5001 1093.425,-241.5001"/>
</g>
<!-- ClickDatePickerDemoComponent -->
<g id="node6" class="node">
<title>ClickDatePickerDemoComponent</title>
<polygon fill="#ffffb3" stroke="#000000" points="1208.066,-198 999.934,-198 999.934,-162 1208.066,-162 1208.066,-198"/>
<text text-anchor="middle" x="1104" y="-175.8" font-family="Times,serif" font-size="14.00" fill="#000000">ClickDatePickerDemoComponent</text>
</g>
<!-- ClickDatePickerDemoComponent&#45;&gt;ClickDatePickerDemoModule -->
<g id="edge5" class="edge">
<title>ClickDatePickerDemoComponent&#45;&gt;ClickDatePickerDemoModule</title>
<path fill="none" stroke="#000000" d="M1041.5543,-198.1061C1041.5543,-198.1061 1041.5543,-216.991 1041.5543,-216.991"/>
<polygon fill="#000000" stroke="#000000" points="1038.0544,-216.9909 1041.5543,-226.991 1045.0544,-216.991 1038.0544,-216.9909"/>
</g>
<!-- ClickDatePickerRoutingModule -->
<g id="node8" class="node">
<title>ClickDatePickerRoutingModule</title>
<polygon fill="#8dd3c7" stroke="#000000" points="975.6895,-198 972.6895,-202 951.6895,-202 948.6895,-198 778.3105,-198 778.3105,-162 975.6895,-162 975.6895,-198"/>
<text text-anchor="middle" x="877" y="-175.8" font-family="Times,serif" font-size="14.00" fill="#000000">ClickDatePickerRoutingModule</text>
</g>
<!-- ClickDatePickerRoutingModule&#45;&gt;ClickDatePickerDemoModule -->
<g id="edge6" class="edge">
<title>ClickDatePickerRoutingModule&#45;&gt;ClickDatePickerDemoModule</title>
<path fill="none" stroke="#000000" d="M936.2265,-198.1061C936.2265,-198.1061 936.2265,-216.991 936.2265,-216.991"/>
<polygon fill="#000000" stroke="#000000" points="932.7266,-216.9909 936.2265,-226.991 939.7266,-216.991 932.7266,-216.9909"/>
</g>
<!-- ClickIconDemoModule -->
<g id="node9" class="node">
<title>ClickIconDemoModule</title>
<polygon fill="#8dd3c7" stroke="#000000" points="760.4692,-198 757.4692,-202 736.4692,-202 733.4692,-198 611.5308,-198 611.5308,-162 760.4692,-162 760.4692,-198"/>
<text text-anchor="middle" x="686" y="-175.8" font-family="Times,serif" font-size="14.00" fill="#000000">ClickIconDemoModule</text>
</g>
<!-- ClickIconDemoModule&#45;&gt;ClickDatePickerDemoModule -->
<g id="edge7" class="edge">
<title>ClickIconDemoModule&#45;&gt;ClickDatePickerDemoModule</title>
<path fill="none" stroke="#000000" d="M686,-198.1061C686,-217.3391 686,-245 686,-245 686,-245 886.724,-245 886.724,-245"/>
<polygon fill="#000000" stroke="#000000" points="886.724,-248.5001 896.724,-245 886.724,-241.5001 886.724,-248.5001"/>
</g>
<!-- ClickIconComponent  -->
<g id="node17" class="node">
<title>ClickIconComponent </title>
<polygon fill="#fb8072" stroke="#000000" points="462.04,-122 321.96,-122 321.96,-86 462.04,-86 462.04,-122"/>
<text text-anchor="middle" x="392" y="-99.8" font-family="Times,serif" font-size="14.00" fill="#000000">ClickIconComponent </text>
</g>
<!-- ClickIconDemoModule&#45;&gt;ClickIconComponent  -->
<g id="edge14" class="edge">
<title>ClickIconDemoModule&#45;&gt;ClickIconComponent </title>
<path fill="none" stroke="#000000" stroke-dasharray="5,2" d="M611.4313,-180C524.3308,-180 392,-180 392,-180 392,-180 392,-132.0109 392,-132.0109"/>
<polygon fill="#000000" stroke="#000000" points="395.5001,-132.0109 392,-122.0109 388.5001,-132.011 395.5001,-132.0109"/>
</g>
<!-- ClickDatePickerRangeDemoComponent -->
<g id="node10" class="node">
<title>ClickDatePickerRangeDemoComponent</title>
<polygon fill="#ffffb3" stroke="#000000" points="2201.8319,-122 1958.1681,-122 1958.1681,-86 2201.8319,-86 2201.8319,-122"/>
<text text-anchor="middle" x="2080" y="-99.8" font-family="Times,serif" font-size="14.00" fill="#000000">ClickDatePickerRangeDemoComponent</text>
</g>
<!-- ClickDatePickerRangeDemoModule -->
<g id="node12" class="node">
<title>ClickDatePickerRangeDemoModule</title>
<polygon fill="#8dd3c7" stroke="#000000" points="1947.0492,-198 1944.0492,-202 1923.0492,-202 1920.0492,-198 1724.9508,-198 1724.9508,-162 1947.0492,-162 1947.0492,-198"/>
<text text-anchor="middle" x="1836" y="-175.8" font-family="Times,serif" font-size="14.00" fill="#000000">ClickDatePickerRangeDemoModule</text>
</g>
<!-- ClickDatePickerRangeDemoComponent&#45;&gt;ClickDatePickerRangeDemoModule -->
<g id="edge8" class="edge">
<title>ClickDatePickerRangeDemoComponent&#45;&gt;ClickDatePickerRangeDemoModule</title>
<path fill="none" stroke="#000000" d="M2080,-122.1985C2080,-146.3563 2080,-186 2080,-186 2080,-186 1957.2896,-186 1957.2896,-186"/>
<polygon fill="#000000" stroke="#000000" points="1957.2896,-182.5001 1947.2896,-186 1957.2896,-189.5001 1957.2896,-182.5001"/>
</g>
<!-- ClickDatepickerRangeComponent -->
<g id="node11" class="node">
<title>ClickDatepickerRangeComponent</title>
<polygon fill="#ffffb3" stroke="#000000" points="1940.3375,-122 1731.6625,-122 1731.6625,-86 1940.3375,-86 1940.3375,-122"/>
<text text-anchor="middle" x="1836" y="-99.8" font-family="Times,serif" font-size="14.00" fill="#000000">ClickDatepickerRangeComponent</text>
</g>
<!-- ClickDatepickerRangeComponent&#45;&gt;ClickDatePickerRangeDemoModule -->
<g id="edge9" class="edge">
<title>ClickDatepickerRangeComponent&#45;&gt;ClickDatePickerRangeDemoModule</title>
<path fill="none" stroke="#000000" d="M1836,-122.0109C1836,-122.0109 1836,-151.855 1836,-151.855"/>
<polygon fill="#000000" stroke="#000000" points="1832.5001,-151.8549 1836,-161.855 1839.5001,-151.855 1832.5001,-151.8549"/>
</g>
<!-- ClickDatePickerRangeDemoRoutingModule -->
<g id="node13" class="node">
<title>ClickDatePickerRangeDemoRoutingModule</title>
<polygon fill="#8dd3c7" stroke="#000000" points="1707.6671,-122 1704.6671,-126 1683.6671,-126 1680.6671,-122 1440.3329,-122 1440.3329,-86 1707.6671,-86 1707.6671,-122"/>
<text text-anchor="middle" x="1574" y="-99.8" font-family="Times,serif" font-size="14.00" fill="#000000">ClickDatePickerRangeDemoRoutingModule</text>
</g>
<!-- ClickDatePickerRangeDemoRoutingModule&#45;&gt;ClickDatePickerRangeDemoModule -->
<g id="edge10" class="edge">
<title>ClickDatePickerRangeDemoRoutingModule&#45;&gt;ClickDatePickerRangeDemoModule</title>
<path fill="none" stroke="#000000" d="M1574,-122.0109C1574,-144.4852 1574,-180 1574,-180 1574,-180 1714.8884,-180 1714.8884,-180"/>
<polygon fill="#000000" stroke="#000000" points="1714.8884,-183.5001 1724.8884,-180 1714.8884,-176.5001 1714.8884,-183.5001"/>
</g>
<!-- ClickIconComponent -->
<g id="node14" class="node">
<title>ClickIconComponent</title>
<polygon fill="#ffffb3" stroke="#000000" points="1029.0408,-122 892.9592,-122 892.9592,-86 1029.0408,-86 1029.0408,-122"/>
<text text-anchor="middle" x="961" y="-99.8" font-family="Times,serif" font-size="14.00" fill="#000000">ClickIconComponent</text>
</g>
<!-- ClickIconComponent&#45;&gt;ClickIconDemoModule -->
<g id="edge11" class="edge">
<title>ClickIconComponent&#45;&gt;ClickIconDemoModule</title>
<path fill="none" stroke="#000000" d="M934.1624,-122.1467C934.1624,-135.7395 934.1624,-152 934.1624,-152 934.1624,-152 741.5311,-152 741.5311,-152 741.5311,-152 741.5311,-152.9793 741.5311,-152.9793"/>
<polygon fill="#000000" stroke="#000000" points="738.0312,-151.793 741.5311,-161.793 745.0312,-151.7931 738.0312,-151.793"/>
</g>
<!-- ClickIconDemoComponent -->
<g id="node15" class="node">
<title>ClickIconDemoComponent</title>
<polygon fill="#ffffb3" stroke="#000000" points="874.252,-122 703.748,-122 703.748,-86 874.252,-86 874.252,-122"/>
<text text-anchor="middle" x="789" y="-99.8" font-family="Times,serif" font-size="14.00" fill="#000000">ClickIconDemoComponent</text>
</g>
<!-- ClickIconDemoComponent&#45;&gt;ClickIconDemoModule -->
<g id="edge12" class="edge">
<title>ClickIconDemoComponent&#45;&gt;ClickIconDemoModule</title>
<path fill="none" stroke="#000000" d="M722.5776,-122.0109C722.5776,-122.0109 722.5776,-151.855 722.5776,-151.855"/>
<polygon fill="#000000" stroke="#000000" points="719.0777,-151.8549 722.5776,-161.855 726.0777,-151.855 719.0777,-151.8549"/>
</g>
<!-- ClickIconDemoRoutingModule -->
<g id="node16" class="node">
<title>ClickIconDemoRoutingModule</title>
<polygon fill="#8dd3c7" stroke="#000000" points="680.087,-122 677.087,-126 656.087,-126 653.087,-122 485.913,-122 485.913,-86 680.087,-86 680.087,-122"/>
<text text-anchor="middle" x="583" y="-99.8" font-family="Times,serif" font-size="14.00" fill="#000000">ClickIconDemoRoutingModule</text>
</g>
<!-- ClickIconDemoRoutingModule&#45;&gt;ClickIconDemoModule -->
<g id="edge13" class="edge">
<title>ClickIconDemoRoutingModule&#45;&gt;ClickIconDemoModule</title>
<path fill="none" stroke="#000000" d="M645.7795,-122.0109C645.7795,-122.0109 645.7795,-151.855 645.7795,-151.855"/>
<polygon fill="#000000" stroke="#000000" points="642.2795,-151.8549 645.7795,-161.855 649.2795,-151.855 642.2795,-151.8549"/>
</g>
<!-- ClickSearchInputComponent -->
<g id="node18" class="node">
<title>ClickSearchInputComponent</title>
<polygon fill="#ffffb3" stroke="#000000" points="2878.8033,-122 2699.1967,-122 2699.1967,-86 2878.8033,-86 2878.8033,-122"/>
<text text-anchor="middle" x="2789" y="-99.8" font-family="Times,serif" font-size="14.00" fill="#000000">ClickSearchInputComponent</text>
</g>
<!-- ClickSearchInputModule -->
<g id="node20" class="node">
<title>ClickSearchInputModule</title>
<polygon fill="#8dd3c7" stroke="#000000" points="2759.5211,-198 2756.5211,-202 2735.5211,-202 2732.5211,-198 2602.4789,-198 2602.4789,-162 2759.5211,-162 2759.5211,-198"/>
<text text-anchor="middle" x="2681" y="-175.8" font-family="Times,serif" font-size="14.00" fill="#000000">ClickSearchInputModule</text>
</g>
<!-- ClickSearchInputComponent&#45;&gt;ClickSearchInputModule -->
<g id="edge15" class="edge">
<title>ClickSearchInputComponent&#45;&gt;ClickSearchInputModule</title>
<path fill="none" stroke="#000000" d="M2729.5544,-122.0109C2729.5544,-122.0109 2729.5544,-151.855 2729.5544,-151.855"/>
<polygon fill="#000000" stroke="#000000" points="2726.0544,-151.8549 2729.5544,-161.855 2733.0544,-151.855 2726.0544,-151.8549"/>
</g>
<!-- ClickSearchInputDemoComponent -->
<g id="node19" class="node">
<title>ClickSearchInputDemoComponent</title>
<polygon fill="#ffffb3" stroke="#000000" points="2681.5154,-122 2468.4846,-122 2468.4846,-86 2681.5154,-86 2681.5154,-122"/>
<text text-anchor="middle" x="2575" y="-99.8" font-family="Times,serif" font-size="14.00" fill="#000000">ClickSearchInputDemoComponent</text>
</g>
<!-- ClickSearchInputDemoComponent&#45;&gt;ClickSearchInputModule -->
<g id="edge16" class="edge">
<title>ClickSearchInputDemoComponent&#45;&gt;ClickSearchInputModule</title>
<path fill="none" stroke="#000000" d="M2641.9986,-122.0109C2641.9986,-122.0109 2641.9986,-151.855 2641.9986,-151.855"/>
<polygon fill="#000000" stroke="#000000" points="2638.4987,-151.8549 2641.9986,-161.855 2645.4987,-151.855 2638.4987,-151.8549"/>
</g>
<!-- ClickSearchInputComponent  -->
<g id="node22" class="node">
<title>ClickSearchInputComponent </title>
<polygon fill="#fb8072" stroke="#000000" points="2772.3031,-263 2589.6969,-263 2589.6969,-227 2772.3031,-227 2772.3031,-263"/>
<text text-anchor="middle" x="2681" y="-240.8" font-family="Times,serif" font-size="14.00" fill="#000000">ClickSearchInputComponent </text>
</g>
<!-- ClickSearchInputModule&#45;&gt;ClickSearchInputComponent  -->
<g id="edge18" class="edge">
<title>ClickSearchInputModule&#45;&gt;ClickSearchInputComponent </title>
<path fill="none" stroke="#000000" stroke-dasharray="5,2" d="M2681,-198.1061C2681,-198.1061 2681,-216.991 2681,-216.991"/>
<polygon fill="#000000" stroke="#000000" points="2677.5001,-216.9909 2681,-226.991 2684.5001,-216.991 2677.5001,-216.9909"/>
</g>
<!-- ClickTreeViewModule -->
<g id="node34" class="node">
<title>ClickTreeViewModule</title>
<polygon fill="#8dd3c7" stroke="#000000" points="3407.8431,-263 3404.8431,-267 3383.8431,-267 3380.8431,-263 3262.1569,-263 3262.1569,-227 3407.8431,-227 3407.8431,-263"/>
<text text-anchor="middle" x="3335" y="-240.8" font-family="Times,serif" font-size="14.00" fill="#000000">ClickTreeViewModule</text>
</g>
<!-- ClickSearchInputModule&#45;&gt;ClickTreeViewModule -->
<g id="edge29" class="edge">
<title>ClickSearchInputModule&#45;&gt;ClickTreeViewModule</title>
<path fill="none" stroke="#000000" d="M2759.5534,-180C2821.8781,-180 2898.5855,-180 2898.5855,-180 2898.5855,-180 2898.5855,-251 2898.5855,-251 2898.5855,-251 3251.954,-251 3251.954,-251"/>
<polygon fill="#000000" stroke="#000000" points="3251.9541,-254.5001 3261.954,-251 3251.954,-247.5001 3251.9541,-254.5001"/>
</g>
<!-- ClickSearchInputRoutingModule -->
<g id="node21" class="node">
<title>ClickSearchInputRoutingModule</title>
<polygon fill="#8dd3c7" stroke="#000000" points="2444.1385,-122 2441.1385,-126 2420.1385,-126 2417.1385,-122 2241.8615,-122 2241.8615,-86 2444.1385,-86 2444.1385,-122"/>
<text text-anchor="middle" x="2343" y="-99.8" font-family="Times,serif" font-size="14.00" fill="#000000">ClickSearchInputRoutingModule</text>
</g>
<!-- ClickSearchInputRoutingModule&#45;&gt;ClickSearchInputModule -->
<g id="edge17" class="edge">
<title>ClickSearchInputRoutingModule&#45;&gt;ClickSearchInputModule</title>
<path fill="none" stroke="#000000" d="M2343,-122.0267C2343,-142.7672 2343,-174 2343,-174 2343,-174 2592.1806,-174 2592.1806,-174"/>
<polygon fill="#000000" stroke="#000000" points="2592.1806,-177.5001 2602.1806,-174 2592.1806,-170.5001 2592.1806,-177.5001"/>
</g>
<!-- ClickDateRangeCalendarComponent -->
<g id="node23" class="node">
<title>ClickDateRangeCalendarComponent</title>
<polygon fill="#ffffb3" stroke="#000000" points="5096.3889,-198 4871.6111,-198 4871.6111,-162 5096.3889,-162 5096.3889,-198"/>
<text text-anchor="middle" x="4984" y="-175.8" font-family="Times,serif" font-size="14.00" fill="#000000">ClickDateRangeCalendarComponent</text>
</g>
<!-- ClickTimeDomainModule -->
<g id="node27" class="node">
<title>ClickTimeDomainModule</title>
<polygon fill="#8dd3c7" stroke="#000000" points="4502.0337,-263 4499.0337,-267 4478.0337,-267 4475.0337,-263 4337.9663,-263 4337.9663,-227 4502.0337,-227 4502.0337,-263"/>
<text text-anchor="middle" x="4420" y="-240.8" font-family="Times,serif" font-size="14.00" fill="#000000">ClickTimeDomainModule</text>
</g>
<!-- ClickDateRangeCalendarComponent&#45;&gt;ClickTimeDomainModule -->
<g id="edge19" class="edge">
<title>ClickDateRangeCalendarComponent&#45;&gt;ClickTimeDomainModule</title>
<path fill="none" stroke="#000000" d="M4984,-198.2843C4984,-219.3211 4984,-251 4984,-251 4984,-251 4512.3122,-251 4512.3122,-251"/>
<polygon fill="#000000" stroke="#000000" points="4512.3123,-247.5001 4502.3122,-251 4512.3122,-254.5001 4512.3123,-247.5001"/>
</g>
<!-- ClickTimeDomainComponent -->
<g id="node24" class="node">
<title>ClickTimeDomainComponent</title>
<polygon fill="#ffffb3" stroke="#000000" points="4854.3159,-198 4667.6841,-198 4667.6841,-162 4854.3159,-162 4854.3159,-198"/>
<text text-anchor="middle" x="4761" y="-175.8" font-family="Times,serif" font-size="14.00" fill="#000000">ClickTimeDomainComponent</text>
</g>
<!-- ClickTimeDomainComponent&#45;&gt;ClickTimeDomainModule -->
<g id="edge20" class="edge">
<title>ClickTimeDomainComponent&#45;&gt;ClickTimeDomainModule</title>
<path fill="none" stroke="#000000" d="M4761,-198.0225C4761,-215.3734 4761,-239 4761,-239 4761,-239 4512.1119,-239 4512.1119,-239"/>
<polygon fill="#000000" stroke="#000000" points="4512.112,-235.5001 4502.1119,-239 4512.1119,-242.5001 4512.112,-235.5001"/>
</g>
<!-- ClickTimeDomainDemoComponent -->
<g id="node25" class="node">
<title>ClickTimeDomainDemoComponent</title>
<polygon fill="#ffffb3" stroke="#000000" points="4650.0279,-198 4429.9721,-198 4429.9721,-162 4650.0279,-162 4650.0279,-198"/>
<text text-anchor="middle" x="4540" y="-175.8" font-family="Times,serif" font-size="14.00" fill="#000000">ClickTimeDomainDemoComponent</text>
</g>
<!-- ClickTimeDomainDemoComponent&#45;&gt;ClickTimeDomainModule -->
<g id="edge21" class="edge">
<title>ClickTimeDomainDemoComponent&#45;&gt;ClickTimeDomainModule</title>
<path fill="none" stroke="#000000" d="M4466.0014,-198.1061C4466.0014,-198.1061 4466.0014,-216.991 4466.0014,-216.991"/>
<polygon fill="#000000" stroke="#000000" points="4462.5015,-216.9909 4466.0014,-226.991 4469.5015,-216.991 4462.5015,-216.9909"/>
</g>
<!-- ClickTimeDomainModalComponent -->
<g id="node26" class="node">
<title>ClickTimeDomainModalComponent</title>
<polygon fill="#ffffb3" stroke="#000000" points="4411.3654,-198 4188.6346,-198 4188.6346,-162 4411.3654,-162 4411.3654,-198"/>
<text text-anchor="middle" x="4300" y="-175.8" font-family="Times,serif" font-size="14.00" fill="#000000">ClickTimeDomainModalComponent</text>
</g>
<!-- ClickTimeDomainModalComponent&#45;&gt;ClickTimeDomainModule -->
<g id="edge22" class="edge">
<title>ClickTimeDomainModalComponent&#45;&gt;ClickTimeDomainModule</title>
<path fill="none" stroke="#000000" d="M4374.5831,-198.1061C4374.5831,-198.1061 4374.5831,-216.991 4374.5831,-216.991"/>
<polygon fill="#000000" stroke="#000000" points="4371.0832,-216.9909 4374.5831,-226.991 4378.0832,-216.991 4371.0832,-216.9909"/>
</g>
<!-- ClickTimeDomainComponent  -->
<g id="node30" class="node">
<title>ClickTimeDomainComponent </title>
<polygon fill="#fb8072" stroke="#000000" points="4514.8157,-331 4325.1843,-331 4325.1843,-295 4514.8157,-295 4514.8157,-331"/>
<text text-anchor="middle" x="4420" y="-308.8" font-family="Times,serif" font-size="14.00" fill="#000000">ClickTimeDomainComponent </text>
</g>
<!-- ClickTimeDomainModule&#45;&gt;ClickTimeDomainComponent  -->
<g id="edge25" class="edge">
<title>ClickTimeDomainModule&#45;&gt;ClickTimeDomainComponent </title>
<path fill="none" stroke="#000000" stroke-dasharray="5,2" d="M4420,-263.2228C4420,-263.2228 4420,-284.7269 4420,-284.7269"/>
<polygon fill="#000000" stroke="#000000" points="4416.5001,-284.7269 4420,-294.7269 4423.5001,-284.727 4416.5001,-284.7269"/>
</g>
<!-- ClickTimeDomainRoutingModule -->
<g id="node28" class="node">
<title>ClickTimeDomainRoutingModule</title>
<polygon fill="#8dd3c7" stroke="#000000" points="4164.6511,-198 4161.6511,-202 4140.6511,-202 4137.6511,-198 3955.3489,-198 3955.3489,-162 4164.6511,-162 4164.6511,-198"/>
<text text-anchor="middle" x="4060" y="-175.8" font-family="Times,serif" font-size="14.00" fill="#000000">ClickTimeDomainRoutingModule</text>
</g>
<!-- ClickTimeDomainRoutingModule&#45;&gt;ClickTimeDomainModule -->
<g id="edge23" class="edge">
<title>ClickTimeDomainRoutingModule&#45;&gt;ClickTimeDomainModule</title>
<path fill="none" stroke="#000000" d="M4060,-198.0091C4060,-214.0494 4060,-235 4060,-235 4060,-235 4327.86,-235 4327.86,-235"/>
<polygon fill="#000000" stroke="#000000" points="4327.86,-238.5001 4337.86,-235 4327.8599,-231.5001 4327.86,-238.5001"/>
</g>
<!-- ClickTristateCheckboxModule -->
<g id="node29" class="node">
<title>ClickTristateCheckboxModule</title>
<polygon fill="#8dd3c7" stroke="#000000" points="3936.9072,-198 3933.9072,-202 3912.9072,-202 3909.9072,-198 3747.0928,-198 3747.0928,-162 3936.9072,-162 3936.9072,-198"/>
<text text-anchor="middle" x="3842" y="-175.8" font-family="Times,serif" font-size="14.00" fill="#000000">ClickTristateCheckboxModule</text>
</g>
<!-- ClickTristateCheckboxModule&#45;&gt;ClickTimeDomainModule -->
<g id="edge24" class="edge">
<title>ClickTristateCheckboxModule&#45;&gt;ClickTimeDomainModule</title>
<path fill="none" stroke="#000000" d="M3873.5678,-198.2667C3873.5678,-216.5552 3873.5678,-242 3873.5678,-242 3873.5678,-242 4327.898,-242 4327.898,-242"/>
<polygon fill="#000000" stroke="#000000" points="4327.898,-245.5001 4337.898,-242 4327.8979,-238.5001 4327.898,-245.5001"/>
</g>
<!-- ClickTristateCheckboxModule&#45;&gt;ClickTreeViewModule -->
<g id="edge31" class="edge">
<title>ClickTristateCheckboxModule&#45;&gt;ClickTreeViewModule</title>
<path fill="none" stroke="#000000" d="M3810.4322,-198.0109C3810.4322,-220.4852 3810.4322,-256 3810.4322,-256 3810.4322,-256 3417.9847,-256 3417.9847,-256"/>
<polygon fill="#000000" stroke="#000000" points="3417.9848,-252.5001 3407.9847,-256 3417.9847,-259.5001 3417.9848,-252.5001"/>
</g>
<!-- ClickTristateCheckboxComponent  -->
<g id="node40" class="node">
<title>ClickTristateCheckboxComponent </title>
<polygon fill="#fb8072" stroke="#000000" points="3569.1896,-122 3354.8104,-122 3354.8104,-86 3569.1896,-86 3569.1896,-122"/>
<text text-anchor="middle" x="3462" y="-99.8" font-family="Times,serif" font-size="14.00" fill="#000000">ClickTristateCheckboxComponent </text>
</g>
<!-- ClickTristateCheckboxModule&#45;&gt;ClickTristateCheckboxComponent  -->
<g id="edge36" class="edge">
<title>ClickTristateCheckboxModule&#45;&gt;ClickTristateCheckboxComponent </title>
<path fill="none" stroke="#000000" stroke-dasharray="5,2" d="M3773.9518,-161.8533C3773.9518,-148.2605 3773.9518,-132 3773.9518,-132 3773.9518,-132 3554.2653,-132 3554.2653,-132 3554.2653,-132 3554.2653,-131.0207 3554.2653,-131.0207"/>
<polygon fill="#000000" stroke="#000000" points="3557.7654,-132.2069 3554.2653,-122.207 3550.7654,-132.207 3557.7654,-132.2069"/>
</g>
<!-- ClickTreeNodeComponent -->
<g id="node31" class="node">
<title>ClickTreeNodeComponent</title>
<polygon fill="#ffffb3" stroke="#000000" points="3706.6288,-198 3539.3712,-198 3539.3712,-162 3706.6288,-162 3706.6288,-198"/>
<text text-anchor="middle" x="3623" y="-175.8" font-family="Times,serif" font-size="14.00" fill="#000000">ClickTreeNodeComponent</text>
</g>
<!-- ClickTreeNodeComponent&#45;&gt;ClickTreeViewModule -->
<g id="edge26" class="edge">
<title>ClickTreeNodeComponent&#45;&gt;ClickTreeViewModule</title>
<path fill="none" stroke="#000000" d="M3623,-198.1289C3623,-218.5724 3623,-249 3623,-249 3623,-249 3418.0469,-249 3418.0469,-249"/>
<polygon fill="#000000" stroke="#000000" points="3418.0469,-245.5001 3408.0469,-249 3418.0468,-252.5001 3418.0469,-245.5001"/>
</g>
<!-- ClickTreeViewComponent -->
<g id="node32" class="node">
<title>ClickTreeViewComponent</title>
<polygon fill="#ffffb3" stroke="#000000" points="3520.626,-198 3353.374,-198 3353.374,-162 3520.626,-162 3520.626,-198"/>
<text text-anchor="middle" x="3437" y="-175.8" font-family="Times,serif" font-size="14.00" fill="#000000">ClickTreeViewComponent</text>
</g>
<!-- ClickTreeViewComponent&#45;&gt;ClickTreeViewModule -->
<g id="edge27" class="edge">
<title>ClickTreeViewComponent&#45;&gt;ClickTreeViewModule</title>
<path fill="none" stroke="#000000" d="M3380.5544,-198.1061C3380.5544,-198.1061 3380.5544,-216.991 3380.5544,-216.991"/>
<polygon fill="#000000" stroke="#000000" points="3377.0544,-216.9909 3380.5544,-226.991 3384.0544,-216.991 3377.0544,-216.9909"/>
</g>
<!-- ClickTreeViewDemoComponent -->
<g id="node33" class="node">
<title>ClickTreeViewDemoComponent</title>
<polygon fill="#ffffb3" stroke="#000000" points="3334.8375,-198 3133.1625,-198 3133.1625,-162 3334.8375,-162 3334.8375,-198"/>
<text text-anchor="middle" x="3234" y="-175.8" font-family="Times,serif" font-size="14.00" fill="#000000">ClickTreeViewDemoComponent</text>
</g>
<!-- ClickTreeViewDemoComponent&#45;&gt;ClickTreeViewModule -->
<g id="edge28" class="edge">
<title>ClickTreeViewDemoComponent&#45;&gt;ClickTreeViewModule</title>
<path fill="none" stroke="#000000" d="M3298.4986,-198.1061C3298.4986,-198.1061 3298.4986,-216.991 3298.4986,-216.991"/>
<polygon fill="#000000" stroke="#000000" points="3294.9987,-216.9909 3298.4986,-226.991 3301.9987,-216.991 3294.9987,-216.9909"/>
</g>
<!-- ClickTreeViewComponent  -->
<g id="node36" class="node">
<title>ClickTreeViewComponent </title>
<polygon fill="#fb8072" stroke="#000000" points="3420.6256,-331 3249.3744,-331 3249.3744,-295 3420.6256,-295 3420.6256,-331"/>
<text text-anchor="middle" x="3335" y="-308.8" font-family="Times,serif" font-size="14.00" fill="#000000">ClickTreeViewComponent </text>
</g>
<!-- ClickTreeViewModule&#45;&gt;ClickTreeViewComponent  -->
<g id="edge32" class="edge">
<title>ClickTreeViewModule&#45;&gt;ClickTreeViewComponent </title>
<path fill="none" stroke="#000000" stroke-dasharray="5,2" d="M3335,-263.2228C3335,-263.2228 3335,-284.7269 3335,-284.7269"/>
<polygon fill="#000000" stroke="#000000" points="3331.5001,-284.7269 3335,-294.7269 3338.5001,-284.727 3331.5001,-284.7269"/>
</g>
<!-- ClickTreeViewRoutingModule -->
<g id="node35" class="node">
<title>ClickTreeViewRoutingModule</title>
<polygon fill="#8dd3c7" stroke="#000000" points="3109.4608,-198 3106.4608,-202 3085.4608,-202 3082.4608,-198 2918.5392,-198 2918.5392,-162 3109.4608,-162 3109.4608,-198"/>
<text text-anchor="middle" x="3014" y="-175.8" font-family="Times,serif" font-size="14.00" fill="#000000">ClickTreeViewRoutingModule</text>
</g>
<!-- ClickTreeViewRoutingModule&#45;&gt;ClickTreeViewModule -->
<g id="edge30" class="edge">
<title>ClickTreeViewRoutingModule&#45;&gt;ClickTreeViewModule</title>
<path fill="none" stroke="#000000" d="M3014,-198.0225C3014,-215.3734 3014,-239 3014,-239 3014,-239 3251.7585,-239 3251.7585,-239"/>
<polygon fill="#000000" stroke="#000000" points="3251.7585,-242.5001 3261.7585,-239 3251.7584,-235.5001 3251.7585,-242.5001"/>
</g>
<!-- ClickTristateCheckboxComponent -->
<g id="node37" class="node">
<title>ClickTristateCheckboxComponent</title>
<polygon fill="#ffffb3" stroke="#000000" points="4325.6895,-122 4114.3105,-122 4114.3105,-86 4325.6895,-86 4325.6895,-122"/>
<text text-anchor="middle" x="4220" y="-99.8" font-family="Times,serif" font-size="14.00" fill="#000000">ClickTristateCheckboxComponent</text>
</g>
<!-- ClickTristateCheckboxComponent&#45;&gt;ClickTristateCheckboxModule -->
<g id="edge33" class="edge">
<title>ClickTristateCheckboxComponent&#45;&gt;ClickTristateCheckboxModule</title>
<path fill="none" stroke="#000000" d="M4139.6154,-122.1097C4139.6154,-131.897 4139.6154,-142 4139.6154,-142 4139.6154,-142 3908.2354,-142 3908.2354,-142 3908.2354,-142 3908.2354,-151.8903 3908.2354,-151.8903"/>
<polygon fill="#000000" stroke="#000000" points="3904.7355,-151.8903 3908.2354,-161.8903 3911.7355,-151.8904 3904.7355,-151.8903"/>
</g>
<!-- ClickTristateCheckboxDemoComponent -->
<g id="node38" class="node">
<title>ClickTristateCheckboxDemoComponent</title>
<polygon fill="#ffffb3" stroke="#000000" points="4096.9015,-122 3851.0985,-122 3851.0985,-86 4096.9015,-86 4096.9015,-122"/>
<text text-anchor="middle" x="3974" y="-99.8" font-family="Times,serif" font-size="14.00" fill="#000000">ClickTristateCheckboxDemoComponent</text>
</g>
<!-- ClickTristateCheckboxDemoComponent&#45;&gt;ClickTristateCheckboxModule -->
<g id="edge34" class="edge">
<title>ClickTristateCheckboxDemoComponent&#45;&gt;ClickTristateCheckboxModule</title>
<path fill="none" stroke="#000000" d="M3879.7674,-122.0109C3879.7674,-122.0109 3879.7674,-151.855 3879.7674,-151.855"/>
<polygon fill="#000000" stroke="#000000" points="3876.2675,-151.8549 3879.7674,-161.855 3883.2675,-151.855 3876.2675,-151.8549"/>
</g>
<!-- ClickTristateCheckboxRoutingModule -->
<g id="node39" class="node">
<title>ClickTristateCheckboxRoutingModule</title>
<polygon fill="#8dd3c7" stroke="#000000" points="3827.0251,-122 3824.0251,-126 3803.0251,-126 3800.0251,-122 3592.9749,-122 3592.9749,-86 3827.0251,-86 3827.0251,-122"/>
<text text-anchor="middle" x="3710" y="-99.8" font-family="Times,serif" font-size="14.00" fill="#000000">ClickTristateCheckboxRoutingModule</text>
</g>
<!-- ClickTristateCheckboxRoutingModule&#45;&gt;ClickTristateCheckboxModule -->
<g id="edge35" class="edge">
<title>ClickTristateCheckboxRoutingModule&#45;&gt;ClickTristateCheckboxModule</title>
<path fill="none" stroke="#000000" d="M3800.6071,-122.0109C3800.6071,-122.0109 3800.6071,-151.855 3800.6071,-151.855"/>
<polygon fill="#000000" stroke="#000000" points="3797.1072,-151.8549 3800.6071,-161.855 3804.1072,-151.855 3797.1072,-151.8549"/>
</g>
</g>
</svg>
