<?xml version="1.0" encoding="UTF-8" standalone="no"?>
<!DOCTYPE svg PUBLIC "-//W3C//DTD SVG 1.1//EN"
 "http://www.w3.org/Graphics/SVG/1.1/DTD/svg11.dtd">
<!-- Generated by graphviz version 2.40.1 (20161225.0304)
 -->
<!-- Title: dependencies Pages: 1 -->
<svg width="2361pt" height="284pt"
 viewBox="0.00 0.00 2361.00 284.00" xmlns="http://www.w3.org/2000/svg" xmlns:xlink="http://www.w3.org/1999/xlink">
<g id="graph0" class="graph" transform="scale(1 1) rotate(0) translate(4 280)">
<title>dependencies</title>
<polygon fill="#ffffff" stroke="transparent" points="-4,4 -4,-280 2357,-280 2357,4 -4,4"/>
<text text-anchor="start" x="1155.5091" y="-42.4" font-family="sans-serif" font-weight="bold" font-size="14.00" fill="#000000">Legend</text>
<polygon fill="#ffffb3" stroke="transparent" points="942.5,-10 942.5,-30 962.5,-30 962.5,-10 942.5,-10"/>
<text text-anchor="start" x="966.129" y="-15.4" font-family="sans-serif" font-size="14.00" fill="#000000"> &#160;Declarations</text>
<polygon fill="#8dd3c7" stroke="transparent" points="1055.5,-10 1055.5,-30 1075.5,-30 1075.5,-10 1055.5,-10"/>
<text text-anchor="start" x="1079.2251" y="-15.4" font-family="sans-serif" font-size="14.00" fill="#000000"> &#160;Module</text>
<polygon fill="#80b1d3" stroke="transparent" points="1141.5,-10 1141.5,-30 1161.5,-30 1161.5,-10 1141.5,-10"/>
<text text-anchor="start" x="1165.2812" y="-15.4" font-family="sans-serif" font-size="14.00" fill="#000000"> &#160;Bootstrap</text>
<polygon fill="#fdb462" stroke="transparent" points="1238.5,-10 1238.5,-30 1258.5,-30 1258.5,-10 1238.5,-10"/>
<text text-anchor="start" x="1262.1732" y="-15.4" font-family="sans-serif" font-size="14.00" fill="#000000"> &#160;Providers</text>
<polygon fill="#fb8072" stroke="transparent" points="1334.5,-10 1334.5,-30 1354.5,-30 1354.5,-10 1334.5,-10"/>
<text text-anchor="start" x="1358.2258" y="-15.4" font-family="sans-serif" font-size="14.00" fill="#000000"> &#160;Exports</text>
<g id="clust1" class="cluster">
<title>cluster_AppModule</title>
<polygon fill="none" stroke="#000000" stroke-dasharray="1,5" points="8,-70 8,-268 716,-268 716,-70 8,-70"/>
</g>
<g id="clust2" class="cluster">
<title>cluster_AppModule_declarations</title>
<polygon fill="none" stroke="#000000" points="168,-78 168,-130 708,-130 708,-78 168,-78"/>
</g>
<g id="clust6" class="cluster">
<title>cluster_AppModule_imports</title>
<polygon fill="none" stroke="#000000" points="16,-78 16,-130 160,-130 160,-78 16,-78"/>
</g>
<g id="clust8" class="cluster">
<title>cluster_AppModule_bootstrap</title>
<polygon fill="none" stroke="#000000" points="322,-208 322,-260 446,-260 446,-208 322,-208"/>
</g>
<g id="clust16" class="cluster">
<title>cluster_ClickDatePickerDemoModule</title>
<polygon fill="none" stroke="#000000" stroke-dasharray="1,5" points="724,-70 724,-195 1186,-195 1186,-70 724,-70"/>
</g>
<g id="clust17" class="cluster">
<title>cluster_ClickDatePickerDemoModule_declarations</title>
<polygon fill="none" stroke="#000000" points="954,-78 954,-130 1178,-130 1178,-78 954,-78"/>
</g>
<g id="clust19" class="cluster">
<title>cluster_ClickDatePickerDemoModule_imports</title>
<polygon fill="none" stroke="#000000" points="732,-78 732,-130 946,-130 946,-78 732,-78"/>
</g>
<g id="clust23" class="cluster">
<title>cluster_ClickDatePickerRangeDemoModule</title>
<polygon fill="none" stroke="#000000" stroke-dasharray="1,5" points="1194,-70 1194,-195 1762,-195 1762,-70 1194,-70"/>
</g>
<g id="clust24" class="cluster">
<title>cluster_ClickDatePickerRangeDemoModule_declarations</title>
<polygon fill="none" stroke="#000000" points="1494,-78 1494,-130 1754,-130 1754,-78 1494,-78"/>
</g>
<g id="clust26" class="cluster">
<title>cluster_ClickDatePickerRangeDemoModule_imports</title>
<polygon fill="none" stroke="#000000" points="1202,-78 1202,-130 1486,-130 1486,-78 1202,-78"/>
</g>
<g id="clust42" class="cluster">
<title>cluster_ClickIconDemoModule</title>
<polygon fill="none" stroke="#000000" stroke-dasharray="1,5" points="1770,-70 1770,-195 2345,-195 2345,-70 1770,-70"/>
</g>
<g id="clust43" class="cluster">
<title>cluster_ClickIconDemoModule_declarations</title>
<polygon fill="none" stroke="#000000" points="1996,-78 1996,-130 2337,-130 2337,-78 1996,-78"/>
</g>
<g id="clust46" class="cluster">
<title>cluster_ClickIconDemoModule_imports</title>
<polygon fill="none" stroke="#000000" points="1778,-78 1778,-130 1988,-130 1988,-78 1778,-78"/>
</g>
<!-- AppComponent -->
<g id="node1" class="node">
<title>AppComponent</title>
<polygon fill="#ffffb3" stroke="#000000" points="699.9399,-122 594.0601,-122 594.0601,-86 699.9399,-86 699.9399,-122"/>
<text text-anchor="middle" x="647" y="-99.8" font-family="Times,serif" font-size="14.00" fill="#000000">AppComponent</text>
</g>
<!-- AppModule -->
<g id="node4" class="node">
<title>AppModule</title>
<polygon fill="#8dd3c7" stroke="#000000" points="425.6571,-187 422.6571,-191 401.6571,-191 398.6571,-187 342.3429,-187 342.3429,-151 425.6571,-151 425.6571,-187"/>
<text text-anchor="middle" x="384" y="-164.8" font-family="Times,serif" font-size="14.00" fill="#000000">AppModule</text>
</g>
<!-- AppComponent&#45;&gt;AppModule -->
<g id="edge1" class="edge">
<title>AppComponent&#45;&gt;AppModule</title>
<path fill="none" stroke="#000000" d="M647,-122.1061C647,-141.3391 647,-169 647,-169 647,-169 435.6731,-169 435.6731,-169"/>
<polygon fill="#000000" stroke="#000000" points="435.6732,-165.5001 425.6731,-169 435.6731,-172.5001 435.6732,-165.5001"/>
</g>
<!-- ClickDatePickerComponent -->
<g id="node2" class="node">
<title>ClickDatePickerComponent</title>
<polygon fill="#ffffb3" stroke="#000000" points="575.8543,-122 402.1457,-122 402.1457,-86 575.8543,-86 575.8543,-122"/>
<text text-anchor="middle" x="489" y="-99.8" font-family="Times,serif" font-size="14.00" fill="#000000">ClickDatePickerComponent</text>
</g>
<!-- ClickDatePickerComponent&#45;&gt;AppModule -->
<g id="edge2" class="edge">
<title>ClickDatePickerComponent&#45;&gt;AppModule</title>
<path fill="none" stroke="#000000" d="M413.9506,-122.1061C413.9506,-122.1061 413.9506,-140.991 413.9506,-140.991"/>
<polygon fill="#000000" stroke="#000000" points="410.4506,-140.9909 413.9506,-150.991 417.4506,-140.991 410.4506,-140.9909"/>
</g>
<!-- ClickDatepickerRangeComponent -->
<g id="node3" class="node">
<title>ClickDatepickerRangeComponent</title>
<polygon fill="#ffffb3" stroke="#000000" points="384.3375,-122 175.6625,-122 175.6625,-86 384.3375,-86 384.3375,-122"/>
<text text-anchor="middle" x="280" y="-99.8" font-family="Times,serif" font-size="14.00" fill="#000000">ClickDatepickerRangeComponent</text>
</g>
<!-- ClickDatepickerRangeComponent&#45;&gt;AppModule -->
<g id="edge3" class="edge">
<title>ClickDatepickerRangeComponent&#45;&gt;AppModule</title>
<path fill="none" stroke="#000000" d="M363.2953,-122.1061C363.2953,-122.1061 363.2953,-140.991 363.2953,-140.991"/>
<polygon fill="#000000" stroke="#000000" points="359.7953,-140.9909 363.2953,-150.991 366.7953,-140.991 359.7953,-140.9909"/>
</g>
<!-- AppComponent  -->
<g id="node6" class="node">
<title>AppComponent </title>
<polygon fill="#80b1d3" stroke="#000000" points="438.439,-252 329.561,-252 329.561,-216 438.439,-216 438.439,-252"/>
<text text-anchor="middle" x="384" y="-229.8" font-family="Times,serif" font-size="14.00" fill="#000000">AppComponent </text>
</g>
<!-- AppModule&#45;&gt;AppComponent  -->
<g id="edge5" class="edge">
<title>AppModule&#45;&gt;AppComponent </title>
<path fill="none" stroke="#000000" stroke-dasharray="1,5" d="M384,-187.1061C384,-187.1061 384,-205.991 384,-205.991"/>
<polygon fill="#000000" stroke="#000000" points="380.5001,-205.9909 384,-215.991 387.5001,-205.991 380.5001,-205.9909"/>
</g>
<!-- AppRoutingModule -->
<g id="node5" class="node">
<title>AppRoutingModule</title>
<polygon fill="#8dd3c7" stroke="#000000" points="152.2744,-122 149.2744,-126 128.2744,-126 125.2744,-122 23.7256,-122 23.7256,-86 152.2744,-86 152.2744,-122"/>
<text text-anchor="middle" x="88" y="-99.8" font-family="Times,serif" font-size="14.00" fill="#000000">AppRoutingModule</text>
</g>
<!-- AppRoutingModule&#45;&gt;AppModule -->
<g id="edge4" class="edge">
<title>AppRoutingModule&#45;&gt;AppModule</title>
<path fill="none" stroke="#000000" d="M88,-122.1061C88,-141.3391 88,-169 88,-169 88,-169 332.2182,-169 332.2182,-169"/>
<polygon fill="#000000" stroke="#000000" points="332.2183,-172.5001 342.2182,-169 332.2182,-165.5001 332.2183,-172.5001"/>
</g>
<!-- ClickDatePickerDemoComponent -->
<g id="node7" class="node">
<title>ClickDatePickerDemoComponent</title>
<polygon fill="#ffffb3" stroke="#000000" points="1170.066,-122 961.934,-122 961.934,-86 1170.066,-86 1170.066,-122"/>
<text text-anchor="middle" x="1066" y="-99.8" font-family="Times,serif" font-size="14.00" fill="#000000">ClickDatePickerDemoComponent</text>
</g>
<!-- ClickDatePickerDemoModule -->
<g id="node8" class="node">
<title>ClickDatePickerDemoModule</title>
<polygon fill="#8dd3c7" stroke="#000000" points="1045.2836,-187 1042.2836,-191 1021.2836,-191 1018.2836,-187 858.7164,-187 858.7164,-151 1045.2836,-151 1045.2836,-187"/>
<text text-anchor="middle" x="952" y="-164.8" font-family="Times,serif" font-size="14.00" fill="#000000">ClickDatePickerDemoModule</text>
</g>
<!-- ClickDatePickerDemoComponent&#45;&gt;ClickDatePickerDemoModule -->
<g id="edge6" class="edge">
<title>ClickDatePickerDemoComponent&#45;&gt;ClickDatePickerDemoModule</title>
<path fill="none" stroke="#000000" d="M1003.5544,-122.1061C1003.5544,-122.1061 1003.5544,-140.991 1003.5544,-140.991"/>
<polygon fill="#000000" stroke="#000000" points="1000.0544,-140.9909 1003.5544,-150.991 1007.0544,-140.991 1000.0544,-140.9909"/>
</g>
<!-- ClickDatePickerRoutingModule -->
<g id="node9" class="node">
<title>ClickDatePickerRoutingModule</title>
<polygon fill="#8dd3c7" stroke="#000000" points="937.6895,-122 934.6895,-126 913.6895,-126 910.6895,-122 740.3105,-122 740.3105,-86 937.6895,-86 937.6895,-122"/>
<text text-anchor="middle" x="839" y="-99.8" font-family="Times,serif" font-size="14.00" fill="#000000">ClickDatePickerRoutingModule</text>
</g>
<!-- ClickDatePickerRoutingModule&#45;&gt;ClickDatePickerDemoModule -->
<g id="edge7" class="edge">
<title>ClickDatePickerRoutingModule&#45;&gt;ClickDatePickerDemoModule</title>
<path fill="none" stroke="#000000" d="M898.2265,-122.1061C898.2265,-122.1061 898.2265,-140.991 898.2265,-140.991"/>
<polygon fill="#000000" stroke="#000000" points="894.7266,-140.9909 898.2265,-150.991 901.7266,-140.991 894.7266,-140.9909"/>
</g>
<!-- ClickDatePickerRangeDemoComponent -->
<g id="node10" class="node">
<title>ClickDatePickerRangeDemoComponent</title>
<polygon fill="#ffffb3" stroke="#000000" points="1745.8319,-122 1502.1681,-122 1502.1681,-86 1745.8319,-86 1745.8319,-122"/>
<text text-anchor="middle" x="1624" y="-99.8" font-family="Times,serif" font-size="14.00" fill="#000000">ClickDatePickerRangeDemoComponent</text>
</g>
<!-- ClickDatePickerRangeDemoModule -->
<g id="node11" class="node">
<title>ClickDatePickerRangeDemoModule</title>
<polygon fill="#8dd3c7" stroke="#000000" points="1595.0492,-187 1592.0492,-191 1571.0492,-191 1568.0492,-187 1372.9508,-187 1372.9508,-151 1595.0492,-151 1595.0492,-187"/>
<text text-anchor="middle" x="1484" y="-164.8" font-family="Times,serif" font-size="14.00" fill="#000000">ClickDatePickerRangeDemoModule</text>
</g>
<!-- ClickDatePickerRangeDemoComponent&#45;&gt;ClickDatePickerRangeDemoModule -->
<g id="edge8" class="edge">
<title>ClickDatePickerRangeDemoComponent&#45;&gt;ClickDatePickerRangeDemoModule</title>
<path fill="none" stroke="#000000" d="M1548.5543,-122.1061C1548.5543,-122.1061 1548.5543,-140.991 1548.5543,-140.991"/>
<polygon fill="#000000" stroke="#000000" points="1545.0544,-140.9909 1548.5543,-150.991 1552.0544,-140.991 1545.0544,-140.9909"/>
</g>
<!-- ClickDatePickerRangeDemoRoutingModule -->
<g id="node12" class="node">
<title>ClickDatePickerRangeDemoRoutingModule</title>
<polygon fill="#8dd3c7" stroke="#000000" points="1477.6671,-122 1474.6671,-126 1453.6671,-126 1450.6671,-122 1210.3329,-122 1210.3329,-86 1477.6671,-86 1477.6671,-122"/>
<text text-anchor="middle" x="1344" y="-99.8" font-family="Times,serif" font-size="14.00" fill="#000000">ClickDatePickerRangeDemoRoutingModule</text>
</g>
<!-- ClickDatePickerRangeDemoRoutingModule&#45;&gt;ClickDatePickerRangeDemoModule -->
<g id="edge9" class="edge">
<title>ClickDatePickerRangeDemoRoutingModule&#45;&gt;ClickDatePickerRangeDemoModule</title>
<path fill="none" stroke="#000000" d="M1425.2795,-122.1061C1425.2795,-122.1061 1425.2795,-140.991 1425.2795,-140.991"/>
<polygon fill="#000000" stroke="#000000" points="1421.7795,-140.9909 1425.2795,-150.991 1428.7795,-140.991 1421.7795,-140.9909"/>
</g>
<!-- ClickIconComponent -->
<g id="node13" class="node">
<title>ClickIconComponent</title>
<polygon fill="#ffffb3" stroke="#000000" points="2329.0408,-122 2192.9592,-122 2192.9592,-86 2329.0408,-86 2329.0408,-122"/>
<text text-anchor="middle" x="2261" y="-99.8" font-family="Times,serif" font-size="14.00" fill="#000000">ClickIconComponent</text>
</g>
<!-- ClickIconDemoModule -->
<g id="node15" class="node">
<title>ClickIconDemoModule</title>
<polygon fill="#8dd3c7" stroke="#000000" points="2163.4692,-187 2160.4692,-191 2139.4692,-191 2136.4692,-187 2014.5308,-187 2014.5308,-151 2163.4692,-151 2163.4692,-187"/>
<text text-anchor="middle" x="2089" y="-164.8" font-family="Times,serif" font-size="14.00" fill="#000000">ClickIconDemoModule</text>
</g>
<!-- ClickIconComponent&#45;&gt;ClickIconDemoModule -->
<g id="edge10" class="edge">
<title>ClickIconComponent&#45;&gt;ClickIconDemoModule</title>
<path fill="none" stroke="#000000" d="M2261,-122.1061C2261,-141.3391 2261,-169 2261,-169 2261,-169 2173.6913,-169 2173.6913,-169"/>
<polygon fill="#000000" stroke="#000000" points="2173.6913,-165.5001 2163.6913,-169 2173.6913,-172.5001 2173.6913,-165.5001"/>
</g>
<!-- ClickIconDemoComponent -->
<g id="node14" class="node">
<title>ClickIconDemoComponent</title>
<polygon fill="#ffffb3" stroke="#000000" points="2174.252,-122 2003.748,-122 2003.748,-86 2174.252,-86 2174.252,-122"/>
<text text-anchor="middle" x="2089" y="-99.8" font-family="Times,serif" font-size="14.00" fill="#000000">ClickIconDemoComponent</text>
</g>
<!-- ClickIconDemoComponent&#45;&gt;ClickIconDemoModule -->
<g id="edge11" class="edge">
<title>ClickIconDemoComponent&#45;&gt;ClickIconDemoModule</title>
<path fill="none" stroke="#000000" d="M2089,-122.1061C2089,-122.1061 2089,-140.991 2089,-140.991"/>
<polygon fill="#000000" stroke="#000000" points="2085.5001,-140.9909 2089,-150.991 2092.5001,-140.991 2085.5001,-140.9909"/>
</g>
<!-- ClickIconDemoRoutingModule -->
<g id="node16" class="node">
<title>ClickIconDemoRoutingModule</title>
<polygon fill="#8dd3c7" stroke="#000000" points="1980.087,-122 1977.087,-126 1956.087,-126 1953.087,-122 1785.913,-122 1785.913,-86 1980.087,-86 1980.087,-122"/>
<text text-anchor="middle" x="1883" y="-99.8" font-family="Times,serif" font-size="14.00" fill="#000000">ClickIconDemoRoutingModule</text>
</g>
<!-- ClickIconDemoRoutingModule&#45;&gt;ClickIconDemoModule -->
<g id="edge12" class="edge">
<title>ClickIconDemoRoutingModule&#45;&gt;ClickIconDemoModule</title>
<path fill="none" stroke="#000000" d="M1883,-122.1061C1883,-141.3391 1883,-169 1883,-169 1883,-169 2004.338,-169 2004.338,-169"/>
<polygon fill="#000000" stroke="#000000" points="2004.338,-172.5001 2014.338,-169 2004.338,-165.5001 2004.338,-172.5001"/>
</g>
</g>
</svg>
