<?xml version="1.0" encoding="UTF-8" standalone="no"?>
<!DOCTYPE svg PUBLIC "-//W3C//DTD SVG 1.1//EN"
 "http://www.w3.org/Graphics/SVG/1.1/DTD/svg11.dtd">
<!-- Generated by graphviz version 2.40.1 (20161225.0304)
 -->
<!-- Title: dependencies Pages: 1 -->
<svg width="2014pt" height="284pt"
 viewBox="0.00 0.00 2014.00 284.00" xmlns="http://www.w3.org/2000/svg" xmlns:xlink="http://www.w3.org/1999/xlink">
<g id="graph0" class="graph" transform="scale(1 1) rotate(0) translate(4 280)">
<title>dependencies</title>
<polygon fill="#ffffff" stroke="transparent" points="-4,4 -4,-280 2010,-280 2010,4 -4,4"/>
<text text-anchor="start" x="982.0091" y="-42.4" font-family="sans-serif" font-weight="bold" font-size="14.00" fill="#000000">Legend</text>
<polygon fill="#ffffb3" stroke="transparent" points="769,-10 769,-30 789,-30 789,-10 769,-10"/>
<text text-anchor="start" x="792.629" y="-15.4" font-family="sans-serif" font-size="14.00" fill="#000000"> &#160;Declarations</text>
<polygon fill="#8dd3c7" stroke="transparent" points="882,-10 882,-30 902,-30 902,-10 882,-10"/>
<text text-anchor="start" x="905.7251" y="-15.4" font-family="sans-serif" font-size="14.00" fill="#000000"> &#160;Module</text>
<polygon fill="#80b1d3" stroke="transparent" points="968,-10 968,-30 988,-30 988,-10 968,-10"/>
<text text-anchor="start" x="991.7812" y="-15.4" font-family="sans-serif" font-size="14.00" fill="#000000"> &#160;Bootstrap</text>
<polygon fill="#fdb462" stroke="transparent" points="1065,-10 1065,-30 1085,-30 1085,-10 1065,-10"/>
<text text-anchor="start" x="1088.6732" y="-15.4" font-family="sans-serif" font-size="14.00" fill="#000000"> &#160;Providers</text>
<polygon fill="#fb8072" stroke="transparent" points="1161,-10 1161,-30 1181,-30 1181,-10 1161,-10"/>
<text text-anchor="start" x="1184.7258" y="-15.4" font-family="sans-serif" font-size="14.00" fill="#000000"> &#160;Exports</text>
<g id="clust1" class="cluster">
<title>cluster_AppModule</title>
<polygon fill="none" stroke="#000000" stroke-dasharray="1,5" points="8,-70 8,-268 298,-268 298,-70 8,-70"/>
</g>
<g id="clust2" class="cluster">
<title>cluster_AppModule_declarations</title>
<polygon fill="none" stroke="#000000" points="168,-78 168,-130 290,-130 290,-78 168,-78"/>
</g>
<g id="clust4" class="cluster">
<title>cluster_AppModule_imports</title>
<polygon fill="none" stroke="#000000" points="16,-78 16,-130 160,-130 160,-78 16,-78"/>
</g>
<g id="clust6" class="cluster">
<title>cluster_AppModule_bootstrap</title>
<polygon fill="none" stroke="#000000" points="96,-208 96,-260 220,-260 220,-208 96,-208"/>
</g>
<g id="clust14" class="cluster">
<title>cluster_ClickDatePickerDemoModule</title>
<polygon fill="none" stroke="#000000" stroke-dasharray="1,5" points="306,-70 306,-195 768,-195 768,-70 306,-70"/>
</g>
<g id="clust15" class="cluster">
<title>cluster_ClickDatePickerDemoModule_declarations</title>
<polygon fill="none" stroke="#000000" points="536,-78 536,-130 760,-130 760,-78 536,-78"/>
</g>
<g id="clust17" class="cluster">
<title>cluster_ClickDatePickerDemoModule_imports</title>
<polygon fill="none" stroke="#000000" points="314,-78 314,-130 528,-130 528,-78 314,-78"/>
</g>
<g id="clust21" class="cluster">
<title>cluster_ClickDatePickerRangeDemoModule</title>
<polygon fill="none" stroke="#000000" stroke-dasharray="1,5" points="776,-70 776,-195 1570,-195 1570,-70 776,-70"/>
</g>
<g id="clust22" class="cluster">
<title>cluster_ClickDatePickerRangeDemoModule_declarations</title>
<polygon fill="none" stroke="#000000" points="1076,-78 1076,-130 1562,-130 1562,-78 1076,-78"/>
</g>
<g id="clust25" class="cluster">
<title>cluster_ClickDatePickerRangeDemoModule_imports</title>
<polygon fill="none" stroke="#000000" points="784,-78 784,-130 1068,-130 1068,-78 784,-78"/>
</g>
<g id="clust41" class="cluster">
<title>cluster_ClickIconDemoModule</title>
<polygon fill="none" stroke="#000000" stroke-dasharray="1,5" points="1578,-70 1578,-195 1998,-195 1998,-70 1578,-70"/>
</g>
<g id="clust42" class="cluster">
<title>cluster_ClickIconDemoModule_declarations</title>
<polygon fill="none" stroke="#000000" points="1804,-78 1804,-130 1990,-130 1990,-78 1804,-78"/>
</g>
<g id="clust44" class="cluster">
<title>cluster_ClickIconDemoModule_imports</title>
<polygon fill="none" stroke="#000000" points="1586,-78 1586,-130 1796,-130 1796,-78 1586,-78"/>
</g>
<!-- AppComponent -->
<g id="node1" class="node">
<title>AppComponent</title>
<polygon fill="#ffffb3" stroke="#000000" points="281.9399,-122 176.0601,-122 176.0601,-86 281.9399,-86 281.9399,-122"/>
<text text-anchor="middle" x="229" y="-99.8" font-family="Times,serif" font-size="14.00" fill="#000000">AppComponent</text>
</g>
<!-- AppModule -->
<g id="node2" class="node">
<title>AppModule</title>
<polygon fill="#8dd3c7" stroke="#000000" points="199.6571,-187 196.6571,-191 175.6571,-191 172.6571,-187 116.3429,-187 116.3429,-151 199.6571,-151 199.6571,-187"/>
<text text-anchor="middle" x="158" y="-164.8" font-family="Times,serif" font-size="14.00" fill="#000000">AppModule</text>
</g>
<!-- AppComponent&#45;&gt;AppModule -->
<g id="edge1" class="edge">
<title>AppComponent&#45;&gt;AppModule</title>
<path fill="none" stroke="#000000" d="M188.0544,-122.1061C188.0544,-122.1061 188.0544,-140.991 188.0544,-140.991"/>
<polygon fill="#000000" stroke="#000000" points="184.5544,-140.9909 188.0544,-150.991 191.5544,-140.991 184.5544,-140.9909"/>
</g>
<!-- AppComponent  -->
<g id="node4" class="node">
<title>AppComponent </title>
<polygon fill="#80b1d3" stroke="#000000" points="212.439,-252 103.561,-252 103.561,-216 212.439,-216 212.439,-252"/>
<text text-anchor="middle" x="158" y="-229.8" font-family="Times,serif" font-size="14.00" fill="#000000">AppComponent </text>
</g>
<!-- AppModule&#45;&gt;AppComponent  -->
<g id="edge3" class="edge">
<title>AppModule&#45;&gt;AppComponent </title>
<path fill="none" stroke="#000000" stroke-dasharray="1,5" d="M158,-187.1061C158,-187.1061 158,-205.991 158,-205.991"/>
<polygon fill="#000000" stroke="#000000" points="154.5001,-205.9909 158,-215.991 161.5001,-205.991 154.5001,-205.9909"/>
</g>
<!-- AppRoutingModule -->
<g id="node3" class="node">
<title>AppRoutingModule</title>
<polygon fill="#8dd3c7" stroke="#000000" points="152.2744,-122 149.2744,-126 128.2744,-126 125.2744,-122 23.7256,-122 23.7256,-86 152.2744,-86 152.2744,-122"/>
<text text-anchor="middle" x="88" y="-99.8" font-family="Times,serif" font-size="14.00" fill="#000000">AppRoutingModule</text>
</g>
<!-- AppRoutingModule&#45;&gt;AppModule -->
<g id="edge2" class="edge">
<title>AppRoutingModule&#45;&gt;AppModule</title>
<path fill="none" stroke="#000000" d="M134.2795,-122.1061C134.2795,-122.1061 134.2795,-140.991 134.2795,-140.991"/>
<polygon fill="#000000" stroke="#000000" points="130.7795,-140.9909 134.2795,-150.991 137.7795,-140.991 130.7795,-140.9909"/>
</g>
<!-- ClickDatePickerDemoComponent -->
<g id="node5" class="node">
<title>ClickDatePickerDemoComponent</title>
<polygon fill="#ffffb3" stroke="#000000" points="752.066,-122 543.934,-122 543.934,-86 752.066,-86 752.066,-122"/>
<text text-anchor="middle" x="648" y="-99.8" font-family="Times,serif" font-size="14.00" fill="#000000">ClickDatePickerDemoComponent</text>
</g>
<!-- ClickDatePickerDemoModule -->
<g id="node6" class="node">
<title>ClickDatePickerDemoModule</title>
<polygon fill="#8dd3c7" stroke="#000000" points="627.2836,-187 624.2836,-191 603.2836,-191 600.2836,-187 440.7164,-187 440.7164,-151 627.2836,-151 627.2836,-187"/>
<text text-anchor="middle" x="534" y="-164.8" font-family="Times,serif" font-size="14.00" fill="#000000">ClickDatePickerDemoModule</text>
</g>
<!-- ClickDatePickerDemoComponent&#45;&gt;ClickDatePickerDemoModule -->
<g id="edge4" class="edge">
<title>ClickDatePickerDemoComponent&#45;&gt;ClickDatePickerDemoModule</title>
<path fill="none" stroke="#000000" d="M585.5544,-122.1061C585.5544,-122.1061 585.5544,-140.991 585.5544,-140.991"/>
<polygon fill="#000000" stroke="#000000" points="582.0544,-140.9909 585.5544,-150.991 589.0544,-140.991 582.0544,-140.9909"/>
</g>
<!-- ClickDatePickerRoutingModule -->
<g id="node7" class="node">
<title>ClickDatePickerRoutingModule</title>
<polygon fill="#8dd3c7" stroke="#000000" points="519.6895,-122 516.6895,-126 495.6895,-126 492.6895,-122 322.3105,-122 322.3105,-86 519.6895,-86 519.6895,-122"/>
<text text-anchor="middle" x="421" y="-99.8" font-family="Times,serif" font-size="14.00" fill="#000000">ClickDatePickerRoutingModule</text>
</g>
<!-- ClickDatePickerRoutingModule&#45;&gt;ClickDatePickerDemoModule -->
<g id="edge5" class="edge">
<title>ClickDatePickerRoutingModule&#45;&gt;ClickDatePickerDemoModule</title>
<path fill="none" stroke="#000000" d="M480.2265,-122.1061C480.2265,-122.1061 480.2265,-140.991 480.2265,-140.991"/>
<polygon fill="#000000" stroke="#000000" points="476.7266,-140.9909 480.2265,-150.991 483.7266,-140.991 476.7266,-140.9909"/>
</g>
<!-- ClickDatePickerRangeDemoComponent -->
<g id="node8" class="node">
<title>ClickDatePickerRangeDemoComponent</title>
<polygon fill="#ffffb3" stroke="#000000" points="1553.8319,-122 1310.1681,-122 1310.1681,-86 1553.8319,-86 1553.8319,-122"/>
<text text-anchor="middle" x="1432" y="-99.8" font-family="Times,serif" font-size="14.00" fill="#000000">ClickDatePickerRangeDemoComponent</text>
</g>
<!-- ClickDatePickerRangeDemoModule -->
<g id="node10" class="node">
<title>ClickDatePickerRangeDemoModule</title>
<polygon fill="#8dd3c7" stroke="#000000" points="1299.0492,-187 1296.0492,-191 1275.0492,-191 1272.0492,-187 1076.9508,-187 1076.9508,-151 1299.0492,-151 1299.0492,-187"/>
<text text-anchor="middle" x="1188" y="-164.8" font-family="Times,serif" font-size="14.00" fill="#000000">ClickDatePickerRangeDemoModule</text>
</g>
<!-- ClickDatePickerRangeDemoComponent&#45;&gt;ClickDatePickerRangeDemoModule -->
<g id="edge6" class="edge">
<title>ClickDatePickerRangeDemoComponent&#45;&gt;ClickDatePickerRangeDemoModule</title>
<path fill="none" stroke="#000000" d="M1432,-122.1061C1432,-141.3391 1432,-169 1432,-169 1432,-169 1309.2896,-169 1309.2896,-169"/>
<polygon fill="#000000" stroke="#000000" points="1309.2896,-165.5001 1299.2896,-169 1309.2896,-172.5001 1309.2896,-165.5001"/>
</g>
<!-- ClickDatepickerRangeComponent -->
<g id="node9" class="node">
<title>ClickDatepickerRangeComponent</title>
<polygon fill="#ffffb3" stroke="#000000" points="1292.3375,-122 1083.6625,-122 1083.6625,-86 1292.3375,-86 1292.3375,-122"/>
<text text-anchor="middle" x="1188" y="-99.8" font-family="Times,serif" font-size="14.00" fill="#000000">ClickDatepickerRangeComponent</text>
</g>
<!-- ClickDatepickerRangeComponent&#45;&gt;ClickDatePickerRangeDemoModule -->
<g id="edge7" class="edge">
<title>ClickDatepickerRangeComponent&#45;&gt;ClickDatePickerRangeDemoModule</title>
<path fill="none" stroke="#000000" d="M1188,-122.1061C1188,-122.1061 1188,-140.991 1188,-140.991"/>
<polygon fill="#000000" stroke="#000000" points="1184.5001,-140.9909 1188,-150.991 1191.5001,-140.991 1184.5001,-140.9909"/>
</g>
<!-- ClickDatePickerRangeDemoRoutingModule -->
<g id="node11" class="node">
<title>ClickDatePickerRangeDemoRoutingModule</title>
<polygon fill="#8dd3c7" stroke="#000000" points="1059.6671,-122 1056.6671,-126 1035.6671,-126 1032.6671,-122 792.3329,-122 792.3329,-86 1059.6671,-86 1059.6671,-122"/>
<text text-anchor="middle" x="926" y="-99.8" font-family="Times,serif" font-size="14.00" fill="#000000">ClickDatePickerRangeDemoRoutingModule</text>
</g>
<!-- ClickDatePickerRangeDemoRoutingModule&#45;&gt;ClickDatePickerRangeDemoModule -->
<g id="edge8" class="edge">
<title>ClickDatePickerRangeDemoRoutingModule&#45;&gt;ClickDatePickerRangeDemoModule</title>
<path fill="none" stroke="#000000" d="M926,-122.1061C926,-141.3391 926,-169 926,-169 926,-169 1066.8884,-169 1066.8884,-169"/>
<polygon fill="#000000" stroke="#000000" points="1066.8884,-172.5001 1076.8884,-169 1066.8884,-165.5001 1066.8884,-172.5001"/>
</g>
<!-- ClickIconDemoComponent -->
<g id="node12" class="node">
<title>ClickIconDemoComponent</title>
<polygon fill="#ffffb3" stroke="#000000" points="1982.252,-122 1811.748,-122 1811.748,-86 1982.252,-86 1982.252,-122"/>
<text text-anchor="middle" x="1897" y="-99.8" font-family="Times,serif" font-size="14.00" fill="#000000">ClickIconDemoComponent</text>
</g>
<!-- ClickIconDemoModule -->
<g id="node13" class="node">
<title>ClickIconDemoModule</title>
<polygon fill="#8dd3c7" stroke="#000000" points="1868.4692,-187 1865.4692,-191 1844.4692,-191 1841.4692,-187 1719.5308,-187 1719.5308,-151 1868.4692,-151 1868.4692,-187"/>
<text text-anchor="middle" x="1794" y="-164.8" font-family="Times,serif" font-size="14.00" fill="#000000">ClickIconDemoModule</text>
</g>
<!-- ClickIconDemoComponent&#45;&gt;ClickIconDemoModule -->
<g id="edge9" class="edge">
<title>ClickIconDemoComponent&#45;&gt;ClickIconDemoModule</title>
<path fill="none" stroke="#000000" d="M1840.0544,-122.1061C1840.0544,-122.1061 1840.0544,-140.991 1840.0544,-140.991"/>
<polygon fill="#000000" stroke="#000000" points="1836.5544,-140.9909 1840.0544,-150.991 1843.5544,-140.991 1836.5544,-140.9909"/>
</g>
<!-- ClickIconDemoRoutingModule -->
<g id="node14" class="node">
<title>ClickIconDemoRoutingModule</title>
<polygon fill="#8dd3c7" stroke="#000000" points="1788.087,-122 1785.087,-126 1764.087,-126 1761.087,-122 1593.913,-122 1593.913,-86 1788.087,-86 1788.087,-122"/>
<text text-anchor="middle" x="1691" y="-99.8" font-family="Times,serif" font-size="14.00" fill="#000000">ClickIconDemoRoutingModule</text>
</g>
<!-- ClickIconDemoRoutingModule&#45;&gt;ClickIconDemoModule -->
<g id="edge10" class="edge">
<title>ClickIconDemoRoutingModule&#45;&gt;ClickIconDemoModule</title>
<path fill="none" stroke="#000000" d="M1753.7795,-122.1061C1753.7795,-122.1061 1753.7795,-140.991 1753.7795,-140.991"/>
<polygon fill="#000000" stroke="#000000" points="1750.2795,-140.9909 1753.7795,-150.991 1757.2795,-140.991 1750.2795,-140.9909"/>
</g>
</g>
</svg>
