<?xml version="1.0" encoding="UTF-8" standalone="no"?>
<!DOCTYPE svg PUBLIC "-//W3C//DTD SVG 1.1//EN"
 "http://www.w3.org/Graphics/SVG/1.1/DTD/svg11.dtd">
<!-- Generated by graphviz version 2.40.1 (20161225.0304)
 -->
<!-- Title: dependencies Pages: 1 -->
<svg width="2129pt" height="284pt"
 viewBox="0.00 0.00 2129.00 284.00" xmlns="http://www.w3.org/2000/svg" xmlns:xlink="http://www.w3.org/1999/xlink">
<g id="graph0" class="graph" transform="scale(1 1) rotate(0) translate(4 280)">
<title>dependencies</title>
<polygon fill="#ffffff" stroke="transparent" points="-4,4 -4,-280 2125,-280 2125,4 -4,4"/>
<text text-anchor="start" x="1039.5091" y="-42.4" font-family="sans-serif" font-weight="bold" font-size="14.00" fill="#000000">Legend</text>
<polygon fill="#ffffb3" stroke="transparent" points="826.5,-10 826.5,-30 846.5,-30 846.5,-10 826.5,-10"/>
<text text-anchor="start" x="850.129" y="-15.4" font-family="sans-serif" font-size="14.00" fill="#000000"> &#160;Declarations</text>
<polygon fill="#8dd3c7" stroke="transparent" points="939.5,-10 939.5,-30 959.5,-30 959.5,-10 939.5,-10"/>
<text text-anchor="start" x="963.2251" y="-15.4" font-family="sans-serif" font-size="14.00" fill="#000000"> &#160;Module</text>
<polygon fill="#80b1d3" stroke="transparent" points="1025.5,-10 1025.5,-30 1045.5,-30 1045.5,-10 1025.5,-10"/>
<text text-anchor="start" x="1049.2812" y="-15.4" font-family="sans-serif" font-size="14.00" fill="#000000"> &#160;Bootstrap</text>
<polygon fill="#fdb462" stroke="transparent" points="1122.5,-10 1122.5,-30 1142.5,-30 1142.5,-10 1122.5,-10"/>
<text text-anchor="start" x="1146.1732" y="-15.4" font-family="sans-serif" font-size="14.00" fill="#000000"> &#160;Providers</text>
<polygon fill="#fb8072" stroke="transparent" points="1218.5,-10 1218.5,-30 1238.5,-30 1238.5,-10 1218.5,-10"/>
<text text-anchor="start" x="1242.2258" y="-15.4" font-family="sans-serif" font-size="14.00" fill="#000000"> &#160;Exports</text>
<g id="clust1" class="cluster">
<title>cluster_AppModule</title>
<polygon fill="none" stroke="#000000" stroke-dasharray="1,5" points="8,-70 8,-268 871,-268 871,-70 8,-70"/>
</g>
<g id="clust2" class="cluster">
<title>cluster_AppModule_declarations</title>
<polygon fill="none" stroke="#000000" points="168,-78 168,-130 863,-130 863,-78 168,-78"/>
</g>
<g id="clust7" class="cluster">
<title>cluster_AppModule_imports</title>
<polygon fill="none" stroke="#000000" points="16,-78 16,-130 160,-130 160,-78 16,-78"/>
</g>
<g id="clust9" class="cluster">
<title>cluster_AppModule_bootstrap</title>
<polygon fill="none" stroke="#000000" points="373,-208 373,-260 497,-260 497,-208 373,-208"/>
</g>
<g id="clust17" class="cluster">
<title>cluster_ClickDatePickerDemoModule</title>
<polygon fill="none" stroke="#000000" stroke-dasharray="1,5" points="879,-70 879,-195 1109,-195 1109,-70 879,-70"/>
</g>
<g id="clust19" class="cluster">
<title>cluster_ClickDatePickerDemoModule_imports</title>
<polygon fill="none" stroke="#000000" points="887,-78 887,-130 1101,-130 1101,-78 887,-78"/>
</g>
<g id="clust23" class="cluster">
<title>cluster_ClickDatePickerRangeDemoModule</title>
<polygon fill="none" stroke="#000000" stroke-dasharray="1,5" points="1117,-70 1117,-195 1685,-195 1685,-70 1117,-70"/>
</g>
<g id="clust24" class="cluster">
<title>cluster_ClickDatePickerRangeDemoModule_declarations</title>
<polygon fill="none" stroke="#000000" points="1417,-78 1417,-130 1677,-130 1677,-78 1417,-78"/>
</g>
<g id="clust26" class="cluster">
<title>cluster_ClickDatePickerRangeDemoModule_imports</title>
<polygon fill="none" stroke="#000000" points="1125,-78 1125,-130 1409,-130 1409,-78 1125,-78"/>
</g>
<g id="clust42" class="cluster">
<title>cluster_ClickIconDemoModule</title>
<polygon fill="none" stroke="#000000" stroke-dasharray="1,5" points="1693,-70 1693,-195 2113,-195 2113,-70 1693,-70"/>
</g>
<g id="clust43" class="cluster">
<title>cluster_ClickIconDemoModule_declarations</title>
<polygon fill="none" stroke="#000000" points="1919,-78 1919,-130 2105,-130 2105,-78 1919,-78"/>
</g>
<g id="clust45" class="cluster">
<title>cluster_ClickIconDemoModule_imports</title>
<polygon fill="none" stroke="#000000" points="1701,-78 1701,-130 1911,-130 1911,-78 1701,-78"/>
</g>
<!-- AppComponent -->
<g id="node1" class="node">
<title>AppComponent</title>
<polygon fill="#ffffb3" stroke="#000000" points="854.9399,-122 749.0601,-122 749.0601,-86 854.9399,-86 854.9399,-122"/>
<text text-anchor="middle" x="802" y="-99.8" font-family="Times,serif" font-size="14.00" fill="#000000">AppComponent</text>
</g>
<!-- AppModule -->
<g id="node5" class="node">
<title>AppModule</title>
<polygon fill="#8dd3c7" stroke="#000000" points="476.6571,-187 473.6571,-191 452.6571,-191 449.6571,-187 393.3429,-187 393.3429,-151 476.6571,-151 476.6571,-187"/>
<text text-anchor="middle" x="435" y="-164.8" font-family="Times,serif" font-size="14.00" fill="#000000">AppModule</text>
</g>
<!-- AppComponent&#45;&gt;AppModule -->
<g id="edge1" class="edge">
<title>AppComponent&#45;&gt;AppModule</title>
<path fill="none" stroke="#000000" d="M802,-122.2843C802,-143.3211 802,-175 802,-175 802,-175 486.7423,-175 486.7423,-175"/>
<polygon fill="#000000" stroke="#000000" points="486.7423,-171.5001 476.7423,-175 486.7422,-178.5001 486.7423,-171.5001"/>
</g>
<!-- ClickDatePickerComponent -->
<g id="node2" class="node">
<title>ClickDatePickerComponent</title>
<polygon fill="#ffffb3" stroke="#000000" points="730.8543,-122 557.1457,-122 557.1457,-86 730.8543,-86 730.8543,-122"/>
<text text-anchor="middle" x="644" y="-99.8" font-family="Times,serif" font-size="14.00" fill="#000000">ClickDatePickerComponent</text>
</g>
<!-- ClickDatePickerComponent&#45;&gt;AppModule -->
<g id="edge2" class="edge">
<title>ClickDatePickerComponent&#45;&gt;AppModule</title>
<path fill="none" stroke="#000000" d="M644,-122.0225C644,-139.3734 644,-163 644,-163 644,-163 486.792,-163 486.792,-163"/>
<polygon fill="#000000" stroke="#000000" points="486.792,-159.5001 476.792,-163 486.7919,-166.5001 486.792,-159.5001"/>
</g>
<!-- ClickDatepickerRangeComponent -->
<g id="node3" class="node">
<title>ClickDatepickerRangeComponent</title>
<polygon fill="#ffffb3" stroke="#000000" points="539.3375,-122 330.6625,-122 330.6625,-86 539.3375,-86 539.3375,-122"/>
<text text-anchor="middle" x="435" y="-99.8" font-family="Times,serif" font-size="14.00" fill="#000000">ClickDatepickerRangeComponent</text>
</g>
<!-- ClickDatepickerRangeComponent&#45;&gt;AppModule -->
<g id="edge3" class="edge">
<title>ClickDatepickerRangeComponent&#45;&gt;AppModule</title>
<path fill="none" stroke="#000000" d="M435,-122.1061C435,-122.1061 435,-140.991 435,-140.991"/>
<polygon fill="#000000" stroke="#000000" points="431.5001,-140.9909 435,-150.991 438.5001,-140.991 431.5001,-140.9909"/>
</g>
<!-- ClickIconComponent -->
<g id="node4" class="node">
<title>ClickIconComponent</title>
<polygon fill="#ffffb3" stroke="#000000" points="312.0408,-122 175.9592,-122 175.9592,-86 312.0408,-86 312.0408,-122"/>
<text text-anchor="middle" x="244" y="-99.8" font-family="Times,serif" font-size="14.00" fill="#000000">ClickIconComponent</text>
</g>
<!-- ClickIconComponent&#45;&gt;AppModule -->
<g id="edge4" class="edge">
<title>ClickIconComponent&#45;&gt;AppModule</title>
<path fill="none" stroke="#000000" d="M244,-122.0225C244,-139.3734 244,-163 244,-163 244,-163 383.0842,-163 383.0842,-163"/>
<polygon fill="#000000" stroke="#000000" points="383.0843,-166.5001 393.0842,-163 383.0842,-159.5001 383.0843,-166.5001"/>
</g>
<!-- AppComponent  -->
<g id="node7" class="node">
<title>AppComponent </title>
<polygon fill="#80b1d3" stroke="#000000" points="489.439,-252 380.561,-252 380.561,-216 489.439,-216 489.439,-252"/>
<text text-anchor="middle" x="435" y="-229.8" font-family="Times,serif" font-size="14.00" fill="#000000">AppComponent </text>
</g>
<!-- AppModule&#45;&gt;AppComponent  -->
<g id="edge6" class="edge">
<title>AppModule&#45;&gt;AppComponent </title>
<path fill="none" stroke="#000000" stroke-dasharray="1,5" d="M435,-187.1061C435,-187.1061 435,-205.991 435,-205.991"/>
<polygon fill="#000000" stroke="#000000" points="431.5001,-205.9909 435,-215.991 438.5001,-205.991 431.5001,-205.9909"/>
</g>
<!-- AppRoutingModule -->
<g id="node6" class="node">
<title>AppRoutingModule</title>
<polygon fill="#8dd3c7" stroke="#000000" points="152.2744,-122 149.2744,-126 128.2744,-126 125.2744,-122 23.7256,-122 23.7256,-86 152.2744,-86 152.2744,-122"/>
<text text-anchor="middle" x="88" y="-99.8" font-family="Times,serif" font-size="14.00" fill="#000000">AppRoutingModule</text>
</g>
<!-- AppRoutingModule&#45;&gt;AppModule -->
<g id="edge5" class="edge">
<title>AppRoutingModule&#45;&gt;AppModule</title>
<path fill="none" stroke="#000000" d="M88,-122.2843C88,-143.3211 88,-175 88,-175 88,-175 383.1437,-175 383.1437,-175"/>
<polygon fill="#000000" stroke="#000000" points="383.1437,-178.5001 393.1437,-175 383.1437,-171.5001 383.1437,-178.5001"/>
</g>
<!-- ClickDatePickerRoutingModule -->
<g id="node8" class="node">
<title>ClickDatePickerRoutingModule</title>
<polygon fill="#8dd3c7" stroke="#000000" points="1092.6895,-122 1089.6895,-126 1068.6895,-126 1065.6895,-122 895.3105,-122 895.3105,-86 1092.6895,-86 1092.6895,-122"/>
<text text-anchor="middle" x="994" y="-99.8" font-family="Times,serif" font-size="14.00" fill="#000000">ClickDatePickerRoutingModule</text>
</g>
<!-- ClickDatePickerDemoModule -->
<g id="node9" class="node">
<title>ClickDatePickerDemoModule</title>
<polygon fill="#8dd3c7" stroke="#000000" points="1087.2836,-187 1084.2836,-191 1063.2836,-191 1060.2836,-187 900.7164,-187 900.7164,-151 1087.2836,-151 1087.2836,-187"/>
<text text-anchor="middle" x="994" y="-164.8" font-family="Times,serif" font-size="14.00" fill="#000000">ClickDatePickerDemoModule</text>
</g>
<!-- ClickDatePickerRoutingModule&#45;&gt;ClickDatePickerDemoModule -->
<g id="edge7" class="edge">
<title>ClickDatePickerRoutingModule&#45;&gt;ClickDatePickerDemoModule</title>
<path fill="none" stroke="#000000" d="M994,-122.1061C994,-122.1061 994,-140.991 994,-140.991"/>
<polygon fill="#000000" stroke="#000000" points="990.5001,-140.9909 994,-150.991 997.5001,-140.991 990.5001,-140.9909"/>
</g>
<!-- ClickDatePickerRangeDemoComponent -->
<g id="node10" class="node">
<title>ClickDatePickerRangeDemoComponent</title>
<polygon fill="#ffffb3" stroke="#000000" points="1668.8319,-122 1425.1681,-122 1425.1681,-86 1668.8319,-86 1668.8319,-122"/>
<text text-anchor="middle" x="1547" y="-99.8" font-family="Times,serif" font-size="14.00" fill="#000000">ClickDatePickerRangeDemoComponent</text>
</g>
<!-- ClickDatePickerRangeDemoModule -->
<g id="node11" class="node">
<title>ClickDatePickerRangeDemoModule</title>
<polygon fill="#8dd3c7" stroke="#000000" points="1518.0492,-187 1515.0492,-191 1494.0492,-191 1491.0492,-187 1295.9508,-187 1295.9508,-151 1518.0492,-151 1518.0492,-187"/>
<text text-anchor="middle" x="1407" y="-164.8" font-family="Times,serif" font-size="14.00" fill="#000000">ClickDatePickerRangeDemoModule</text>
</g>
<!-- ClickDatePickerRangeDemoComponent&#45;&gt;ClickDatePickerRangeDemoModule -->
<g id="edge8" class="edge">
<title>ClickDatePickerRangeDemoComponent&#45;&gt;ClickDatePickerRangeDemoModule</title>
<path fill="none" stroke="#000000" d="M1471.5543,-122.1061C1471.5543,-122.1061 1471.5543,-140.991 1471.5543,-140.991"/>
<polygon fill="#000000" stroke="#000000" points="1468.0544,-140.9909 1471.5543,-150.991 1475.0544,-140.991 1468.0544,-140.9909"/>
</g>
<!-- ClickDatePickerRangeDemoRoutingModule -->
<g id="node12" class="node">
<title>ClickDatePickerRangeDemoRoutingModule</title>
<polygon fill="#8dd3c7" stroke="#000000" points="1400.6671,-122 1397.6671,-126 1376.6671,-126 1373.6671,-122 1133.3329,-122 1133.3329,-86 1400.6671,-86 1400.6671,-122"/>
<text text-anchor="middle" x="1267" y="-99.8" font-family="Times,serif" font-size="14.00" fill="#000000">ClickDatePickerRangeDemoRoutingModule</text>
</g>
<!-- ClickDatePickerRangeDemoRoutingModule&#45;&gt;ClickDatePickerRangeDemoModule -->
<g id="edge9" class="edge">
<title>ClickDatePickerRangeDemoRoutingModule&#45;&gt;ClickDatePickerRangeDemoModule</title>
<path fill="none" stroke="#000000" d="M1348.2795,-122.1061C1348.2795,-122.1061 1348.2795,-140.991 1348.2795,-140.991"/>
<polygon fill="#000000" stroke="#000000" points="1344.7795,-140.9909 1348.2795,-150.991 1351.7795,-140.991 1344.7795,-140.9909"/>
</g>
<!-- ClickIconDemoComponent -->
<g id="node13" class="node">
<title>ClickIconDemoComponent</title>
<polygon fill="#ffffb3" stroke="#000000" points="2097.252,-122 1926.748,-122 1926.748,-86 2097.252,-86 2097.252,-122"/>
<text text-anchor="middle" x="2012" y="-99.8" font-family="Times,serif" font-size="14.00" fill="#000000">ClickIconDemoComponent</text>
</g>
<!-- ClickIconDemoModule -->
<g id="node14" class="node">
<title>ClickIconDemoModule</title>
<polygon fill="#8dd3c7" stroke="#000000" points="1983.4692,-187 1980.4692,-191 1959.4692,-191 1956.4692,-187 1834.5308,-187 1834.5308,-151 1983.4692,-151 1983.4692,-187"/>
<text text-anchor="middle" x="1909" y="-164.8" font-family="Times,serif" font-size="14.00" fill="#000000">ClickIconDemoModule</text>
</g>
<!-- ClickIconDemoComponent&#45;&gt;ClickIconDemoModule -->
<g id="edge10" class="edge">
<title>ClickIconDemoComponent&#45;&gt;ClickIconDemoModule</title>
<path fill="none" stroke="#000000" d="M1955.0544,-122.1061C1955.0544,-122.1061 1955.0544,-140.991 1955.0544,-140.991"/>
<polygon fill="#000000" stroke="#000000" points="1951.5544,-140.9909 1955.0544,-150.991 1958.5544,-140.991 1951.5544,-140.9909"/>
</g>
<!-- ClickIconDemoRoutingModule -->
<g id="node15" class="node">
<title>ClickIconDemoRoutingModule</title>
<polygon fill="#8dd3c7" stroke="#000000" points="1903.087,-122 1900.087,-126 1879.087,-126 1876.087,-122 1708.913,-122 1708.913,-86 1903.087,-86 1903.087,-122"/>
<text text-anchor="middle" x="1806" y="-99.8" font-family="Times,serif" font-size="14.00" fill="#000000">ClickIconDemoRoutingModule</text>
</g>
<!-- ClickIconDemoRoutingModule&#45;&gt;ClickIconDemoModule -->
<g id="edge11" class="edge">
<title>ClickIconDemoRoutingModule&#45;&gt;ClickIconDemoModule</title>
<path fill="none" stroke="#000000" d="M1868.7795,-122.1061C1868.7795,-122.1061 1868.7795,-140.991 1868.7795,-140.991"/>
<polygon fill="#000000" stroke="#000000" points="1865.2795,-140.9909 1868.7795,-150.991 1872.2795,-140.991 1865.2795,-140.9909"/>
</g>
</g>
</svg>
