<?xml version="1.0" encoding="UTF-8" standalone="no"?>
<!DOCTYPE svg PUBLIC "-//W3C//DTD SVG 1.1//EN"
 "http://www.w3.org/Graphics/SVG/1.1/DTD/svg11.dtd">
<!-- Generated by graphviz version 2.40.1 (20161225.0304)
 -->
<!-- Title: dependencies Pages: 1 -->
<svg width="2361pt" height="284pt"
 viewBox="0.00 0.00 2361.00 284.00" xmlns="http://www.w3.org/2000/svg" xmlns:xlink="http://www.w3.org/1999/xlink">
<g id="graph0" class="graph" transform="scale(1 1) rotate(0) translate(4 280)">
<title>dependencies</title>
<polygon fill="#ffffff" stroke="transparent" points="-4,4 -4,-280 2357,-280 2357,4 -4,4"/>
<text text-anchor="start" x="1155.5091" y="-42.4" font-family="sans-serif" font-weight="bold" font-size="14.00" fill="#000000">Legend</text>
<polygon fill="#ffffb3" stroke="transparent" points="942.5,-10 942.5,-30 962.5,-30 962.5,-10 942.5,-10"/>
<text text-anchor="start" x="966.129" y="-15.4" font-family="sans-serif" font-size="14.00" fill="#000000"> &#160;Declarations</text>
<polygon fill="#8dd3c7" stroke="transparent" points="1055.5,-10 1055.5,-30 1075.5,-30 1075.5,-10 1055.5,-10"/>
<text text-anchor="start" x="1079.2251" y="-15.4" font-family="sans-serif" font-size="14.00" fill="#000000"> &#160;Module</text>
<polygon fill="#80b1d3" stroke="transparent" points="1141.5,-10 1141.5,-30 1161.5,-30 1161.5,-10 1141.5,-10"/>
<text text-anchor="start" x="1165.2812" y="-15.4" font-family="sans-serif" font-size="14.00" fill="#000000"> &#160;Bootstrap</text>
<polygon fill="#fdb462" stroke="transparent" points="1238.5,-10 1238.5,-30 1258.5,-30 1258.5,-10 1238.5,-10"/>
<text text-anchor="start" x="1262.1732" y="-15.4" font-family="sans-serif" font-size="14.00" fill="#000000"> &#160;Providers</text>
<polygon fill="#fb8072" stroke="transparent" points="1334.5,-10 1334.5,-30 1354.5,-30 1354.5,-10 1334.5,-10"/>
<text text-anchor="start" x="1358.2258" y="-15.4" font-family="sans-serif" font-size="14.00" fill="#000000"> &#160;Exports</text>
<g id="clust1" class="cluster">
<title>cluster_AppModule</title>
<polygon fill="none" stroke="#000000" stroke-dasharray="1,5" points="8,-70 8,-268 871,-268 871,-70 8,-70"/>
</g>
<g id="clust2" class="cluster">
<title>cluster_AppModule_declarations</title>
<polygon fill="none" stroke="#000000" points="168,-78 168,-130 863,-130 863,-78 168,-78"/>
</g>
<g id="clust7" class="cluster">
<title>cluster_AppModule_imports</title>
<polygon fill="none" stroke="#000000" points="16,-78 16,-130 160,-130 160,-78 16,-78"/>
</g>
<g id="clust9" class="cluster">
<title>cluster_AppModule_bootstrap</title>
<polygon fill="none" stroke="#000000" points="373,-208 373,-260 497,-260 497,-208 373,-208"/>
</g>
<g id="clust17" class="cluster">
<title>cluster_ClickDatePickerDemoModule</title>
<polygon fill="none" stroke="#000000" stroke-dasharray="1,5" points="879,-70 879,-195 1341,-195 1341,-70 879,-70"/>
</g>
<g id="clust18" class="cluster">
<title>cluster_ClickDatePickerDemoModule_declarations</title>
<polygon fill="none" stroke="#000000" points="1109,-78 1109,-130 1333,-130 1333,-78 1109,-78"/>
</g>
<g id="clust20" class="cluster">
<title>cluster_ClickDatePickerDemoModule_imports</title>
<polygon fill="none" stroke="#000000" points="887,-78 887,-130 1101,-130 1101,-78 887,-78"/>
</g>
<g id="clust24" class="cluster">
<title>cluster_ClickDatePickerRangeDemoModule</title>
<polygon fill="none" stroke="#000000" stroke-dasharray="1,5" points="1349,-70 1349,-195 1917,-195 1917,-70 1349,-70"/>
</g>
<g id="clust25" class="cluster">
<title>cluster_ClickDatePickerRangeDemoModule_declarations</title>
<polygon fill="none" stroke="#000000" points="1649,-78 1649,-130 1909,-130 1909,-78 1649,-78"/>
</g>
<g id="clust27" class="cluster">
<title>cluster_ClickDatePickerRangeDemoModule_imports</title>
<polygon fill="none" stroke="#000000" points="1357,-78 1357,-130 1641,-130 1641,-78 1357,-78"/>
</g>
<g id="clust43" class="cluster">
<title>cluster_ClickIconDemoModule</title>
<polygon fill="none" stroke="#000000" stroke-dasharray="1,5" points="1925,-70 1925,-195 2345,-195 2345,-70 1925,-70"/>
</g>
<g id="clust44" class="cluster">
<title>cluster_ClickIconDemoModule_declarations</title>
<polygon fill="none" stroke="#000000" points="2151,-78 2151,-130 2337,-130 2337,-78 2151,-78"/>
</g>
<g id="clust46" class="cluster">
<title>cluster_ClickIconDemoModule_imports</title>
<polygon fill="none" stroke="#000000" points="1933,-78 1933,-130 2143,-130 2143,-78 1933,-78"/>
</g>
<!-- AppComponent -->
<g id="node1" class="node">
<title>AppComponent</title>
<polygon fill="#ffffb3" stroke="#000000" points="854.9399,-122 749.0601,-122 749.0601,-86 854.9399,-86 854.9399,-122"/>
<text text-anchor="middle" x="802" y="-99.8" font-family="Times,serif" font-size="14.00" fill="#000000">AppComponent</text>
</g>
<!-- AppModule -->
<g id="node5" class="node">
<title>AppModule</title>
<polygon fill="#8dd3c7" stroke="#000000" points="476.6571,-187 473.6571,-191 452.6571,-191 449.6571,-187 393.3429,-187 393.3429,-151 476.6571,-151 476.6571,-187"/>
<text text-anchor="middle" x="435" y="-164.8" font-family="Times,serif" font-size="14.00" fill="#000000">AppModule</text>
</g>
<!-- AppComponent&#45;&gt;AppModule -->
<g id="edge1" class="edge">
<title>AppComponent&#45;&gt;AppModule</title>
<path fill="none" stroke="#000000" d="M802,-122.2843C802,-143.3211 802,-175 802,-175 802,-175 486.7423,-175 486.7423,-175"/>
<polygon fill="#000000" stroke="#000000" points="486.7423,-171.5001 476.7423,-175 486.7422,-178.5001 486.7423,-171.5001"/>
</g>
<!-- ClickDatePickerComponent -->
<g id="node2" class="node">
<title>ClickDatePickerComponent</title>
<polygon fill="#ffffb3" stroke="#000000" points="730.8543,-122 557.1457,-122 557.1457,-86 730.8543,-86 730.8543,-122"/>
<text text-anchor="middle" x="644" y="-99.8" font-family="Times,serif" font-size="14.00" fill="#000000">ClickDatePickerComponent</text>
</g>
<!-- ClickDatePickerComponent&#45;&gt;AppModule -->
<g id="edge2" class="edge">
<title>ClickDatePickerComponent&#45;&gt;AppModule</title>
<path fill="none" stroke="#000000" d="M644,-122.0225C644,-139.3734 644,-163 644,-163 644,-163 486.792,-163 486.792,-163"/>
<polygon fill="#000000" stroke="#000000" points="486.792,-159.5001 476.792,-163 486.7919,-166.5001 486.792,-159.5001"/>
</g>
<!-- ClickDatepickerRangeComponent -->
<g id="node3" class="node">
<title>ClickDatepickerRangeComponent</title>
<polygon fill="#ffffb3" stroke="#000000" points="539.3375,-122 330.6625,-122 330.6625,-86 539.3375,-86 539.3375,-122"/>
<text text-anchor="middle" x="435" y="-99.8" font-family="Times,serif" font-size="14.00" fill="#000000">ClickDatepickerRangeComponent</text>
</g>
<!-- ClickDatepickerRangeComponent&#45;&gt;AppModule -->
<g id="edge3" class="edge">
<title>ClickDatepickerRangeComponent&#45;&gt;AppModule</title>
<path fill="none" stroke="#000000" d="M435,-122.1061C435,-122.1061 435,-140.991 435,-140.991"/>
<polygon fill="#000000" stroke="#000000" points="431.5001,-140.9909 435,-150.991 438.5001,-140.991 431.5001,-140.9909"/>
</g>
<!-- ClickIconComponent -->
<g id="node4" class="node">
<title>ClickIconComponent</title>
<polygon fill="#ffffb3" stroke="#000000" points="312.0408,-122 175.9592,-122 175.9592,-86 312.0408,-86 312.0408,-122"/>
<text text-anchor="middle" x="244" y="-99.8" font-family="Times,serif" font-size="14.00" fill="#000000">ClickIconComponent</text>
</g>
<!-- ClickIconComponent&#45;&gt;AppModule -->
<g id="edge4" class="edge">
<title>ClickIconComponent&#45;&gt;AppModule</title>
<path fill="none" stroke="#000000" d="M244,-122.0225C244,-139.3734 244,-163 244,-163 244,-163 383.0842,-163 383.0842,-163"/>
<polygon fill="#000000" stroke="#000000" points="383.0843,-166.5001 393.0842,-163 383.0842,-159.5001 383.0843,-166.5001"/>
</g>
<!-- AppComponent  -->
<g id="node7" class="node">
<title>AppComponent </title>
<polygon fill="#80b1d3" stroke="#000000" points="489.439,-252 380.561,-252 380.561,-216 489.439,-216 489.439,-252"/>
<text text-anchor="middle" x="435" y="-229.8" font-family="Times,serif" font-size="14.00" fill="#000000">AppComponent </text>
</g>
<!-- AppModule&#45;&gt;AppComponent  -->
<g id="edge6" class="edge">
<title>AppModule&#45;&gt;AppComponent </title>
<path fill="none" stroke="#000000" stroke-dasharray="1,5" d="M435,-187.1061C435,-187.1061 435,-205.991 435,-205.991"/>
<polygon fill="#000000" stroke="#000000" points="431.5001,-205.9909 435,-215.991 438.5001,-205.991 431.5001,-205.9909"/>
</g>
<!-- AppRoutingModule -->
<g id="node6" class="node">
<title>AppRoutingModule</title>
<polygon fill="#8dd3c7" stroke="#000000" points="152.2744,-122 149.2744,-126 128.2744,-126 125.2744,-122 23.7256,-122 23.7256,-86 152.2744,-86 152.2744,-122"/>
<text text-anchor="middle" x="88" y="-99.8" font-family="Times,serif" font-size="14.00" fill="#000000">AppRoutingModule</text>
</g>
<!-- AppRoutingModule&#45;&gt;AppModule -->
<g id="edge5" class="edge">
<title>AppRoutingModule&#45;&gt;AppModule</title>
<path fill="none" stroke="#000000" d="M88,-122.2843C88,-143.3211 88,-175 88,-175 88,-175 383.1437,-175 383.1437,-175"/>
<polygon fill="#000000" stroke="#000000" points="383.1437,-178.5001 393.1437,-175 383.1437,-171.5001 383.1437,-178.5001"/>
</g>
<!-- ClickDatePickerDemoComponent -->
<g id="node8" class="node">
<title>ClickDatePickerDemoComponent</title>
<polygon fill="#ffffb3" stroke="#000000" points="1325.066,-122 1116.934,-122 1116.934,-86 1325.066,-86 1325.066,-122"/>
<text text-anchor="middle" x="1221" y="-99.8" font-family="Times,serif" font-size="14.00" fill="#000000">ClickDatePickerDemoComponent</text>
</g>
<!-- ClickDatePickerDemoModule -->
<g id="node9" class="node">
<title>ClickDatePickerDemoModule</title>
<polygon fill="#8dd3c7" stroke="#000000" points="1200.2836,-187 1197.2836,-191 1176.2836,-191 1173.2836,-187 1013.7164,-187 1013.7164,-151 1200.2836,-151 1200.2836,-187"/>
<text text-anchor="middle" x="1107" y="-164.8" font-family="Times,serif" font-size="14.00" fill="#000000">ClickDatePickerDemoModule</text>
</g>
<!-- ClickDatePickerDemoComponent&#45;&gt;ClickDatePickerDemoModule -->
<g id="edge7" class="edge">
<title>ClickDatePickerDemoComponent&#45;&gt;ClickDatePickerDemoModule</title>
<path fill="none" stroke="#000000" d="M1158.5543,-122.1061C1158.5543,-122.1061 1158.5543,-140.991 1158.5543,-140.991"/>
<polygon fill="#000000" stroke="#000000" points="1155.0544,-140.9909 1158.5543,-150.991 1162.0544,-140.991 1155.0544,-140.9909"/>
</g>
<!-- ClickDatePickerRoutingModule -->
<g id="node10" class="node">
<title>ClickDatePickerRoutingModule</title>
<polygon fill="#8dd3c7" stroke="#000000" points="1092.6895,-122 1089.6895,-126 1068.6895,-126 1065.6895,-122 895.3105,-122 895.3105,-86 1092.6895,-86 1092.6895,-122"/>
<text text-anchor="middle" x="994" y="-99.8" font-family="Times,serif" font-size="14.00" fill="#000000">ClickDatePickerRoutingModule</text>
</g>
<!-- ClickDatePickerRoutingModule&#45;&gt;ClickDatePickerDemoModule -->
<g id="edge8" class="edge">
<title>ClickDatePickerRoutingModule&#45;&gt;ClickDatePickerDemoModule</title>
<path fill="none" stroke="#000000" d="M1053.2265,-122.1061C1053.2265,-122.1061 1053.2265,-140.991 1053.2265,-140.991"/>
<polygon fill="#000000" stroke="#000000" points="1049.7266,-140.9909 1053.2265,-150.991 1056.7266,-140.991 1049.7266,-140.9909"/>
</g>
<!-- ClickDatePickerRangeDemoComponent -->
<g id="node11" class="node">
<title>ClickDatePickerRangeDemoComponent</title>
<polygon fill="#ffffb3" stroke="#000000" points="1900.8319,-122 1657.1681,-122 1657.1681,-86 1900.8319,-86 1900.8319,-122"/>
<text text-anchor="middle" x="1779" y="-99.8" font-family="Times,serif" font-size="14.00" fill="#000000">ClickDatePickerRangeDemoComponent</text>
</g>
<!-- ClickDatePickerRangeDemoModule -->
<g id="node12" class="node">
<title>ClickDatePickerRangeDemoModule</title>
<polygon fill="#8dd3c7" stroke="#000000" points="1750.0492,-187 1747.0492,-191 1726.0492,-191 1723.0492,-187 1527.9508,-187 1527.9508,-151 1750.0492,-151 1750.0492,-187"/>
<text text-anchor="middle" x="1639" y="-164.8" font-family="Times,serif" font-size="14.00" fill="#000000">ClickDatePickerRangeDemoModule</text>
</g>
<!-- ClickDatePickerRangeDemoComponent&#45;&gt;ClickDatePickerRangeDemoModule -->
<g id="edge9" class="edge">
<title>ClickDatePickerRangeDemoComponent&#45;&gt;ClickDatePickerRangeDemoModule</title>
<path fill="none" stroke="#000000" d="M1703.5544,-122.1061C1703.5544,-122.1061 1703.5544,-140.991 1703.5544,-140.991"/>
<polygon fill="#000000" stroke="#000000" points="1700.0544,-140.9909 1703.5544,-150.991 1707.0544,-140.991 1700.0544,-140.9909"/>
</g>
<!-- ClickDatePickerRangeDemoRoutingModule -->
<g id="node13" class="node">
<title>ClickDatePickerRangeDemoRoutingModule</title>
<polygon fill="#8dd3c7" stroke="#000000" points="1632.6671,-122 1629.6671,-126 1608.6671,-126 1605.6671,-122 1365.3329,-122 1365.3329,-86 1632.6671,-86 1632.6671,-122"/>
<text text-anchor="middle" x="1499" y="-99.8" font-family="Times,serif" font-size="14.00" fill="#000000">ClickDatePickerRangeDemoRoutingModule</text>
</g>
<!-- ClickDatePickerRangeDemoRoutingModule&#45;&gt;ClickDatePickerRangeDemoModule -->
<g id="edge10" class="edge">
<title>ClickDatePickerRangeDemoRoutingModule&#45;&gt;ClickDatePickerRangeDemoModule</title>
<path fill="none" stroke="#000000" d="M1580.2795,-122.1061C1580.2795,-122.1061 1580.2795,-140.991 1580.2795,-140.991"/>
<polygon fill="#000000" stroke="#000000" points="1576.7795,-140.9909 1580.2795,-150.991 1583.7795,-140.991 1576.7795,-140.9909"/>
</g>
<!-- ClickIconDemoComponent -->
<g id="node14" class="node">
<title>ClickIconDemoComponent</title>
<polygon fill="#ffffb3" stroke="#000000" points="2329.252,-122 2158.748,-122 2158.748,-86 2329.252,-86 2329.252,-122"/>
<text text-anchor="middle" x="2244" y="-99.8" font-family="Times,serif" font-size="14.00" fill="#000000">ClickIconDemoComponent</text>
</g>
<!-- ClickIconDemoModule -->
<g id="node15" class="node">
<title>ClickIconDemoModule</title>
<polygon fill="#8dd3c7" stroke="#000000" points="2215.4692,-187 2212.4692,-191 2191.4692,-191 2188.4692,-187 2066.5308,-187 2066.5308,-151 2215.4692,-151 2215.4692,-187"/>
<text text-anchor="middle" x="2141" y="-164.8" font-family="Times,serif" font-size="14.00" fill="#000000">ClickIconDemoModule</text>
</g>
<!-- ClickIconDemoComponent&#45;&gt;ClickIconDemoModule -->
<g id="edge11" class="edge">
<title>ClickIconDemoComponent&#45;&gt;ClickIconDemoModule</title>
<path fill="none" stroke="#000000" d="M2187.0544,-122.1061C2187.0544,-122.1061 2187.0544,-140.991 2187.0544,-140.991"/>
<polygon fill="#000000" stroke="#000000" points="2183.5544,-140.9909 2187.0544,-150.991 2190.5544,-140.991 2183.5544,-140.9909"/>
</g>
<!-- ClickIconDemoRoutingModule -->
<g id="node16" class="node">
<title>ClickIconDemoRoutingModule</title>
<polygon fill="#8dd3c7" stroke="#000000" points="2135.087,-122 2132.087,-126 2111.087,-126 2108.087,-122 1940.913,-122 1940.913,-86 2135.087,-86 2135.087,-122"/>
<text text-anchor="middle" x="2038" y="-99.8" font-family="Times,serif" font-size="14.00" fill="#000000">ClickIconDemoRoutingModule</text>
</g>
<!-- ClickIconDemoRoutingModule&#45;&gt;ClickIconDemoModule -->
<g id="edge12" class="edge">
<title>ClickIconDemoRoutingModule&#45;&gt;ClickIconDemoModule</title>
<path fill="none" stroke="#000000" d="M2100.7795,-122.1061C2100.7795,-122.1061 2100.7795,-140.991 2100.7795,-140.991"/>
<polygon fill="#000000" stroke="#000000" points="2097.2795,-140.9909 2100.7795,-150.991 2104.2795,-140.991 2097.2795,-140.9909"/>
</g>
</g>
</svg>
