<?xml version="1.0" encoding="UTF-8" standalone="no"?>
<!DOCTYPE svg PUBLIC "-//W3C//DTD SVG 1.1//EN"
 "http://www.w3.org/Graphics/SVG/1.1/DTD/svg11.dtd">
<!-- Generated by graphviz version 2.40.1 (20161225.0304)
 -->
<!-- Title: dependencies Pages: 1 -->
<svg width="504pt" height="284pt"
 viewBox="0.00 0.00 504.00 284.00" xmlns="http://www.w3.org/2000/svg" xmlns:xlink="http://www.w3.org/1999/xlink">
<g id="graph0" class="graph" transform="scale(1 1) rotate(0) translate(4 280)">
<title>dependencies</title>
<polygon fill="#ffffff" stroke="transparent" points="-4,4 -4,-280 500,-280 500,4 -4,4"/>
<text text-anchor="start" x="227.0091" y="-42.4" font-family="sans-serif" font-weight="bold" font-size="14.00" fill="#000000">Legend</text>
<polygon fill="#ffffb3" stroke="transparent" points="14,-10 14,-30 34,-30 34,-10 14,-10"/>
<text text-anchor="start" x="37.629" y="-15.4" font-family="sans-serif" font-size="14.00" fill="#000000"> &#160;Declarations</text>
<polygon fill="#8dd3c7" stroke="transparent" points="127,-10 127,-30 147,-30 147,-10 127,-10"/>
<text text-anchor="start" x="150.7251" y="-15.4" font-family="sans-serif" font-size="14.00" fill="#000000"> &#160;Module</text>
<polygon fill="#80b1d3" stroke="transparent" points="213,-10 213,-30 233,-30 233,-10 213,-10"/>
<text text-anchor="start" x="236.7812" y="-15.4" font-family="sans-serif" font-size="14.00" fill="#000000"> &#160;Bootstrap</text>
<polygon fill="#fdb462" stroke="transparent" points="310,-10 310,-30 330,-30 330,-10 310,-10"/>
<text text-anchor="start" x="333.6732" y="-15.4" font-family="sans-serif" font-size="14.00" fill="#000000"> &#160;Providers</text>
<polygon fill="#fb8072" stroke="transparent" points="406,-10 406,-30 426,-30 426,-10 406,-10"/>
<text text-anchor="start" x="429.7258" y="-15.4" font-family="sans-serif" font-size="14.00" fill="#000000"> &#160;Exports</text>
<g id="clust1" class="cluster">
<title>cluster_DatePickerModule</title>
<polygon fill="none" stroke="#000000" stroke-dasharray="1,5" points="65,-70 65,-268 431,-268 431,-70 65,-70"/>
</g>
<g id="clust2" class="cluster">
<title>cluster_DatePickerModule_declarations</title>
<polygon fill="none" stroke="#000000" points="263,-78 263,-130 423,-130 423,-78 263,-78"/>
</g>
<g id="clust4" class="cluster">
<title>cluster_DatePickerModule_imports</title>
<polygon fill="none" stroke="#000000" points="73,-78 73,-130 255,-130 255,-78 73,-78"/>
</g>
<g id="clust5" class="cluster">
<title>cluster_DatePickerModule_exports</title>
<polygon fill="none" stroke="#000000" points="170,-208 170,-260 334,-260 334,-208 170,-208"/>
</g>
<!-- DatePickerComponent -->
<g id="node1" class="node">
<title>DatePickerComponent</title>
<polygon fill="#ffffb3" stroke="#000000" points="414.5226,-122 271.4774,-122 271.4774,-86 414.5226,-86 414.5226,-122"/>
<text text-anchor="middle" x="343" y="-99.8" font-family="Times,serif" font-size="14.00" fill="#000000">DatePickerComponent</text>
</g>
<!-- DatePickerModule -->
<g id="node2" class="node">
<title>DatePickerModule</title>
<polygon fill="#8dd3c7" stroke="#000000" points="312.7395,-187 309.7395,-191 288.7395,-191 285.7395,-187 191.2605,-187 191.2605,-151 312.7395,-151 312.7395,-187"/>
<text text-anchor="middle" x="252" y="-164.8" font-family="Times,serif" font-size="14.00" fill="#000000">DatePickerModule</text>
</g>
<!-- DatePickerComponent&#45;&gt;DatePickerModule -->
<g id="edge1" class="edge">
<title>DatePickerComponent&#45;&gt;DatePickerModule</title>
<path fill="none" stroke="#000000" d="M292.0544,-122.1061C292.0544,-122.1061 292.0544,-140.991 292.0544,-140.991"/>
<polygon fill="#000000" stroke="#000000" points="288.5544,-140.9909 292.0544,-150.991 295.5544,-140.991 288.5544,-140.9909"/>
</g>
<!-- DatePickerComponent  -->
<g id="node4" class="node">
<title>DatePickerComponent </title>
<polygon fill="#fb8072" stroke="#000000" points="325.5218,-252 178.4782,-252 178.4782,-216 325.5218,-216 325.5218,-252"/>
<text text-anchor="middle" x="252" y="-229.8" font-family="Times,serif" font-size="14.00" fill="#000000">DatePickerComponent </text>
</g>
<!-- DatePickerModule&#45;&gt;DatePickerComponent  -->
<g id="edge3" class="edge">
<title>DatePickerModule&#45;&gt;DatePickerComponent </title>
<path fill="none" stroke="#000000" stroke-dasharray="5,2" d="M252,-187.1061C252,-187.1061 252,-205.991 252,-205.991"/>
<polygon fill="#000000" stroke="#000000" points="248.5001,-205.9909 252,-215.991 255.5001,-205.991 248.5001,-205.9909"/>
</g>
<!-- DatePickerRoutingModule -->
<g id="node3" class="node">
<title>DatePickerRoutingModule</title>
<polygon fill="#8dd3c7" stroke="#000000" points="247.3571,-122 244.3571,-126 223.3571,-126 220.3571,-122 80.6429,-122 80.6429,-86 247.3571,-86 247.3571,-122"/>
<text text-anchor="middle" x="164" y="-99.8" font-family="Times,serif" font-size="14.00" fill="#000000">DatePickerRoutingModule</text>
</g>
<!-- DatePickerRoutingModule&#45;&gt;DatePickerModule -->
<g id="edge2" class="edge">
<title>DatePickerRoutingModule&#45;&gt;DatePickerModule</title>
<path fill="none" stroke="#000000" d="M219.2795,-122.1061C219.2795,-122.1061 219.2795,-140.991 219.2795,-140.991"/>
<polygon fill="#000000" stroke="#000000" points="215.7795,-140.9909 219.2795,-150.991 222.7795,-140.991 215.7795,-140.9909"/>
</g>
</g>
</svg>
